<svg xmlns="http://www.w3.org/2000/svg" viewBox="0 0 1920 1080"><defs><style>.cls-1,.cls-4,.cls-5{fill:none;stroke-miterlimit:10;}.cls-1,.cls-5{stroke:#77aa89;}.cls-1,.cls-4{stroke-width:2px;}.cls-2,.cls-3,.cls-6{fill:#77aa89;}.cls-3{opacity:0.5;}.cls-4{stroke:#5a8068;}.cls-5{stroke-width:5px;}.cls-6{font-size:60px;font-family:NeueMontreal-Medium, Neue Montreal;font-weight:500;}</style></defs><g id="Livello_2" data-name="Livello 2"><path class="cls-1" d="M762.14,340.37h474.46A17.38,17.38,0,0,1,1254,357.75v645.78a17.38,17.38,0,0,1-17.38,17.38H762.14a27.19,27.19,0,0,1-27.19-27.19V367.57A27.19,27.19,0,0,1,762.14,340.37Z"/><path class="cls-1" d="M1233.2,340.56a22.1,22.1,0,0,0-21.45-16.78H755.47a34.57,34.57,0,0,0-34.57,34.57v99.87c0,8,5.61,14.46,14.45,14.46"/><path class="cls-1" d="M735.35,482.15a14.22,14.22,0,0,0-14.45,14V948.94A33,33,0,0,0,735,975.87"/><polygon class="cls-2" points="1151.85 310.91 1145.45 315.02 1139.06 310.91 1132.67 315.02 1126.29 310.91 1119.9 315.02 1113.53 310.91 1107.16 315.02 1100.78 310.91 1100.78 323.78 1151.85 323.78 1151.85 310.91"/><rect class="cls-1" x="770.33" y="372.81" width="196.75" height="618.64" rx="6.13"/><path class="cls-1" d="M1254,991.45H1001a7.31,7.31,0,0,1-7.31-7.31v-604a7.31,7.31,0,0,1,7.31-7.31h253"/><path class="cls-1" d="M726,158.34h500.84a5.64,5.64,0,0,1,5.64,5.64v77.85a5.64,5.64,0,0,1-5.64,5.64H726a5.12,5.12,0,0,1-5.12-5.12v-78.9A5.12,5.12,0,0,1,726,158.34Z"/><path class="cls-1" d="M735.35,157.93v-4.4a5.87,5.87,0,0,1,5.87-5.86h494.31A18.45,18.45,0,0,1,1254,166.12v73.57a18.45,18.45,0,0,1-18.45,18.45H741.22a5.86,5.86,0,0,1-5.87-5.86v-4.81"/><rect class="cls-1" x="820.24" y="128.06" width="336.48" height="19.61"/><rect class="cls-3" x="1100.78" y="175.12" width="80.41" height="56.19"/><rect class="cls-2" x="738.61" y="175.22" width="17.42" height="56.09"/><rect class="cls-2" x="764.95" y="175.22" width="17.42" height="56.09"/><rect class="cls-2" x="791.29" y="175.22" width="17.42" height="56.09"/><rect class="cls-2" x="1100.78" y="175.22" width="52.07" height="56.05"/><line class="cls-4" x1="1107.16" y1="223.61" x2="1107.16" y2="185.99"/><line class="cls-4" x1="1119.62" y1="223.61" x2="1119.62" y2="185.99"/><line class="cls-4" x1="1132.51" y1="223.61" x2="1132.51" y2="185.99"/><line class="cls-4" x1="1145.39" y1="223.61" x2="1145.39" y2="185.99"/><circle class="cls-3" cx="1196.7" cy="202.91" r="5.73"/><circle class="cls-2" cx="1083.99" cy="202.91" r="5.73"/><line class="cls-5" x1="680.37" y1="202.6" x2="521.88" y2="202.6"/><polygon class="cls-2" points="676.72 190.13 698.3 202.6 676.72 215.06 676.72 190.13"/><text class="cls-6" transform="translate(454.27 212.18)">A</text><text class="cls-6" transform="translate(1431.65 212.18)">B</text><text class="cls-6" transform="translate(1431.65 315.3)">C</text><line class="cls-5" x1="1195.46" y1="296.99" x2="1405.51" y2="296.99"/><polygon class="cls-2" points="1199.1 309.46 1177.52 297 1199.1 284.53 1199.1 309.46"/><line class="cls-5" x1="1234.88" y1="202.6" x2="1405.51" y2="202.6"/><polygon class="cls-2" points="1238.52 215.06 1216.94 202.6 1238.52 190.13 1238.52 215.06"/></g></svg>