<svg xmlns="http://www.w3.org/2000/svg" viewBox="0 0 1920 1080"><defs><style>.cls-1,.cls-4,.cls-5{fill:none;stroke-miterlimit:10;}.cls-1,.cls-5{stroke:#77aa89;}.cls-1,.cls-4{stroke-width:2px;}.cls-2,.cls-3{fill:#77aa89;}.cls-3{opacity:0.5;}.cls-4{stroke:#5a8068;}.cls-5{stroke-width:5px;}</style></defs><g id="Livello_2" data-name="Livello 2"><path class="cls-1" d="M762.14,340.37h474.46A17.38,17.38,0,0,1,1254,357.75v645.78a17.38,17.38,0,0,1-17.38,17.38H762.14a27.19,27.19,0,0,1-27.19-27.19V367.57A27.19,27.19,0,0,1,762.14,340.37Z"/><path class="cls-1" d="M1233.2,340.56a22.1,22.1,0,0,0-21.45-16.78H755.47a34.57,34.57,0,0,0-34.57,34.57v99.87c0,8,5.61,14.46,14.45,14.46"/><path class="cls-1" d="M735.35,482.15a14.22,14.22,0,0,0-14.45,14V948.94A33,33,0,0,0,735,975.87"/><polygon class="cls-2" points="1151.85 310.91 1145.45 315.02 1139.06 310.91 1132.67 315.02 1126.29 310.91 1119.9 315.02 1113.53 310.91 1107.16 315.02 1100.78 310.91 1100.78 323.78 1151.85 323.78 1151.85 310.91"/><rect class="cls-1" x="770.33" y="372.81" width="196.75" height="618.64" rx="6.13"/><path class="cls-1" d="M1254,991.45H1001a7.31,7.31,0,0,1-7.31-7.31v-604a7.31,7.31,0,0,1,7.31-7.31h253"/><path class="cls-1" d="M726,158.34h500.84a5.64,5.64,0,0,1,5.64,5.64v77.85a5.64,5.64,0,0,1-5.64,5.64H726a5.12,5.12,0,0,1-5.12-5.12v-78.9A5.12,5.12,0,0,1,726,158.34Z"/><path class="cls-1" d="M735.35,157.93v-4.4a5.87,5.87,0,0,1,5.87-5.86h494.31A18.45,18.45,0,0,1,1254,166.12v73.57a18.45,18.45,0,0,1-18.45,18.45H741.22a5.86,5.86,0,0,1-5.87-5.86v-4.81"/><rect class="cls-1" x="820.24" y="128.06" width="336.48" height="19.61"/><rect class="cls-3" x="1100.78" y="175.12" width="80.41" height="56.19"/><rect class="cls-2" x="738.61" y="175.22" width="17.42" height="56.09"/><rect class="cls-2" x="764.95" y="175.22" width="17.42" height="56.09"/><rect class="cls-2" x="791.29" y="175.22" width="17.42" height="56.09"/><rect class="cls-2" x="1100.78" y="175.22" width="52.07" height="56.05"/><line class="cls-4" x1="1107.16" y1="223.61" x2="1107.16" y2="185.99"/><line class="cls-4" x1="1119.62" y1="223.61" x2="1119.62" y2="185.99"/><line class="cls-4" x1="1132.51" y1="223.61" x2="1132.51" y2="185.99"/><line class="cls-4" x1="1145.39" y1="223.61" x2="1145.39" y2="185.99"/><circle class="cls-3" cx="1196.7" cy="202.91" r="5.73"/><circle class="cls-2" cx="1083.99" cy="202.91" r="5.73"/><line class="cls-5" x1="680.37" y1="202.6" x2="521.88" y2="202.6"/><polygon class="cls-2" points="676.72 190.13 698.3 202.6 676.72 215.06 676.72 190.13"/><path class="cls-2" d="M454.45,212.18l16.86-39.72H477l16.86,39.72h-5L484,200.66H464.29l-4.86,11.52ZM466,196.52h16.2l-8.1-19.38Z"/><path class="cls-2" d="M1436.51,212.18V172.46h17.82a14.49,14.49,0,0,1,7.41,1.62,9.77,9.77,0,0,1,3.93,4,10.83,10.83,0,0,1,1.2,4.83,9.41,9.41,0,0,1-1.62,5.91,10,10,0,0,1-3.72,3,13.18,13.18,0,0,1,3.39,1.71,9.45,9.45,0,0,1,2.85,3.15,9.87,9.87,0,0,1,1.14,5,9.54,9.54,0,0,1-3.39,7.44q-3.39,3-10.17,3Zm4.5-22h13.32a10.64,10.64,0,0,0,3.93-.72,6.67,6.67,0,0,0,3-2.25,6.4,6.4,0,0,0,1.14-3.93,7,7,0,0,0-.75-3.18,5.9,5.9,0,0,0-2.4-2.46,8.74,8.74,0,0,0-4.41-1H1441Zm0,17.7h14.82a10.27,10.27,0,0,0,6.33-1.71,5.71,5.71,0,0,0,2.25-4.83,6.74,6.74,0,0,0-2.16-4.95q-2.16-2.13-6.9-2.13H1441Z"/><path class="cls-2" d="M1453.19,315.78a18.8,18.8,0,0,1-10.26-2.73,18.1,18.1,0,0,1-6.63-7.35,23.94,23.94,0,0,1,0-20.52,18.1,18.1,0,0,1,6.63-7.35,18.8,18.8,0,0,1,10.26-2.73,19.85,19.85,0,0,1,8.1,1.59,17.91,17.91,0,0,1,9.9,10.77h-4.74a12.55,12.55,0,0,0-4.74-5.82,14.41,14.41,0,0,0-8.16-2.16,15.09,15.09,0,0,0-8.19,2.13,13.66,13.66,0,0,0-5.13,5.73,19.65,19.65,0,0,0,0,16.17,13.62,13.62,0,0,0,5.13,5.76,15.09,15.09,0,0,0,8.19,2.13,14.41,14.41,0,0,0,8.16-2.16,12.55,12.55,0,0,0,4.74-5.82h4.74a18.6,18.6,0,0,1-3.78,6.39,17.85,17.85,0,0,1-6.12,4.38A19.85,19.85,0,0,1,1453.19,315.78Z"/><line class="cls-5" x1="1195.46" y1="296.99" x2="1405.51" y2="296.99"/><polygon class="cls-2" points="1199.1 309.46 1177.52 297 1199.1 284.53 1199.1 309.46"/><line class="cls-5" x1="1234.88" y1="202.6" x2="1405.51" y2="202.6"/><polygon class="cls-2" points="1238.52 215.06 1216.94 202.6 1238.52 190.13 1238.52 215.06"/></g></svg>