<svg xmlns="http://www.w3.org/2000/svg" viewBox="0 0 1920 1080"><defs><style>.cls-1,.cls-3{fill:none;}.cls-1,.cls-3,.cls-4,.cls-5{stroke:#77aa89;stroke-miterlimit:10;}.cls-1{stroke-width:5px;}.cls-2,.cls-4,.cls-5{fill:#77aa89;}.cls-3,.cls-4,.cls-5{stroke-width:2px;}.cls-4{opacity:0.7;}</style></defs><g id="Livello_2" data-name="Livello 2"><polyline class="cls-1" points="944.96 167.72 944.96 115.67 521.88 115.67"/><polygon class="cls-2" points="957.42 164.07 944.96 185.66 932.49 164.07 957.42 164.07"/><polyline class="cls-1" points="688.92 339.86 521.88 339.86 521.88 210.48 688.92 210.48"/><polygon class="cls-2" points="685.27 327.39 706.86 339.86 685.27 352.32 685.27 327.39"/><polygon class="cls-2" points="685.27 222.94 706.86 210.48 685.27 198.01 685.27 222.94"/><line class="cls-1" x1="1302.56" y1="210.48" x2="1463.75" y2="210.48"/><polygon class="cls-2" points="1306.2 222.94 1284.62 210.48 1306.2 198.01 1306.2 222.94"/><line class="cls-1" x1="1302.56" y1="453.74" x2="1463.75" y2="453.74"/><polygon class="cls-2" points="1306.2 466.21 1284.62 453.75 1306.2 441.28 1306.2 466.21"/><polygon class="cls-2" points="1266.08 477.7 1263.12 472.26 1266.08 466.82 1263.12 461.4 1266.08 455.97 1263.12 450.55 1266.08 445.13 1263.12 439.72 1266.08 434.3 1256.83 434.3 1256.83 477.7 1266.08 477.7"/><path class="cls-3" d="M732.09,405.14V990.53a34,34,0,0,0,33.78,34.14h457.18a34,34,0,0,0,33.78-34.14V397.31c0-36.16-29-65.47-64.78-65.47H877.56"/><path class="cls-3" d="M875.41,343c1.6,0,2.9-.82,2.9-2.17v-5.73c0-4.52-3.94-8.18-8.8-8.18H769.72c-4.86,0-8.8,3.66-8.8,8.18v11.25c0,1.77,2.36,2.83,4.23,2A61.17,61.17,0,0,1,789.67,343Z"/><path class="cls-3" d="M788.4,343h381a62.52,62.52,0,0,1,62.52,62.52V806.38a34.82,34.82,0,0,1-34.82,34.82H766.91a34.82,34.82,0,0,1-34.82-34.82v-407A56.32,56.32,0,0,1,788.4,343Z"/><rect class="cls-2" x="822.1" y="423.98" width="366.43" height="34.86" rx="9.2"/><rect class="cls-2" x="822.1" y="480.61" width="366.43" height="34.86" rx="9.2"/><rect class="cls-2" x="822.1" y="537.25" width="366.43" height="34.86" rx="9.2"/><rect class="cls-2" x="822.1" y="593.89" width="366.43" height="34.86" rx="9.2"/><rect class="cls-2" x="822.1" y="650.52" width="366.43" height="34.86" rx="9.2"/><rect class="cls-2" x="822.1" y="707.16" width="366.43" height="34.86" rx="9.2"/><path class="cls-3" d="M760.92,209h0a58.43,58.43,0,0,1,58.43-58.43H775a48.81,48.81,0,0,0-48.81,48.81v29.34A48.81,48.81,0,0,0,775,277.54h418.25a38.44,38.44,0,0,0,26-10.09H819.35A58.43,58.43,0,0,1,760.92,209Z"/><path class="cls-3" d="M819.35,150.58h424a13.47,13.47,0,0,1,13.47,13.47V254a13.47,13.47,0,0,1-13.47,13.47h-424A58.43,58.43,0,0,1,760.92,209v0a58.43,58.43,0,0,1,58.43-58.43Z"/><circle class="cls-3" cx="819.2" cy="209.01" r="58.28"/><rect class="cls-3" x="807.6" y="163.25" width="23.19" height="8.89" rx="2.34" transform="translate(986.89 -651.51) rotate(90)"/><rect class="cls-3" x="807.6" y="245" width="23.19" height="8.89" rx="2.34" transform="translate(1068.64 -569.75) rotate(90)"/><rect class="cls-3" x="848.48" y="204.12" width="23.19" height="8.89" rx="2.34" transform="translate(1720.15 417.14) rotate(180)"/><rect class="cls-4" x="914.2" y="201.74" width="61.26" height="23.48" rx="11.74" transform="translate(1889.67 426.96) rotate(180)"/><rect class="cls-3" x="766.73" y="204.12" width="23.19" height="8.89" rx="2.34" transform="translate(1556.64 417.14) rotate(180)"/><rect class="cls-3" x="836.51" y="233.03" width="23.19" height="8.89" rx="2.34" transform="translate(1279.88 1005.09) rotate(-135)"/><rect class="cls-3" x="778.7" y="175.22" width="23.19" height="8.89" rx="2.34" transform="translate(1222.07 865.53) rotate(-135)"/><rect class="cls-3" x="778.7" y="233.03" width="23.19" height="8.89" rx="2.34" transform="translate(63.55 628.38) rotate(-45)"/><rect class="cls-3" x="836.51" y="175.22" width="23.19" height="8.89" rx="2.34" transform="translate(121.36 652.32) rotate(-45)"/><path class="cls-5" d="M1211.28,186h43.08a2.48,2.48,0,0,1,2.48,2.48v51a2.48,2.48,0,0,1-2.48,2.48h-43.08a10.36,10.36,0,0,1-10.36-10.36V196.34A10.36,10.36,0,0,1,1211.28,186Z"/><polyline class="cls-3" points="1256.83 175.83 895.38 175.83 895.38 251.13 1256.83 251.13"/><rect class="cls-3" x="868.87" y="135.15" width="275.12" height="15.43"/><path class="cls-2" d="M459.13,221.16V181.44H477a14.49,14.49,0,0,1,7.41,1.62,9.77,9.77,0,0,1,3.93,4.05,10.83,10.83,0,0,1,1.2,4.83,9.41,9.41,0,0,1-1.62,5.91,10,10,0,0,1-3.72,3,13.18,13.18,0,0,1,3.39,1.71,9.45,9.45,0,0,1,2.85,3.15,9.87,9.87,0,0,1,1.14,5,9.54,9.54,0,0,1-3.39,7.44q-3.39,3-10.17,3Zm4.5-22H477a10.64,10.64,0,0,0,3.93-.72,6.67,6.67,0,0,0,3-2.25A6.4,6.4,0,0,0,485,192.3a7,7,0,0,0-.75-3.18,5.9,5.9,0,0,0-2.4-2.46,8.74,8.74,0,0,0-4.41-1h-13.8Zm0,17.7h14.82a10.27,10.27,0,0,0,6.33-1.71,5.71,5.71,0,0,0,2.25-4.83,6.74,6.74,0,0,0-2.16-5q-2.16-2.13-6.9-2.13H463.63Z"/><path class="cls-2" d="M454.45,123.56l16.86-39.72H477l16.86,39.72h-5L484,112.05H464.29l-4.86,11.51ZM466,107.9h16.2l-8.1-19.38Z"/><path class="cls-2" d="M1510.69,221.64a18.8,18.8,0,0,1-10.26-2.73,18.1,18.1,0,0,1-6.63-7.35,23.94,23.94,0,0,1,0-20.52,18.1,18.1,0,0,1,6.63-7.35,18.8,18.8,0,0,1,10.26-2.73,19.85,19.85,0,0,1,8.1,1.59,17.91,17.91,0,0,1,9.9,10.77H1524a12.55,12.55,0,0,0-4.74-5.82,14.41,14.41,0,0,0-8.16-2.16,15.09,15.09,0,0,0-8.19,2.13,13.66,13.66,0,0,0-5.13,5.73,19.65,19.65,0,0,0,0,16.17,13.62,13.62,0,0,0,5.13,5.76,15.09,15.09,0,0,0,8.19,2.13,14.41,14.41,0,0,0,8.16-2.16,12.55,12.55,0,0,0,4.74-5.82h4.74a18.6,18.6,0,0,1-3.78,6.39,17.85,17.85,0,0,1-6.12,4.38A19.85,19.85,0,0,1,1510.69,221.64Z"/><path class="cls-2" d="M1494,463.5V423.78h16.74a17.79,17.79,0,0,1,12.66,5.28,18.77,18.77,0,0,1,4.08,6.24,23.94,23.94,0,0,1,0,16.68,18.77,18.77,0,0,1-4.08,6.24,17.79,17.79,0,0,1-12.66,5.28Zm4.5-4.26h12.06a12.64,12.64,0,0,0,7.38-2.16,14.43,14.43,0,0,0,4.83-5.7,18.51,18.51,0,0,0,0-15.54,14.2,14.2,0,0,0-4.83-5.67,12.77,12.77,0,0,0-7.38-2.13h-12.06Z"/></g></svg>