<svg xmlns="http://www.w3.org/2000/svg" viewBox="0 0 1920 1080"><defs><style>.cls-1,.cls-3{fill:none;}.cls-1,.cls-3,.cls-4,.cls-5{stroke:#77aa89;stroke-miterlimit:10;}.cls-1{stroke-width:5px;}.cls-2,.cls-4,.cls-5,.cls-6{fill:#77aa89;}.cls-3,.cls-4,.cls-5{stroke-width:2px;}.cls-4{opacity:0.7;}.cls-6{font-size:60px;font-family:NeueMontreal-Medium, Neue Montreal;font-weight:500;}</style></defs><g id="Livello_2" data-name="Livello 2"><polyline class="cls-1" points="944.96 167.72 944.96 115.67 521.88 115.67"/><polygon class="cls-2" points="957.42 164.07 944.96 185.66 932.49 164.07 957.42 164.07"/><polyline class="cls-1" points="688.92 339.86 521.88 339.86 521.88 210.48 688.92 210.48"/><polygon class="cls-2" points="685.27 327.39 706.86 339.86 685.27 352.32 685.27 327.39"/><polygon class="cls-2" points="685.27 222.94 706.86 210.48 685.27 198.01 685.27 222.94"/><line class="cls-1" x1="1302.56" y1="210.48" x2="1463.75" y2="210.48"/><polygon class="cls-2" points="1306.2 222.94 1284.62 210.48 1306.2 198.01 1306.2 222.94"/><line class="cls-1" x1="1302.56" y1="453.74" x2="1463.75" y2="453.74"/><polygon class="cls-2" points="1306.2 466.21 1284.62 453.75 1306.2 441.28 1306.2 466.21"/><polygon class="cls-2" points="1266.08 477.7 1263.12 472.26 1266.08 466.82 1263.12 461.4 1266.08 455.97 1263.12 450.55 1266.08 445.13 1263.12 439.72 1266.08 434.3 1256.83 434.3 1256.83 477.7 1266.08 477.7"/><path class="cls-3" d="M732.09,405.14V990.53a34,34,0,0,0,33.78,34.14h457.18a34,34,0,0,0,33.78-34.14V397.31c0-36.16-29-65.47-64.78-65.47H877.56"/><path class="cls-3" d="M875.41,343c1.6,0,2.9-.82,2.9-2.17v-5.73c0-4.52-3.94-8.18-8.8-8.18H769.72c-4.86,0-8.8,3.66-8.8,8.18v11.25c0,1.77,2.36,2.83,4.23,2A61.17,61.17,0,0,1,789.67,343Z"/><path class="cls-3" d="M788.4,343h381a62.52,62.52,0,0,1,62.52,62.52V806.38a34.82,34.82,0,0,1-34.82,34.82H766.91a34.82,34.82,0,0,1-34.82-34.82v-407A56.32,56.32,0,0,1,788.4,343Z"/><rect class="cls-2" x="822.1" y="423.98" width="366.43" height="34.86" rx="9.2"/><rect class="cls-2" x="822.1" y="480.61" width="366.43" height="34.86" rx="9.2"/><rect class="cls-2" x="822.1" y="537.25" width="366.43" height="34.86" rx="9.2"/><rect class="cls-2" x="822.1" y="593.89" width="366.43" height="34.86" rx="9.2"/><rect class="cls-2" x="822.1" y="650.52" width="366.43" height="34.86" rx="9.2"/><rect class="cls-2" x="822.1" y="707.16" width="366.43" height="34.86" rx="9.2"/><path class="cls-3" d="M760.92,209h0a58.43,58.43,0,0,1,58.43-58.43H775a48.81,48.81,0,0,0-48.81,48.81v29.34A48.81,48.81,0,0,0,775,277.54h418.25a38.44,38.44,0,0,0,26-10.09H819.35A58.43,58.43,0,0,1,760.92,209Z"/><path class="cls-3" d="M819.35,150.58h424a13.47,13.47,0,0,1,13.47,13.47V254a13.47,13.47,0,0,1-13.47,13.47h-424A58.43,58.43,0,0,1,760.92,209v0a58.43,58.43,0,0,1,58.43-58.43Z"/><circle class="cls-3" cx="819.2" cy="209.01" r="58.28"/><rect class="cls-3" x="807.6" y="163.25" width="23.19" height="8.89" rx="2.34" transform="translate(986.89 -651.51) rotate(90)"/><rect class="cls-3" x="807.6" y="245" width="23.19" height="8.89" rx="2.34" transform="translate(1068.64 -569.75) rotate(90)"/><rect class="cls-3" x="848.48" y="204.12" width="23.19" height="8.89" rx="2.34" transform="translate(1720.15 417.14) rotate(180)"/><rect class="cls-4" x="914.2" y="201.74" width="61.26" height="23.48" rx="11.74" transform="translate(1889.67 426.96) rotate(180)"/><rect class="cls-3" x="766.73" y="204.12" width="23.19" height="8.89" rx="2.34" transform="translate(1556.64 417.14) rotate(180)"/><rect class="cls-3" x="836.51" y="233.03" width="23.19" height="8.89" rx="2.34" transform="translate(1279.88 1005.09) rotate(-135)"/><rect class="cls-3" x="778.7" y="175.22" width="23.19" height="8.89" rx="2.34" transform="translate(1222.07 865.53) rotate(-135)"/><rect class="cls-3" x="778.7" y="233.03" width="23.19" height="8.89" rx="2.34" transform="translate(63.55 628.38) rotate(-45)"/><rect class="cls-3" x="836.51" y="175.22" width="23.19" height="8.89" rx="2.34" transform="translate(121.36 652.32) rotate(-45)"/><path class="cls-5" d="M1211.28,186h43.08a2.48,2.48,0,0,1,2.48,2.48v51a2.48,2.48,0,0,1-2.48,2.48h-43.08a10.36,10.36,0,0,1-10.36-10.36V196.34A10.36,10.36,0,0,1,1211.28,186Z"/><polyline class="cls-3" points="1256.83 175.83 895.38 175.83 895.38 251.13 1256.83 251.13"/><rect class="cls-3" x="868.87" y="135.15" width="275.12" height="15.43"/><text class="cls-6" transform="translate(454.27 221.16)">B</text><text class="cls-6" transform="translate(454.27 123.56)">A</text><text class="cls-6" transform="translate(1489.15 221.16)">C</text><text class="cls-6" transform="translate(1489.15 463.5)">D</text></g></svg>