<svg xmlns="http://www.w3.org/2000/svg" viewBox="0 0 1920 1080"><defs><style>.cls-1{font-size:60px;font-family:NeueMontreal-Medium, Neue Montreal;font-weight:500;}.cls-1,.cls-3,.cls-5{fill:#77aa89;}.cls-2,.cls-4{fill:none;}.cls-2,.cls-4,.cls-5{stroke:#77aa89;stroke-miterlimit:10;}.cls-2{stroke-width:5px;}.cls-4,.cls-5{stroke-width:2px;}.cls-6{font-size:79px;fill:#1a1a1a;font-family:monogram;}</style></defs><g id="Livello_2" data-name="Livello 2"><text class="cls-1" transform="translate(535.71 310.72)">B</text><line class="cls-2" x1="772.41" y1="301.37" x2="602.79" y2="301.37"/><polygon class="cls-3" points="768.77 288.9 790.35 301.37 768.77 313.83 768.77 288.9"/><text class="cls-1" transform="translate(1371.53 310.72)">C</text><line class="cls-2" x1="1177.64" y1="301.37" x2="1347.26" y2="301.37"/><polygon class="cls-3" points="1181.29 313.83 1159.7 301.37 1181.29 288.9 1181.29 313.83"/><text class="cls-1" transform="translate(1371.53 406)">D</text><line class="cls-2" x1="1257.04" y1="397" x2="1347.26" y2="397"/><polygon class="cls-3" points="1260.69 409.47 1239.1 397 1260.69 384.54 1260.69 409.47"/><text class="cls-1" transform="translate(535.71 171.94)">A</text><line class="cls-2" x1="693.01" y1="162.94" x2="602.79" y2="162.94"/><polygon class="cls-3" points="689.36 150.48 710.95 162.94 689.36 175.41 689.36 150.48"/><rect class="cls-4" x="736.66" y="259.72" width="470.59" height="712.28" rx="28.1"/><rect class="cls-4" x="806.32" y="283.89" width="330.79" height="49.29"/><path class="cls-4" d="M806.32,333.17v18.29a17.73,17.73,0,0,0,17.74,17.73h295.32a17.73,17.73,0,0,0,17.73-17.73V333.17Z"/><line class="cls-4" x1="806.32" y1="343.13" x2="1137.11" y2="343.13"/><line class="cls-4" x1="1136.61" y1="353.88" x2="806.82" y2="353.88"/><line class="cls-4" x1="1132.37" y1="363.19" x2="811.62" y2="363.19"/><line class="cls-4" x1="884.52" y1="283.89" x2="884.52" y2="333.17"/><line class="cls-4" x1="1057.49" y1="283.89" x2="1057.49" y2="333.17"/><rect class="cls-4" x="1073.13" y="302.37" width="50.23" height="15.64" rx="7.82"/><rect class="cls-5" x="921.33" y="283.89" width="11.69" height="49.29"/><rect class="cls-5" x="939.33" y="283.89" width="11.69" height="49.29"/><rect class="cls-5" x="957.34" y="283.89" width="11.69" height="49.29"/><path class="cls-4" d="M1207.25,300.47h3.08a5.77,5.77,0,0,1,5.76,5.77v51.18a5.76,5.76,0,0,1-5.76,5.77h-3.08Z"/><polygon class="cls-3" points="1217.78 410.89 1214.41 407.15 1217.78 403.42 1214.41 399.68 1217.78 395.95 1214.41 392.22 1217.78 388.49 1214.41 384.77 1217.78 381.04 1207.25 381.04 1207.25 410.89 1217.78 410.89"/><path class="cls-4" d="M1207.25,452.6h1.31a9.21,9.21,0,0,1,9.22,9.21V913a9.22,9.22,0,0,1-9.22,9.22h-1.31Z"/><path class="cls-4" d="M736.66,922.24h-1.31a9.22,9.22,0,0,1-9.22-9.22V461.81a9.21,9.21,0,0,1,9.22-9.21h1.31Z"/><path class="cls-3" d="M857.31,309.13l-9.73-9.78v29h-5.65v-29l-9.68,9.72-3.86-3.8,16.39-16.39,16.39,16.39Z"/><rect class="cls-5" x="765.87" y="133.41" width="415.58" height="57.84" rx="5.94"/><text class="cls-6" transform="translate(798.2 179.71)">888-8888-888</text><rect class="cls-4" x="865.46" y="101.31" width="215.45" height="15.43"/><path class="cls-4" d="M1206.36,198.39c0,6.42-15.33,20.54-29.73,20.54H771.41c-16.23,0-32.77-11.79-32.77-18.22"/><path class="cls-4" d="M1207.25,136.16h4.66a4.18,4.18,0,0,1,4.18,4.18v43a4.18,4.18,0,0,1-4.18,4.18h-4.66a0,0,0,0,1,0,0v-51.4A0,0,0,0,1,1207.25,136.16Z"/><path class="cls-4" d="M736.66,193.38v-62.1a14.51,14.51,0,0,1,5-11,19.47,19.47,0,0,0-15.55,19V184.9a19.45,19.45,0,0,0,15,18.91A14.49,14.49,0,0,1,736.66,193.38Z"/><path class="cls-4" d="M1203,121a14.49,14.49,0,0,1,4.3,10.32v62.1a14.47,14.47,0,0,1-3.73,9.7,19.43,19.43,0,0,0,12.57-18.18V139.35A19.45,19.45,0,0,0,1203,121Z"/><rect class="cls-4" x="736.66" y="116.73" width="470.59" height="91.2" rx="14.55"/></g></svg>