<svg xmlns="http://www.w3.org/2000/svg" viewBox="0 0 1920 1080"><defs><style>.cls-1,.cls-4{fill:#77aa89;}.cls-2,.cls-3{fill:none;}.cls-2,.cls-3,.cls-4{stroke:#77aa89;stroke-miterlimit:10;}.cls-2{stroke-width:5px;}.cls-3,.cls-4{stroke-width:2px;}.cls-5{fill:#1a1a1a;}</style></defs><g id="Livello_2" data-name="Livello 2"><path class="cls-1" d="M540.57,310.72V271h17.82a14.49,14.49,0,0,1,7.41,1.62,9.77,9.77,0,0,1,3.93,4.05,10.83,10.83,0,0,1,1.2,4.83,9.41,9.41,0,0,1-1.62,5.91,10,10,0,0,1-3.72,3,13.18,13.18,0,0,1,3.39,1.71,9.45,9.45,0,0,1,2.85,3.15,9.87,9.87,0,0,1,1.14,5,9.54,9.54,0,0,1-3.39,7.44q-3.39,3-10.17,3Zm4.5-22h13.32a10.64,10.64,0,0,0,3.93-.72,6.67,6.67,0,0,0,3-2.25,6.4,6.4,0,0,0,1.14-3.93,7,7,0,0,0-.75-3.18,5.9,5.9,0,0,0-2.4-2.46,8.74,8.74,0,0,0-4.41-1h-13.8Zm0,17.7h14.82a10.27,10.27,0,0,0,6.33-1.71,5.71,5.71,0,0,0,2.25-4.83,6.74,6.74,0,0,0-2.16-4.95q-2.16-2.13-6.9-2.13H545.07Z"/><line class="cls-2" x1="772.41" y1="301.37" x2="602.79" y2="301.37"/><polygon class="cls-1" points="768.77 288.9 790.35 301.37 768.77 313.83 768.77 288.9"/><path class="cls-1" d="M1393.07,311.2a18.8,18.8,0,0,1-10.26-2.73,18.1,18.1,0,0,1-6.63-7.35,23.94,23.94,0,0,1,0-20.52,18.1,18.1,0,0,1,6.63-7.35,18.8,18.8,0,0,1,10.26-2.73,19.85,19.85,0,0,1,8.1,1.59,17.91,17.91,0,0,1,9.9,10.77h-4.74a12.55,12.55,0,0,0-4.74-5.82,14.41,14.41,0,0,0-8.16-2.16,15.09,15.09,0,0,0-8.19,2.13,13.66,13.66,0,0,0-5.13,5.73,19.65,19.65,0,0,0,0,16.17,13.62,13.62,0,0,0,5.13,5.76,15.09,15.09,0,0,0,8.19,2.13,14.41,14.41,0,0,0,8.16-2.16,12.55,12.55,0,0,0,4.74-5.82h4.74a18.6,18.6,0,0,1-3.78,6.39,17.85,17.85,0,0,1-6.12,4.38A19.85,19.85,0,0,1,1393.07,311.2Z"/><line class="cls-2" x1="1177.64" y1="301.37" x2="1347.26" y2="301.37"/><polygon class="cls-1" points="1181.29 313.83 1159.7 301.37 1181.29 288.9 1181.29 313.83"/><path class="cls-1" d="M1376.39,406V366.28h16.74a17.79,17.79,0,0,1,12.66,5.28,18.77,18.77,0,0,1,4.08,6.24,23.94,23.94,0,0,1,0,16.68,18.77,18.77,0,0,1-4.08,6.24,17.79,17.79,0,0,1-12.66,5.28Zm4.5-4.26H1393a12.64,12.64,0,0,0,7.38-2.16,14.43,14.43,0,0,0,4.83-5.7,18.51,18.51,0,0,0,0-15.54,14.2,14.2,0,0,0-4.83-5.67,12.77,12.77,0,0,0-7.38-2.13h-12.06Z"/><line class="cls-2" x1="1257.04" y1="397" x2="1347.26" y2="397"/><polygon class="cls-1" points="1260.69 409.47 1239.1 397 1260.69 384.54 1260.69 409.47"/><path class="cls-1" d="M535.89,171.94l16.86-39.71h5.64l16.86,39.71h-5l-4.86-11.51H545.73l-4.86,11.51Zm11.58-15.66h16.2l-8.1-19.38Z"/><line class="cls-2" x1="693.01" y1="162.94" x2="602.79" y2="162.94"/><polygon class="cls-1" points="689.36 150.48 710.95 162.94 689.36 175.41 689.36 150.48"/><rect class="cls-3" x="736.66" y="259.72" width="470.59" height="712.28" rx="28.1"/><rect class="cls-3" x="806.32" y="283.89" width="330.79" height="49.29"/><path class="cls-3" d="M806.32,333.17v18.29a17.73,17.73,0,0,0,17.74,17.73h295.32a17.73,17.73,0,0,0,17.73-17.73V333.17Z"/><line class="cls-3" x1="806.32" y1="343.13" x2="1137.11" y2="343.13"/><line class="cls-3" x1="1136.61" y1="353.88" x2="806.82" y2="353.88"/><line class="cls-3" x1="1132.37" y1="363.19" x2="811.62" y2="363.19"/><line class="cls-3" x1="884.52" y1="283.89" x2="884.52" y2="333.17"/><line class="cls-3" x1="1057.49" y1="283.89" x2="1057.49" y2="333.17"/><rect class="cls-3" x="1073.13" y="302.37" width="50.23" height="15.64" rx="7.82"/><rect class="cls-4" x="921.33" y="283.89" width="11.69" height="49.29"/><rect class="cls-4" x="939.33" y="283.89" width="11.69" height="49.29"/><rect class="cls-4" x="957.34" y="283.89" width="11.69" height="49.29"/><path class="cls-3" d="M1207.25,300.47h3.08a5.77,5.77,0,0,1,5.76,5.77v51.18a5.76,5.76,0,0,1-5.76,5.77h-3.08Z"/><polygon class="cls-1" points="1217.78 410.89 1214.41 407.15 1217.78 403.42 1214.41 399.68 1217.78 395.95 1214.41 392.22 1217.78 388.49 1214.41 384.77 1217.78 381.04 1207.25 381.04 1207.25 410.89 1217.78 410.89"/><path class="cls-3" d="M1207.25,452.6h1.31a9.21,9.21,0,0,1,9.22,9.21V913a9.22,9.22,0,0,1-9.22,9.22h-1.31Z"/><path class="cls-3" d="M736.66,922.24h-1.31a9.22,9.22,0,0,1-9.22-9.22V461.81a9.21,9.21,0,0,1,9.22-9.21h1.31Z"/><path class="cls-1" d="M857.31,309.13l-9.73-9.78v29h-5.65v-29l-9.68,9.72-3.86-3.8,16.39-16.39,16.39,16.39Z"/><rect class="cls-4" x="765.87" y="133.41" width="415.58" height="57.84" rx="5.94"/><path class="cls-5" d="M803.13,160H798.2v-9.88h4.93V160Zm0,14.81H798.2V164.9h4.93v9.87ZM818,150.08H803.13v-4.93H818Zm0,14.82H803.13V160H818ZM813,174.77H818v4.94H803.13v-4.94H813ZM818,160v-9.88h4.93V160Zm0,14.81V164.9h4.93v9.87Z"/><path class="cls-5" d="M832.76,160h-4.94v-9.88h4.94V160Zm0,14.81h-4.94V164.9h4.94v9.87Zm14.81-24.69H832.76v-4.93h14.81Zm0,14.82H832.76V160h14.81Zm-4.94,9.87h4.94v4.94H832.76v-4.94h9.87ZM847.57,160v-9.88h4.94V160Zm0,14.81V164.9h4.94v9.87Z"/><path class="cls-5" d="M862.38,160h-4.93v-9.88h4.93V160Zm0,14.81h-4.93V164.9h4.93v9.87Zm14.82-24.69H862.38v-4.93H877.2Zm0,14.82H862.38V160H877.2Zm-4.94,9.87h4.94v4.94H862.38v-4.94h9.88ZM877.2,160v-9.88h4.93V160Zm0,14.81V164.9h4.93v9.87Z"/><path class="cls-5" d="M906.82,160h4.94v4.94H887.07V160h19.75Z"/><path class="cls-5" d="M921.63,160H916.7v-9.88h4.93V160Zm0,14.81H916.7V164.9h4.93v9.87Zm14.82-24.69H921.63v-4.93h14.82Zm0,14.82H921.63V160h14.82Zm-4.94,9.87h4.94v4.94H921.63v-4.94h9.88ZM936.45,160v-9.88h4.93V160Zm0,14.81V164.9h4.93v9.87Z"/><path class="cls-5" d="M951.26,160h-4.94v-9.88h4.94V160Zm0,14.81h-4.94V164.9h4.94v9.87Zm14.81-24.69H951.26v-4.93h14.81Zm0,14.82H951.26V160h14.81Zm-4.94,9.87h4.94v4.94H951.26v-4.94h9.87ZM966.07,160v-9.88H971V160Zm0,14.81V164.9H971v9.87Z"/><path class="cls-5" d="M980.88,160H976v-9.88h4.93V160Zm0,14.81H976V164.9h4.93v9.87Zm14.82-24.69H980.88v-4.93H995.7Zm0,14.82H980.88V160H995.7Zm-4.94,9.87h4.94v4.94H980.88v-4.94h9.88ZM995.7,160v-9.88h4.93V160Zm0,14.81V164.9h4.93v9.87Z"/><path class="cls-5" d="M1010.51,160h-4.94v-9.88h4.94V160Zm0,14.81h-4.94V164.9h4.94v9.87Zm14.81-24.69h-14.81v-4.93h14.81Zm0,14.82h-14.81V160h14.81Zm-4.94,9.87h4.94v4.94h-14.81v-4.94h9.87Zm4.94-14.81v-9.88h4.94V160Zm0,14.81V164.9h4.94v9.87Z"/><path class="cls-5" d="M1055,160h4.93v4.94H1035.2V160H1055Z"/><path class="cls-5" d="M1069.76,160h-4.94v-9.88h4.94V160Zm0,14.81h-4.94V164.9h4.94v9.87Zm14.81-24.69h-14.81v-4.93h14.81Zm0,14.82h-14.81V160h14.81Zm-4.94,9.87h4.94v4.94h-14.81v-4.94h9.87Zm4.94-14.81v-9.88h4.94V160Zm0,14.81V164.9h4.94v9.87Z"/><path class="cls-5" d="M1099.38,160h-4.93v-9.88h4.93V160Zm0,14.81h-4.93V164.9h4.93v9.87Zm14.82-24.69h-14.82v-4.93h14.82Zm0,14.82h-14.82V160h14.82Zm-4.94,9.87h4.94v4.94h-14.82v-4.94h9.88ZM1114.2,160v-9.88h4.93V160Zm0,14.81V164.9h4.93v9.87Z"/><path class="cls-5" d="M1129,160h-4.94v-9.88H1129V160Zm0,14.81h-4.94V164.9H1129v9.87Zm14.81-24.69H1129v-4.93h14.81Zm0,14.82H1129V160h14.81Zm-4.94,9.87h4.94v4.94H1129v-4.94h9.87Zm4.94-14.81v-9.88h4.94V160Zm0,14.81V164.9h4.94v9.87Z"/><rect class="cls-3" x="865.46" y="101.31" width="215.45" height="15.43"/><path class="cls-3" d="M1206.36,198.39c0,6.42-15.33,20.54-29.73,20.54H771.41c-16.23,0-32.77-11.79-32.77-18.22"/><path class="cls-3" d="M1207.25,136.16h4.66a4.18,4.18,0,0,1,4.18,4.18v43a4.18,4.18,0,0,1-4.18,4.18h-4.66a0,0,0,0,1,0,0v-51.4A0,0,0,0,1,1207.25,136.16Z"/><path class="cls-3" d="M736.66,193.38v-62.1a14.51,14.51,0,0,1,5-11,19.47,19.47,0,0,0-15.55,19V184.9a19.45,19.45,0,0,0,15,18.91A14.49,14.49,0,0,1,736.66,193.38Z"/><path class="cls-3" d="M1203,121a14.49,14.49,0,0,1,4.3,10.32v62.1a14.47,14.47,0,0,1-3.73,9.7,19.43,19.43,0,0,0,12.57-18.18V139.35A19.45,19.45,0,0,0,1203,121Z"/><rect class="cls-3" x="736.66" y="116.73" width="470.59" height="91.2" rx="14.55"/></g></svg>