<svg xmlns="http://www.w3.org/2000/svg" viewBox="0 0 1920 1080"><defs><style>.cls-1,.cls-3,.cls-6{fill:none;}.cls-1,.cls-2,.cls-3,.cls-4,.cls-6{stroke:#77aa89;stroke-miterlimit:10;}.cls-1,.cls-2,.cls-4{stroke-width:2px;}.cls-2,.cls-4,.cls-5,.cls-7{fill:#77aa89;}.cls-3{stroke-width:3px;}.cls-4{opacity:0.7;}.cls-5{font-size:60px;font-family:NeueMontreal-Medium, Neue Montreal;font-weight:500;}.cls-6{stroke-width:5px;}.cls-8{font-size:79px;fill:#1a1a1a;font-family:monogram;}.cls-10,.cls-9{font-family:MyriadPro-Regular, Myriad Pro;}.cls-10{letter-spacing:0em;}</style></defs><g id="Livello_2" data-name="Livello 2"><rect class="cls-1" x="658.92" y="250.08" width="698.97" height="499.93" rx="38.55"/><rect class="cls-2" x="706.94" y="357.77" width="585.73" height="157.25" rx="7.34"/><line class="cls-3" x1="658.92" y1="301.53" x2="1357.89" y2="301.53"/><path class="cls-1" d="M674.32,301.53h672.42a0,0,0,0,1,0,0V539.76a7,7,0,0,1-7,7H681.28a7,7,0,0,1-7-7V301.53A0,0,0,0,1,674.32,301.53Z"/><path class="cls-1" d="M660.77,571.22H796.85a18.4,18.4,0,0,1,18.4,18.4v23.75"/><path class="cls-1" d="M1357.89,571.22H868a18.4,18.4,0,0,0-18.4,18.4v23.75"/><path class="cls-1" d="M711.34,571.22v33a9.17,9.17,0,0,0,9.18,9.17H944.28a9.17,9.17,0,0,0,9.18-9.17v-33"/><rect class="cls-2" x="738.01" y="587.23" width="52.4" height="13.72" rx="6.86"/><rect class="cls-1" x="878.96" y="587.23" width="52.4" height="13.72" rx="6.86"/><path class="cls-1" d="M1089.23,597.36H1262A54.63,54.63,0,0,1,1316.66,652v1.53A54.63,54.63,0,0,1,1262,708.14H1087.7a54.63,54.63,0,0,1-54.63-54.63v0a56.15,56.15,0,0,1,56.15-56.15Z"/><path class="cls-1" d="M1125.54,652.69c0-23.69-11.86-44.35-29.44-55.33h-6.31a56.71,56.71,0,0,0-56.71,56.72h0a54.06,54.06,0,0,0,54.06,54.06h8.76C1113.59,697.19,1125.54,676.47,1125.54,652.69Z"/><path class="cls-1" d="M1316.66,654.08v-2.66a54.06,54.06,0,0,0-54.06-54.06h-14.48c-17.58,11-29.44,31.64-29.44,55.33s11.94,44.5,29.63,55.45h14.29A54.06,54.06,0,0,0,1316.66,654.08Z"/><path class="cls-1" d="M1134.1,639.84h76.17c3-17.2,11.47-32.17,23.26-42.48H1110.84C1122.63,607.67,1131.08,622.64,1134.1,639.84Z"/><path class="cls-1" d="M1134.64,664.34c-2.27,17.47-10.11,32.88-21.41,43.8h117.91c-11.31-10.92-19.14-26.33-21.41-43.8Z"/><polygon class="cls-2" points="1172.11 609.59 1160.3 630.04 1183.92 630.04 1172.11 609.59"/><polygon class="cls-2" points="1070.27 652.75 1090.72 664.56 1090.72 640.94 1070.27 652.75"/><polygon class="cls-2" points="1274.04 652.75 1253.59 640.94 1253.59 664.56 1274.04 652.75"/><polygon class="cls-2" points="1172.11 696.47 1183.92 676.02 1160.3 676.02 1172.11 696.47"/><path class="cls-1" d="M1357.89,428.6h7.37a4.12,4.12,0,0,0,4.13-4.12V316.58a4.13,4.13,0,0,0-4.13-4.13h-7.37Z"/><rect class="cls-2" x="1357.89" y="330.58" width="11.5" height="81.58"/><path class="cls-1" d="M1357.89,539.53h5.72a6.12,6.12,0,0,1,6.11,6.11v67.73h-11.83Z"/><rect class="cls-4" x="1357.89" y="549.33" width="11.83" height="48.03"/><rect class="cls-1" x="1357.89" y="619.91" width="11.83" height="6.53"/><rect class="cls-1" x="1357.89" y="632.98" width="11.83" height="6.53"/><path class="cls-1" d="M1357.89,658.46h3.53a8.3,8.3,0,0,0,8.3-8.29v-5.43h-11.83Z"/><text class="cls-5" transform="translate(1510.79 596.6)">E</text><line class="cls-6" x1="1407.99" y1="587.23" x2="1486.11" y2="587.23"/><polygon class="cls-7" points="1411.64 599.7 1390.05 587.24 1411.64 574.77 1411.64 599.7"/><text class="cls-5" transform="translate(461.64 596.6)">B</text><text class="cls-5" transform="translate(461.64 714.1)">C</text><line class="cls-6" x1="611.1" y1="587.25" x2="532.98" y2="587.25"/><polygon class="cls-7" points="607.45 574.79 629.04 587.25 607.45 599.72 607.45 574.79"/><text class="cls-5" transform="translate(461.64 396.21)">A</text><line class="cls-6" x1="611.1" y1="386.86" x2="532.98" y2="386.86"/><polygon class="cls-7" points="607.45 374.4 629.04 386.86 607.45 399.33 607.45 374.4"/><polyline class="cls-6" points="905.16 654.19 905.16 708.14 532.98 708.14"/><polygon class="cls-7" points="892.7 657.83 905.16 636.25 917.63 657.83 892.7 657.83"/><text class="cls-5" transform="translate(1510.79 396.71)">D</text><text class="cls-5" transform="translate(1510.79 834.61)">F</text><line class="cls-6" x1="1407.99" y1="387.71" x2="1486.11" y2="387.71"/><polygon class="cls-7" points="1411.64 400.17 1390.05 387.71 1411.64 375.24 1411.64 400.17"/><polyline class="cls-6" points="1174.87 785.7 1174.87 826.89 1486.11 826.89"/><polygon class="cls-7" points="1162.4 789.35 1174.87 767.76 1187.33 789.35 1162.4 789.35"/><text class="cls-8" transform="translate(804.08 420.41)">888<tspan class="cls-9" x="88.88" y="0">-</tspan><tspan x="113.13" y="0">8888</tspan><tspan class="cls-10" x="231.63" y="0">-</tspan><tspan x="255.88" y="0">888</tspan></text></g></svg>