<svg xmlns="http://www.w3.org/2000/svg" viewBox="0 0 1920 1080"><defs><style>.cls-1,.cls-3,.cls-6{fill:none;}.cls-1,.cls-2,.cls-3,.cls-4,.cls-6{stroke:#77aa89;stroke-miterlimit:10;}.cls-1,.cls-2,.cls-4{stroke-width:2px;}.cls-2,.cls-4,.cls-5,.cls-7{fill:#77aa89;}.cls-3{stroke-width:3px;}.cls-4{opacity:0.7;}.cls-6{stroke-width:5px;}.cls-7{font-size:60px;font-family:Questrial-Regular, Questrial;}.cls-8{fill:#1a1a1a;}</style></defs><g id="Livello_2" data-name="Livello 2"><rect class="cls-1" x="658.92" y="250.08" width="698.97" height="499.93" rx="38.55"/><rect class="cls-2" x="706.94" y="357.77" width="585.73" height="157.25" rx="7.34"/><line class="cls-3" x1="658.92" y1="301.53" x2="1357.89" y2="301.53"/><path class="cls-1" d="M674.32,301.53h672.42a0,0,0,0,1,0,0V539.76a7,7,0,0,1-7,7H681.28a7,7,0,0,1-7-7V301.53A0,0,0,0,1,674.32,301.53Z"/><path class="cls-1" d="M660.77,571.22H796.85a18.4,18.4,0,0,1,18.4,18.4v23.75"/><path class="cls-1" d="M1357.89,571.22H868a18.4,18.4,0,0,0-18.4,18.4v23.75"/><path class="cls-1" d="M711.34,571.22v33a9.17,9.17,0,0,0,9.18,9.17H944.28a9.17,9.17,0,0,0,9.18-9.17v-33"/><rect class="cls-2" x="738.01" y="587.23" width="52.4" height="13.72" rx="6.86"/><rect class="cls-1" x="878.96" y="587.23" width="52.4" height="13.72" rx="6.86"/><path class="cls-1" d="M1089.23,597.36H1262A54.63,54.63,0,0,1,1316.66,652v1.53A54.63,54.63,0,0,1,1262,708.14H1087.7a54.63,54.63,0,0,1-54.63-54.63v0a56.15,56.15,0,0,1,56.15-56.15Z"/><path class="cls-1" d="M1125.54,652.69c0-23.69-11.86-44.35-29.44-55.33h-6.31a56.71,56.71,0,0,0-56.71,56.72h0a54.06,54.06,0,0,0,54.06,54.06h8.76C1113.59,697.19,1125.54,676.47,1125.54,652.69Z"/><path class="cls-1" d="M1316.66,654.08v-2.66a54.06,54.06,0,0,0-54.06-54.06h-14.48c-17.58,11-29.44,31.64-29.44,55.33s11.94,44.5,29.63,55.45h14.29A54.06,54.06,0,0,0,1316.66,654.08Z"/><path class="cls-1" d="M1134.1,639.84h76.17c3-17.2,11.47-32.17,23.26-42.48H1110.84C1122.63,607.67,1131.08,622.64,1134.1,639.84Z"/><path class="cls-1" d="M1134.64,664.34c-2.27,17.47-10.11,32.88-21.41,43.8h117.91c-11.31-10.92-19.14-26.33-21.41-43.8Z"/><polygon class="cls-2" points="1172.11 609.59 1160.3 630.04 1183.92 630.04 1172.11 609.59"/><polygon class="cls-2" points="1070.27 652.75 1090.72 664.56 1090.72 640.94 1070.27 652.75"/><polygon class="cls-2" points="1274.04 652.75 1253.59 640.94 1253.59 664.56 1274.04 652.75"/><polygon class="cls-2" points="1172.11 696.47 1183.92 676.02 1160.3 676.02 1172.11 696.47"/><path class="cls-1" d="M1357.89,428.6h7.37a4.12,4.12,0,0,0,4.13-4.12V316.58a4.13,4.13,0,0,0-4.13-4.13h-7.37Z"/><rect class="cls-2" x="1357.89" y="330.58" width="11.5" height="81.58"/><path class="cls-1" d="M1357.89,539.53h5.72a6.12,6.12,0,0,1,6.11,6.11v67.73h-11.83Z"/><rect class="cls-4" x="1357.89" y="549.33" width="11.83" height="48.03"/><rect class="cls-1" x="1357.89" y="619.91" width="11.83" height="6.53"/><rect class="cls-1" x="1357.89" y="632.98" width="11.83" height="6.53"/><path class="cls-1" d="M1357.89,658.46h3.53a8.3,8.3,0,0,0,8.3-8.29v-5.43h-11.83Z"/><path class="cls-5" d="M1515.65,596.6V556.88h29.22v4.32h-24.72v13.32h22.08v4.38h-22.08v13.38h24.72v4.32Z"/><line class="cls-6" x1="1407.99" y1="587.23" x2="1486.11" y2="587.23"/><polygon class="cls-5" points="1411.64 599.7 1390.05 587.24 1411.64 574.77 1411.64 599.7"/><path class="cls-5" d="M466.5,596.6V556.88h17.82a14.49,14.49,0,0,1,7.41,1.62,9.77,9.77,0,0,1,3.93,4,10.83,10.83,0,0,1,1.2,4.83,9.41,9.41,0,0,1-1.62,5.91,10,10,0,0,1-3.72,3,13.18,13.18,0,0,1,3.39,1.71,9.45,9.45,0,0,1,2.85,3.15,9.87,9.87,0,0,1,1.14,5,9.54,9.54,0,0,1-3.39,7.44q-3.39,3-10.17,3Zm4.5-22h13.32a10.64,10.64,0,0,0,3.93-.72,6.67,6.67,0,0,0,3-2.25,6.4,6.4,0,0,0,1.14-3.93,7,7,0,0,0-.75-3.18,5.9,5.9,0,0,0-2.4-2.46,8.74,8.74,0,0,0-4.41-1H471Zm0,17.7h14.82a10.27,10.27,0,0,0,6.33-1.71,5.71,5.71,0,0,0,2.25-4.83,6.74,6.74,0,0,0-2.16-4.95q-2.16-2.13-6.9-2.13H471Z"/><path class="cls-5" d="M483.18,714.58a18.8,18.8,0,0,1-10.26-2.73,18,18,0,0,1-6.63-7.35,23.94,23.94,0,0,1,0-20.52,18.23,18.23,0,0,1,6.63-7.35,18.8,18.8,0,0,1,10.26-2.73,20,20,0,0,1,8.1,1.59,18,18,0,0,1,6.12,4.35,18.27,18.27,0,0,1,3.78,6.42h-4.74a12.6,12.6,0,0,0-4.74-5.82,14.41,14.41,0,0,0-8.16-2.16,15.17,15.17,0,0,0-8.19,2.13,13.66,13.66,0,0,0-5.13,5.73,19.65,19.65,0,0,0,0,16.17,13.5,13.5,0,0,0,5.13,5.76,15,15,0,0,0,8.19,2.13A14.41,14.41,0,0,0,491.7,708a12.5,12.5,0,0,0,4.74-5.82h4.74a18.6,18.6,0,0,1-3.78,6.39,17.72,17.72,0,0,1-6.12,4.38A19.85,19.85,0,0,1,483.18,714.58Z"/><line class="cls-6" x1="611.1" y1="587.25" x2="532.98" y2="587.25"/><polygon class="cls-5" points="607.45 574.79 629.04 587.25 607.45 599.72 607.45 574.79"/><path class="cls-5" d="M461.82,396.21l16.86-39.72h5.64l16.86,39.72h-5l-4.86-11.52H471.66l-4.86,11.52Zm11.58-15.66h16.2l-8.1-19.38Z"/><line class="cls-6" x1="611.1" y1="386.86" x2="532.98" y2="386.86"/><polygon class="cls-5" points="607.45 374.4 629.04 386.86 607.45 399.33 607.45 374.4"/><polyline class="cls-6" points="905.16 654.19 905.16 708.14 532.98 708.14"/><polygon class="cls-5" points="892.7 657.83 905.16 636.25 917.63 657.83 892.7 657.83"/><text class="cls-7" transform="translate(1510.79 396.71)">D</text><path class="cls-5" d="M1515.65,834.61V794.89h28.68v4.32h-24.18V813h21.54v4.38h-21.54v17.22Z"/><line class="cls-6" x1="1407.99" y1="387.71" x2="1486.11" y2="387.71"/><polygon class="cls-5" points="1411.64 400.17 1390.05 387.71 1411.64 375.24 1411.64 400.17"/><polyline class="cls-6" points="1174.87 785.7 1174.87 826.89 1486.11 826.89"/><polygon class="cls-5" points="1162.4 789.35 1174.87 767.76 1187.33 789.35 1162.4 789.35"/><path class="cls-8" d="M745.2,393.9h-4.94V384h4.94v9.88Zm0,14.81h-4.94v-9.87h4.94v9.87ZM760,384H745.2v-4.93H760Zm0,14.82H745.2V393.9H760Zm-4.93,9.87H760v4.94H745.2v-4.94h9.88ZM760,393.9V384H765v9.88Zm0,14.81v-9.87H765v9.87Z"/><path class="cls-8" d="M774.83,393.9h-4.94V384h4.94v9.88Zm0,14.81h-4.94v-9.87h4.94v9.87ZM789.64,384H774.83v-4.93h14.81Zm0,14.82H774.83V393.9h14.81Zm-4.94,9.87h4.94v4.94H774.83v-4.94h9.87Zm4.94-14.81V384h4.94v9.88Zm0,14.81v-9.87h4.94v9.87Z"/><path class="cls-8" d="M804.45,393.9h-4.94V384h4.94v9.88Zm0,14.81h-4.94v-9.87h4.94v9.87ZM819.26,384H804.45v-4.93h14.81Zm0,14.82H804.45V393.9h14.81Zm-4.93,9.87h4.93v4.94H804.45v-4.94h9.88Zm4.93-14.81V384h4.94v9.88Zm0,14.81v-9.87h4.94v9.87Z"/><path class="cls-8" d="M848.89,393.9h4.94v4.94H829.14V393.9h19.75Z"/><path class="cls-8" d="M863.7,393.9h-4.94V384h4.94v9.88Zm0,14.81h-4.94v-9.87h4.94v9.87ZM878.51,384H863.7v-4.93h14.81Zm0,14.82H863.7V393.9h14.81Zm-4.93,9.87h4.93v4.94H863.7v-4.94h9.88Zm4.93-14.81V384h4.94v9.88Zm0,14.81v-9.87h4.94v9.87Z"/><path class="cls-8" d="M893.33,393.9h-4.94V384h4.94v9.88Zm0,14.81h-4.94v-9.87h4.94v9.87ZM908.14,384H893.33v-4.93h14.81Zm0,14.82H893.33V393.9h14.81Zm-4.94,9.87h4.94v4.94H893.33v-4.94h9.87Zm4.94-14.81V384h4.94v9.88Zm0,14.81v-9.87h4.94v9.87Z"/><path class="cls-8" d="M923,393.9H918V384H923v9.88Zm0,14.81H918v-9.87H923v9.87ZM937.76,384H923v-4.93h14.81Zm0,14.82H923V393.9h14.81Zm-4.93,9.87h4.93v4.94H923v-4.94h9.88Zm4.93-14.81V384h4.94v9.88Zm0,14.81v-9.87h4.94v9.87Z"/><path class="cls-8" d="M952.58,393.9h-4.94V384h4.94v9.88Zm0,14.81h-4.94v-9.87h4.94v9.87ZM967.39,384H952.58v-4.93h14.81Zm0,14.82H952.58V393.9h14.81Zm-4.94,9.87h4.94v4.94H952.58v-4.94h9.87Zm4.94-14.81V384h4.94v9.88Zm0,14.81v-9.87h4.94v9.87Z"/><path class="cls-8" d="M997,393.9H1002v4.94H977.26V393.9H997Z"/><path class="cls-8" d="M1011.83,393.9h-4.94V384h4.94v9.88Zm0,14.81h-4.94v-9.87h4.94v9.87ZM1026.64,384h-14.81v-4.93h14.81Zm0,14.82h-14.81V393.9h14.81Zm-4.94,9.87h4.94v4.94h-14.81v-4.94h9.87Zm4.94-14.81V384h4.94v9.88Zm0,14.81v-9.87h4.94v9.87Z"/><path class="cls-8" d="M1041.45,393.9h-4.94V384h4.94v9.88Zm0,14.81h-4.94v-9.87h4.94v9.87ZM1056.26,384h-14.81v-4.93h14.81Zm0,14.82h-14.81V393.9h14.81Zm-4.93,9.87h4.93v4.94h-14.81v-4.94h9.88Zm4.93-14.81V384h4.94v9.88Zm0,14.81v-9.87h4.94v9.87Z"/><path class="cls-8" d="M1071.08,393.9h-4.94V384h4.94v9.88Zm0,14.81h-4.94v-9.87h4.94v9.87ZM1085.89,384h-14.81v-4.93h14.81Zm0,14.82h-14.81V393.9h14.81Zm-4.94,9.87h4.94v4.94h-14.81v-4.94H1081Zm4.94-14.81V384h4.94v9.88Zm0,14.81v-9.87h4.94v9.87Z"/><path class="cls-8" d="M804.14,477.24H799.2v-9.88h4.94v9.88Zm0,14.81H799.2v-4.94h4.94ZM819,467.36H804.14v-4.93H819Zm0,24.69v-9.87H804.14v-4.94H819v-9.88h4.94v24.69Zm-4.94,0H819V497H804.14v-4.94H814Z"/><path class="cls-8" d="M838.7,477.24v-9.88h4.94v9.88Zm0,19.75v-9.88h4.94V497Z"/><path class="cls-8" d="M878.2,492.05h4.94V497H858.45v-4.94h9.88V472.3h-4.94v-4.94h4.94v-4.93h4.93v29.62Z"/><path class="cls-8" d="M907.83,477.24v-9.88H888.08v-4.93h24.68v14.81ZM898,497V482.18h4.94V497Zm4.94-14.81v-4.94h4.94v4.94Z"/><path class="cls-8" d="M1090.73,477.24v-9.88H1071v-4.93h24.69v14.81ZM1080.86,497V482.18h4.93V497Zm4.93-14.81v-4.94h4.94v4.94Z"/><path class="cls-8" d="M1100.61,497v-9.88h4.93V497Zm4.93-9.88v-4.93h4.94v4.93Zm4.94-4.93v-4.94h4.94v4.94Zm4.94-4.94V472.3h4.94v4.94Zm4.94-4.94v-9.87h4.93v9.87Z"/><path class="cls-8" d="M1150,492.05V477.24H1145v4.94h-4.93v4.93h-4.94v4.94h-4.94V467.36h4.94v14.82h4.94v-4.94H1145V472.3H1150v-4.94h4.94v24.69Zm0-24.69h-14.81v-4.93H1150ZM1145,492.05H1150V497h-14.81v-4.94H1145Z"/><path class="cls-8" d="M1164.79,492.05h-4.93V467.36h4.93v9.88h14.82v4.94h-14.82v9.87Zm9.88-29.62h4.94v4.93h-14.82v-4.93h9.88Zm0,29.62h4.94V497h-14.82v-4.94h9.88Zm4.94,0v-9.87h4.93v9.87Z"/><path class="cls-8" d="M1189.48,497v-9.88h4.94V497Zm4.94-9.88v-4.93h4.94v4.93Zm4.94-4.93v-4.94h4.93v4.94Zm4.93-4.94V472.3h4.94v4.94Zm4.94-4.94v-9.87h4.94v9.87Z"/><path class="cls-8" d="M1224,477.24h-4.93v-9.88H1224v9.88Zm0,14.81h-4.93v-4.94H1224Zm14.82-24.69H1224v-4.93h14.82Zm0,24.69v-9.87H1224v-4.94h14.82v-9.88h4.93v24.69Zm-4.94,0h4.94V497H1224v-4.94h9.88Z"/><path class="cls-8" d="M1268.48,492.05V477.24h-4.94v4.94h-4.93v4.93h-4.94v4.94h-4.94V467.36h4.94v14.82h4.94v-4.94h4.93V472.3h4.94v-4.94h4.94v24.69Zm0-24.69h-14.81v-4.93h14.81Zm-4.94,24.69h4.94V497h-14.81v-4.94h9.87Z"/></g></svg>