<svg xmlns="http://www.w3.org/2000/svg" viewBox="0 0 1920 1080"><defs><style>.cls-1,.cls-4{fill:none;}.cls-1,.cls-3,.cls-4{stroke:#77aa89;stroke-miterlimit:10;}.cls-1{stroke-width:5px;}.cls-2,.cls-3,.cls-5{fill:#77aa89;}.cls-3,.cls-4{stroke-width:2px;}.cls-5{opacity:0.5;}</style></defs><g id="Livello_2" data-name="Livello 2"><line class="cls-1" x1="579.31" y1="650.07" x2="509.04" y2="650.07"/><polygon class="cls-2" points="575.67 637.6 597.25 650.07 575.67 662.53 575.67 637.6"/><path class="cls-2" d="M441.61,659.64l16.86-39.71h5.64L481,659.64h-5l-4.86-11.51H451.45l-4.86,11.51ZM453.19,644h16.2l-8.1-19.38Z"/><line class="cls-1" x1="1421.79" y1="650.07" x2="1514.26" y2="650.07"/><polygon class="cls-2" points="1425.44 662.54 1403.85 650.07 1425.44 637.61 1425.44 662.54"/><path class="cls-2" d="M1569.1,660.13a18.72,18.72,0,0,1-10.26-2.74,18,18,0,0,1-6.63-7.34,24,24,0,0,1,0-20.53,18.14,18.14,0,0,1,6.63-7.34,18.72,18.72,0,0,1,10.26-2.74,20,20,0,0,1,8.1,1.59,18,18,0,0,1,9.9,10.78h-4.74a12.63,12.63,0,0,0-4.74-5.83,14.49,14.49,0,0,0-8.16-2.16,15.17,15.17,0,0,0-8.19,2.13,13.72,13.72,0,0,0-5.13,5.73,19.65,19.65,0,0,0,0,16.17,13.5,13.5,0,0,0,5.13,5.76,15,15,0,0,0,8.19,2.13,14.49,14.49,0,0,0,8.16-2.15,12.58,12.58,0,0,0,4.74-5.83h4.74a18.51,18.51,0,0,1-3.78,6.39,17.72,17.72,0,0,1-6.12,4.38A19.68,19.68,0,0,1,1569.1,660.13Z"/><rect class="cls-2" x="748.69" y="431.7" width="456.68" height="34.78"/><polygon class="cls-3" points="717.9 547.84 725.59 540.1 710.22 540.1 717.9 547.84"/><path class="cls-4" d="M1311.41,756.77h-634c-35.11,0-63.57-19.31-63.57-54.42V317.26a63.57,63.57,0,0,1,63.57-63.56h634A63.57,63.57,0,0,1,1375,317.26V702.35C1375,737.46,1346.52,756.77,1311.41,756.77Z"/><rect class="cls-4" x="688.48" y="378.7" width="559.58" height="186.37" rx="25.58"/><path class="cls-4" d="M1224.44,599.37H702.05c-19.36,0-35.18-14.91-35.65-33.58l-5.55-222.92a29.46,29.46,0,0,1,27.2-30.11l283.73-17.61a51,51,0,0,1,7.21,0l265.42,13.46a29.46,29.46,0,0,1,27.47,30.93l-11.83,227.19C1259.1,585,1243.44,599.37,1224.44,599.37Z"/><path class="cls-4" d="M1306.21,382.55h14a19.85,19.85,0,0,1,19.85,19.85v59.77a0,0,0,0,1,0,0h-53.74a0,0,0,0,1,0,0V402.4A19.85,19.85,0,0,1,1306.21,382.55Z"/><path class="cls-4" d="M1306.21,479h14a19.85,19.85,0,0,1,19.85,19.85v59.77a0,0,0,0,1,0,0h-53.74a0,0,0,0,1,0,0V498.9A19.85,19.85,0,0,1,1306.21,479Z" transform="translate(2626.46 1037.71) rotate(180)"/><ellipse class="cls-4" cx="1299.89" cy="652.39" rx="44.21" ry="33.49"/><ellipse class="cls-4" cx="694.36" cy="650.07" rx="52.49" ry="21.33"/><ellipse class="cls-4" cx="996.7" cy="689.24" rx="199.05" ry="42.11"/><ellipse class="cls-5" cx="993.76" cy="683.69" rx="174.38" ry="36.56"/><path class="cls-2" d="M1295.46,648.92l4.33,13.06h.09l9.67-26h5.2l-12.52,32.39h-4.74l-7-19.43Z"/><path class="cls-2" d="M701.69,659.64v-2.36h-10.2a1.19,1.19,0,0,1-1.19-1.2V644.72l5,4.71,1.61-1.69-7.83-7.25-7.81,7.25,1.6,1.69,5-4.71v13.71a1.19,1.19,0,0,0,1.2,1.19Z"/><polygon class="cls-3" points="1313.23 531.1 1320.91 517.79 1305.55 517.79 1313.23 531.1"/><polygon class="cls-3" points="1313.23 409.05 1305.55 422.36 1320.91 422.36 1313.23 409.05"/><path class="cls-2" d="M829,418.41V396.53h12.5v3.13h3.13v6.25h-3.13v-6.25h-9.37v6.25h9.37V409h-9.37v9.38Z"/><path class="cls-2" d="M850.91,415.28h-3.13v-9.37h3.13v9.37Zm9.37-9.37h-9.37v-3.13h9.37Zm-3.12,9.37h3.12v3.13h-9.37v-3.13h6.25Zm3.12,0v-9.37h3.13v9.37Z"/><path class="cls-2" d="M869.66,409h-3.13v-3.12h3.13Zm6.25,6.25H879v3.13h-12.5v-3.13h9.38Zm3.12-12.5h3.13v3.13h-12.5v-3.13H879Zm0,9.38h-9.37V409H879Zm0,3.12v-3.12h3.13v3.12Z"/><path class="cls-2" d="M891.53,415.28h-3.12v-9.37h-3.13v-3.13h3.13v-6.25h3.12v6.25h6.25v3.13h-6.25v9.37Zm6.25,0h3.13v3.13h-9.38v-3.13h6.25Z"/><path class="cls-2" d="M916.53,418.41h-9.37v-3.13H904v-9.37h3.13v-3.13h12.5v15.63Zm-3.12-3.13h3.12v-9.37h-9.37v9.37h6.25Z"/><path class="cls-2" d="M954,415.28h3.13v3.13H941.53v-3.13h6.25v-9.37h-3.12v-3.13h6.25v12.5Zm-6.25-15.62v-3.13h3.13v3.13Z"/><path class="cls-2" d="M960.28,418.41V402.78h12.5v3.13h-9.37v12.5Zm12.5,0v-12.5h3.13v12.5Z"/><path class="cls-2" d="M1010.28,418.41h-9.37v-3.13h-3.13v-9.37h3.13v-3.13h12.5v15.63Zm-3.12-3.13h3.12v-9.37h-9.37v9.37h6.25Z"/><path class="cls-2" d="M1016.53,418.41V402.78h3.13v3.13h3.12V409h-3.12v9.38Zm12.5-12.5h-6.25v-3.13H1029Zm0,3.12v-3.12h3.13V409Z"/><path class="cls-2" d="M1035.28,418.41V402.78h3.13v3.13h3.12V409h-3.12v9.38Zm12.5-12.5h-6.25v-3.13h6.25Zm0,3.12v-3.12h3.13V409Z"/><path class="cls-2" d="M1066.53,415.28h3.13v3.13H1054v-3.13h6.25v-9.37h-3.12v-3.13h6.25v12.5Zm-6.25-15.62v-3.13h3.13v3.13Z"/><path class="cls-2" d="M1075.91,412.16h-3.13v-9.38h3.13v9.38Zm3.12,3.12h-3.12v-3.12H1079Zm0,3.13v-3.13h3.13v3.13Zm3.13-3.13v-3.12h3.12v3.12Zm3.12-3.12v-9.38h3.13v9.38Z"/><path class="cls-2" d="M1094.66,415.28h-3.13v-9.37h3.13v9.37Zm9.37-9.37h-9.37v-3.13H1104Zm-3.12,9.37H1104v3.13h-9.37v-3.13h6.25Zm3.12,0v-9.37h3.13v9.37Z"/><path class="cls-2" d="M797.65,392.88h-49v3.52h0v29.25h49V392.88Zm-45.47,30.43V396.4h0v-1.17h41.93v1.17h-3.47v3.53h3.47v23.38Z"/><rect class="cls-2" x="759.19" y="403.45" width="3.51" height="3.53"/><rect class="cls-2" x="762.7" y="406.98" width="3.49" height="3.52"/><rect class="cls-2" x="755.7" y="399.93" width="3.49" height="3.52"/><rect class="cls-2" x="766.19" y="410.5" width="3.49" height="3.53"/><rect class="cls-2" x="752.21" y="396.4" width="3.49" height="3.53"/><rect class="cls-2" x="769.68" y="414.03" width="7.01" height="3.53"/><rect class="cls-2" x="783.67" y="403.45" width="3.51" height="3.53"/><rect class="cls-2" x="787.18" y="399.93" width="3.49" height="3.52"/><rect class="cls-2" x="780.18" y="406.98" width="3.49" height="3.52"/><rect class="cls-2" x="776.69" y="410.5" width="3.49" height="3.53"/><path d="M841.53,458.6h3.13v3.13H829V458.6h6.25V443H829v-3.13h15.63V443h-6.25V458.6Z"/><path d="M847.78,461.73V446.1h12.5v3.13h-9.37v12.5Zm12.5,0v-12.5h3.13v12.5Z"/><path d="M869.66,461.73v-9.38h-3.13v-3.12h3.13V443h3.12v6.25H879v3.12h-6.25v9.38ZM879,443h-6.25v-3.13H879Zm0,3.12V443h3.13v3.12Z"/><path d="M888.41,458.6h-3.13v-9.37h3.13v9.37Zm9.37-9.37h-9.37V446.1h9.37Zm-3.12,9.37h3.12v3.13h-9.37V458.6h6.25Zm3.12,0v-9.37h3.13v9.37Z"/><path d="M904,461.73V446.1h3.13v3.13h3.12v3.12h-3.12v9.38Zm12.5-12.5h-6.25V446.1h6.25Zm0,3.12v-3.12h3.13v3.12Z"/><path d="M929,461.73v-12.5h-3.12v12.5h-3.13V446.1h12.5v3.13h-3.12v12.5Zm6.25,0v-12.5h3.13v12.5Z"/><path d="M954,461.73h-9.37V458.6h-3.13v-9.37h3.13V446.1h12.5v15.63Zm-3.12-3.13H954v-9.37h-9.37v9.37h6.25Z"/><path d="M969.66,452.35v-3.12h-9.38V446.1h15.63v3.13h-3.13v3.12Zm3.12,6.25h3.13v3.13H960.28V458.6h3.13v-3.12h3.12v3.12h6.25Zm-6.25-3.12v-3.13h3.13v3.13Z"/><path d="M991.53,458.6h3.13v3.13H979V458.6h6.25v-9.37h-3.12V446.1h6.25v12.5ZM985.28,443v-3.13h3.13V443Z"/><path d="M1000.91,458.6h-3.13v-9.37h3.13v9.37Zm9.37-9.37h-9.37V446.1h9.37Zm-3.12,9.37h3.12v3.13h-9.37V458.6h6.25Zm3.12,0v-9.37h3.13v9.37Z"/><path d="M1016.53,461.73V446.1H1029v3.13h-9.37v12.5Zm12.5,0v-12.5h3.13v12.5Z"/><path d="M1038.41,458.6h-3.13v-9.37h3.13v3.12h9.37v-3.12h3.13v6.25h-12.5Zm9.37-9.37h-9.37V446.1h9.37Zm-3.12,9.37h3.12v3.13h-9.37V458.6h6.25Z"/><path class="cls-2" d="M832.16,501.93H829V486.3h3.13v15.63Zm9.37-15.63h-9.37v-3.12h9.37Zm-3.12,15.63h3.12v3.12h-9.37v-3.12h6.25Zm3.12-12.5V486.3h3.13v3.13Zm0,12.5V498.8h3.13v3.13Z"/><path class="cls-2" d="M860.28,505.05h-9.37v-3.12h-3.13v-9.38h3.13v-3.12h12.5v15.62Zm-3.12-3.12h3.12v-9.38h-9.37v9.38h6.25Z"/><path class="cls-2" d="M866.53,505.05V489.43h3.13v3.12h3.12v3.13h-3.12v9.37Zm12.5-12.5h-6.25v-3.12H879Zm0,3.13v-3.13h3.13v3.13Z"/><path class="cls-2" d="M891.53,501.93h-3.12v-9.38h-3.13v-3.12h3.13v-6.25h3.12v6.25h6.25v3.12h-6.25v9.38Zm6.25,0h3.13v3.12h-9.38v-3.12h6.25Z"/><path class="cls-2" d="M907.16,501.93H904v-9.38h3.13v3.13h9.37v-3.13h3.13v6.25h-12.5Zm9.37-9.38h-9.37v-3.12h9.37Zm-3.12,9.38h3.12v3.12h-9.37v-3.12h6.25Z"/><path class="cls-2" d="M929,501.93h-3.12V486.3h-3.13v-3.12H929v18.75Zm6.25,0h3.13v3.12H929v-3.12h6.25Z"/><path class="cls-2" d="M947.78,501.93h-3.12V486.3h-3.13v-3.12h6.25v18.75Zm6.25,0h3.13v3.12h-9.38v-3.12H954Z"/><path class="cls-2" d="M972.78,505.05h-9.37v-3.12h-3.13v-9.38h3.13v-3.12h12.5v15.62Zm-3.12-3.12h3.12v-9.38h-9.37v9.38h6.25Z"/><path class="cls-2" d="M997.78,511.3V489.43h12.5v3.12h3.13v9.38h-3.13v-9.38h-9.37v9.38h9.37v3.12h-9.37v6.25Z"/><path class="cls-2" d="M1016.53,505.05V489.43h3.13v3.12h3.12v3.13h-3.12v9.37Zm12.5-12.5h-6.25v-3.12H1029Zm0,3.13v-3.13h3.13v3.13Z"/><path class="cls-2" d="M1047.78,501.93h3.13v3.12h-15.63v-3.12h6.25v-9.38h-3.12v-3.12h6.25v12.5Zm-6.25-15.63v-3.12h3.13v3.12Z"/><path class="cls-2" d="M1054,505.05V489.43h12.5v3.12h-9.37v12.5Zm12.5,0v-12.5h3.13v12.5Z"/><path class="cls-2" d="M1075.91,501.93h-3.13v-9.38h3.13v9.38Zm9.37-9.38h-9.37v-3.12h9.37Zm-3.12,9.38h3.12v3.12h-9.37v-3.12h6.25Zm3.12-6.25v-3.13h3.13v3.13Zm0,6.25V498.8h3.13v3.13Z"/><path class="cls-2" d="M1104,501.93h3.13v3.12h-15.63v-3.12h6.25v-9.38h-3.12v-3.12h6.25v12.5Zm-6.25-15.63v-3.12h3.13v3.12Z"/><path class="cls-2" d="M1110.28,511.3V489.43h12.5v3.12h3.13v9.38h-3.13v-9.38h-9.37v9.38h9.37v3.12h-9.37v6.25Z"/><path class="cls-2" d="M1141.53,505.05h-9.37v-3.12H1129v-9.38h3.13v-3.12h12.5v15.62Zm-3.12-3.12h3.12v-9.38h-9.37v9.38h6.25Z"/><path class="cls-2" d="M1154,501.93h-3.12V486.3h-3.13v-3.12H1154v18.75Zm6.25,0h3.13v3.12H1154v-3.12h6.25Z"/><path class="cls-2" d="M1169.66,501.93h-3.13v-9.38h3.13v3.13H1179v-3.13h3.13v6.25h-12.5Zm9.37-9.38h-9.37v-3.12H1179Zm-3.12,9.38H1179v3.12h-9.37v-3.12h6.25Z"/><path class="cls-2" d="M832.16,545.25H829V529.63h3.13v15.62Zm9.37-15.62h-9.37V526.5h9.37Zm-3.12,15.62h3.12v3.13h-9.37v-3.13h6.25Zm3.12-12.5v-3.12h3.13v3.12Zm0,12.5v-3.12h3.13v3.12Z"/><path class="cls-2" d="M860.28,548.38h-9.37v-3.13h-3.13v-9.37h3.13v-3.13h12.5v15.63Zm-3.12-3.13h3.12v-9.37h-9.37v9.37h6.25Z"/><path class="cls-2" d="M866.53,548.38V532.75h3.13v3.13h3.12V539h-3.12v9.38Zm12.5-12.5h-6.25v-3.13H879Zm0,3.12v-3.12h3.13V539Z"/><path class="cls-2" d="M891.53,545.25h-3.12v-9.37h-3.13v-3.13h3.13V526.5h3.12v6.25h6.25v3.13h-6.25v9.37Zm6.25,0h3.13v3.13h-9.38v-3.13h6.25Z"/><path class="cls-2" d="M907.16,545.25H904v-9.37h3.13V539h9.37v-3.12h3.13v6.25h-12.5Zm9.37-9.37h-9.37v-3.13h9.37Zm-3.12,9.37h3.12v3.13h-9.37v-3.13h6.25Z"/><path class="cls-2" d="M929,545.25h-3.12V529.63h-3.13V526.5H929v18.75Zm6.25,0h3.13v3.13H929v-3.13h6.25Z"/><path class="cls-2" d="M947.78,545.25h-3.12V529.63h-3.13V526.5h6.25v18.75Zm6.25,0h3.13v3.13h-9.38v-3.13H954Z"/><path class="cls-2" d="M972.78,548.38h-9.37v-3.13h-3.13v-9.37h3.13v-3.13h12.5v15.63Zm-3.12-3.13h3.12v-9.37h-9.37v9.37h6.25Z"/><path class="cls-2" d="M1010.28,545.25h3.13v3.13H997.78v-3.13H1004v-9.37h-3.12v-3.13h6.25v12.5ZM1004,529.63V526.5h3.13v3.13Z"/><path class="cls-2" d="M1016.53,548.38V532.75H1029v3.13h-9.37v12.5Zm12.5,0v-12.5h3.13v12.5Z"/><path class="cls-2" d="M1038.41,548.38V539h-3.13v-3.12h3.13v-6.25h3.12v6.25h6.25V539h-6.25v9.38Zm9.37-18.75h-6.25V526.5h6.25Zm0,3.12v-3.12h3.13v3.12Z"/><path class="cls-2" d="M1057.16,545.25H1054v-9.37h3.13v9.37Zm9.37-9.37h-9.37v-3.13h9.37Zm-3.12,9.37h3.12v3.13h-9.37v-3.13h6.25Zm3.12,0v-9.37h3.13v9.37Z"/><path class="cls-2" d="M1072.78,548.38V532.75h3.13v3.13H1079V539h-3.12v9.38Zm12.5-12.5H1079v-3.13h6.25Zm0,3.12v-3.12h3.13V539Z"/><path class="cls-2" d="M1097.78,548.38v-12.5h-3.12v12.5h-3.13V532.75H1104v3.13h-3.12v12.5Zm6.25,0v-12.5h3.13v12.5Z"/><path class="cls-2" d="M1122.78,548.38h-9.37v-3.13h-3.13v-9.37h3.13v-3.13h12.5v15.63Zm-3.12-3.13h3.12v-9.37h-9.37v9.37h6.25Z"/><path class="cls-2" d="M1138.41,539v-3.12H1129v-3.13h15.63v3.13h-3.13V539Zm3.12,6.25h3.13v3.13H1129v-3.13h3.13v-3.12h3.12v3.12h6.25Zm-6.25-3.12V539h3.13v3.13Z"/><path class="cls-2" d="M1160.28,545.25h3.13v3.13h-15.63v-3.13H1154v-9.37h-3.12v-3.13h6.25v12.5ZM1154,529.63V526.5h3.13v3.13Z"/><path class="cls-2" d="M1169.66,545.25h-3.13v-9.37h3.13v9.37Zm9.37-9.37h-9.37v-3.13H1179Zm-3.12,9.37H1179v3.13h-9.37v-3.13h6.25Zm3.12,0v-9.37h3.13v9.37Z"/><path class="cls-2" d="M1185.28,548.38V532.75h12.5v3.13h-9.37v12.5Zm12.5,0v-12.5h3.13v12.5Z"/><path class="cls-2" d="M1207.16,545.25H1204v-9.37h3.13V539h9.37v-3.12h3.13v6.25h-12.5Zm9.37-9.37h-9.37v-3.13h9.37Zm-3.12,9.37h3.12v3.13h-9.37v-3.13h6.25Z"/><path d="M777.21,459.91H781v3.75H762.21v-3.75h7.5V448.66H766v-3.75h7.5v15Zm-7.5-18.75v-3.75h3.75v3.75Z"/><polygon class="cls-2" points="775.73 484.63 775.73 483.15 773.21 483.15 773.21 484.79 773.21 486.92 773.28 486.92 775.73 486.92 794.14 486.92 794.14 487.14 794.14 505.62 752.18 505.62 752.18 487.14 752.18 484.79 752.18 477.53 768.16 477.53 768.16 479.36 770.7 479.36 770.7 477.53 770.7 476.84 768.16 476.84 768.16 475.18 765.65 475.18 748.69 475.18 748.69 484.79 748.69 507.95 752.18 507.95 794.14 507.95 797.65 507.95 797.65 484.63 775.73 484.63"/><rect class="cls-2" x="770.7" y="479.36" width="2.52" height="3.79"/><polygon class="cls-2" points="775.73 528.66 775.73 527.18 773.21 527.18 773.21 528.82 773.21 530.96 773.28 530.96 775.73 530.96 794.14 530.96 794.14 531.17 794.14 549.65 752.18 549.65 752.18 531.17 752.18 528.82 752.18 521.56 768.16 521.56 768.16 523.39 770.7 523.39 770.7 521.56 770.7 520.87 768.16 520.87 768.16 519.21 765.65 519.21 748.69 519.21 748.69 528.82 748.69 551.98 752.18 551.98 794.14 551.98 797.65 551.98 797.65 528.66 775.73 528.66"/><rect class="cls-2" x="770.7" y="523.39" width="2.52" height="3.79"/><polyline class="cls-1" points="1419.02 522.22 1514.26 522.22 1514.26 415.8 1419.02 415.8"/><polygon class="cls-2" points="1422.66 534.69 1401.08 522.23 1422.66 509.76 1422.66 534.69"/><polygon class="cls-2" points="1422.66 403.33 1401.08 415.8 1422.66 428.26 1422.66 403.33"/><path class="cls-2" d="M1552.42,424.15V384.43h17.82a14.49,14.49,0,0,1,7.41,1.62,9.77,9.77,0,0,1,3.93,4.05,10.83,10.83,0,0,1,1.2,4.83,9.41,9.41,0,0,1-1.62,5.91,10,10,0,0,1-3.72,3,13.18,13.18,0,0,1,3.39,1.71,9.45,9.45,0,0,1,2.85,3.15,9.87,9.87,0,0,1,1.14,5,9.54,9.54,0,0,1-3.39,7.44q-3.39,3-10.17,3Zm4.5-22h13.32a10.64,10.64,0,0,0,3.93-.72,6.67,6.67,0,0,0,3-2.25,6.4,6.4,0,0,0,1.14-3.93,7,7,0,0,0-.75-3.18,5.9,5.9,0,0,0-2.4-2.46,8.74,8.74,0,0,0-4.41-1h-13.8Zm0,17.7h14.82a10.27,10.27,0,0,0,6.33-1.71,5.71,5.71,0,0,0,2.25-4.83,6.74,6.74,0,0,0-2.16-5q-2.16-2.13-6.9-2.13h-14.34Z"/></g></svg>