<svg xmlns="http://www.w3.org/2000/svg" viewBox="0 0 1920 1080"><defs><style>.cls-1,.cls-5{fill:none;}.cls-1,.cls-4,.cls-5{stroke:#77aa89;stroke-miterlimit:10;}.cls-1{stroke-width:5px;}.cls-2,.cls-3,.cls-4,.cls-6,.cls-7{fill:#77aa89;}.cls-3{font-size:60px;font-family:NeueMontreal-Medium, Neue Montreal;font-weight:500;}.cls-4,.cls-5{stroke-width:2px;}.cls-6{opacity:0.5;}.cls-10,.cls-7{font-size:62.26px;font-family:NeueBit-Bold, NeueBit;font-weight:700;}.cls-8{letter-spacing:-0.02em;}.cls-9{letter-spacing:0em;}.cls-11{letter-spacing:-0.02em;}.cls-12{font-size:66.44px;font-family:monogram;}</style></defs><g id="Livello_2" data-name="Livello 2"><line class="cls-1" x1="579.31" y1="663.58" x2="509.04" y2="663.58"/><polygon class="cls-2" points="575.67 651.12 597.25 663.58 575.67 676.05 575.67 651.12"/><text class="cls-3" transform="translate(441.43 673.16)">A</text><line class="cls-1" x1="1421.79" y1="663.59" x2="1514.26" y2="663.59"/><polygon class="cls-2" points="1425.44 676.05 1403.85 663.59 1425.44 651.12 1425.44 676.05"/><text class="cls-3" transform="translate(1547.56 673.16)">C</text><rect class="cls-2" x="748.69" y="445.21" width="456.68" height="34.78"/><polygon class="cls-4" points="717.9 561.35 725.59 553.62 710.22 553.62 717.9 561.35"/><path class="cls-5" d="M1311.41,770.29h-634c-35.11,0-63.57-19.32-63.57-54.42V330.78a63.57,63.57,0,0,1,63.57-63.57h634A63.57,63.57,0,0,1,1375,330.78V715.87C1375,751,1346.52,770.29,1311.41,770.29Z"/><rect class="cls-5" x="688.48" y="392.22" width="559.58" height="186.37" rx="25.58"/><path class="cls-5" d="M1224.44,612.88H702.05c-19.36,0-35.18-14.9-35.65-33.58l-5.55-222.92a29.47,29.47,0,0,1,27.2-30.11l283.73-17.6a49.58,49.58,0,0,1,7.21,0l265.42,13.45A29.47,29.47,0,0,1,1271.88,353L1260.05,580.2C1259.1,598.51,1243.44,612.88,1224.44,612.88Z"/><path class="cls-5" d="M1306.21,396.06h14a19.85,19.85,0,0,1,19.85,19.85v59.77a0,0,0,0,1,0,0h-53.74a0,0,0,0,1,0,0V415.91A19.85,19.85,0,0,1,1306.21,396.06Z"/><path class="cls-5" d="M1306.21,492.56h14a19.85,19.85,0,0,1,19.85,19.85v59.77a0,0,0,0,1,0,0h-53.74a0,0,0,0,1,0,0V512.41a19.85,19.85,0,0,1,19.85-19.85Z" transform="translate(2626.46 1064.74) rotate(180)"/><ellipse class="cls-5" cx="1299.89" cy="665.9" rx="44.21" ry="33.49"/><ellipse class="cls-5" cx="694.36" cy="663.58" rx="52.49" ry="21.33"/><ellipse class="cls-5" cx="996.7" cy="702.76" rx="199.05" ry="42.11"/><ellipse class="cls-6" cx="993.76" cy="697.21" rx="174.38" ry="36.56"/><path class="cls-2" d="M1295.46,662.44l4.33,13.06h.09l9.67-26h5.2l-12.52,32.4h-4.74l-7-19.43Z"/><path class="cls-2" d="M701.69,673.16v-2.37h-10.2a1.19,1.19,0,0,1-1.19-1.19V658.24l5,4.71,1.61-1.69L689.11,654l-7.81,7.25,1.6,1.69,5-4.71V672a1.2,1.2,0,0,0,1.2,1.19Z"/><polygon class="cls-4" points="1313.23 544.61 1320.91 531.3 1305.55 531.3 1313.23 544.61"/><polygon class="cls-4" points="1313.23 422.57 1305.55 435.87 1320.91 435.87 1313.23 422.57"/><text class="cls-7" transform="translate(829.03 437.84)"><tspan class="cls-8">Pos</tspan><tspan x="72.22" y="0">ta in arri</tspan><tspan class="cls-8" x="225.5" y="0">v</tspan><tspan class="cls-9" x="248.83" y="0">o</tspan></text><path class="cls-2" d="M797.65,406.39h-49v3.52h0v29.25h49V406.39Zm-45.47,30.44V409.91h0v-1.17h41.93v1.17h-3.47v3.53h3.47v23.39Z"/><rect class="cls-2" x="759.19" y="416.96" width="3.51" height="3.53"/><rect class="cls-2" x="762.7" y="420.49" width="3.49" height="3.52"/><rect class="cls-2" x="755.7" y="413.44" width="3.49" height="3.52"/><rect class="cls-2" x="766.19" y="424.01" width="3.49" height="3.53"/><rect class="cls-2" x="752.21" y="409.91" width="3.49" height="3.53"/><rect class="cls-2" x="769.68" y="427.55" width="7.01" height="3.53"/><rect class="cls-2" x="783.67" y="416.96" width="3.51" height="3.53"/><rect class="cls-2" x="787.18" y="413.44" width="3.49" height="3.52"/><rect class="cls-2" x="780.18" y="420.49" width="3.49" height="3.52"/><rect class="cls-2" x="776.69" y="424.01" width="3.49" height="3.53"/><text class="cls-10" transform="translate(829.03 479.99)">I<tspan class="cls-11" x="8.88" y="0">nf</tspan><tspan class="cls-9" x="44.43" y="0">o/N</tspan><tspan class="cls-8" x="118.88" y="0">o</tspan><tspan x="142.21" y="0">vità</tspan></text><text class="cls-7" transform="translate(829.03 522.42)"><tspan class="cls-8">C</tspan><tspan x="30.01" y="0">artella principale</tspan></text><text class="cls-7" transform="translate(829.03 566.96)"><tspan class="cls-8">C</tspan><tspan x="30.01" y="0">artella i</tspan><tspan class="cls-8" x="168.84" y="0">nf</tspan><tspan class="cls-9" x="204.4" y="0">o/n</tspan><tspan class="cls-8" x="275.51" y="0">o</tspan><tspan class="cls-9" x="298.84" y="0">vità</tspan></text><text class="cls-12" transform="translate(762.21 479.99)">i</text><polygon class="cls-2" points="775.73 498.15 775.73 496.66 773.21 496.66 773.21 498.3 773.21 500.44 773.28 500.44 775.73 500.44 794.14 500.44 794.14 500.65 794.14 519.13 752.18 519.13 752.18 500.65 752.18 498.3 752.18 491.04 768.16 491.04 768.16 492.87 770.7 492.87 770.7 491.04 770.7 490.36 768.16 490.36 768.16 488.69 765.65 488.69 748.69 488.69 748.69 498.3 748.69 521.47 752.18 521.47 794.14 521.47 797.65 521.47 797.65 498.15 775.73 498.15"/><rect class="cls-2" x="770.7" y="492.87" width="2.52" height="3.79"/><polygon class="cls-2" points="775.73 542.18 775.73 540.7 773.21 540.7 773.21 542.33 773.21 544.47 773.28 544.47 775.73 544.47 794.14 544.47 794.14 544.69 794.14 563.16 752.18 563.16 752.18 544.69 752.18 542.33 752.18 535.08 768.16 535.08 768.16 536.9 770.7 536.9 770.7 535.08 770.7 534.39 768.16 534.39 768.16 532.72 765.65 532.72 748.69 532.72 748.69 542.33 748.69 565.5 752.18 565.5 794.14 565.5 797.65 565.5 797.65 542.18 775.73 542.18"/><rect class="cls-2" x="770.7" y="536.9" width="2.52" height="3.79"/><polyline class="cls-1" points="1419.02 535.74 1514.26 535.74 1514.26 429.31 1419.02 429.31"/><polygon class="cls-2" points="1422.66 548.21 1401.08 535.74 1422.66 523.27 1422.66 548.21"/><polygon class="cls-2" points="1422.66 416.85 1401.08 429.31 1422.66 441.78 1422.66 416.85"/><text class="cls-3" transform="translate(1547.56 437.67)">B</text></g></svg>