<svg xmlns="http://www.w3.org/2000/svg" viewBox="0 0 1920 1080"><defs><style>.cls-1{fill:#77aa89;}.cls-2,.cls-3,.cls-4{fill:none;stroke-miterlimit:10;}.cls-2,.cls-3{stroke:#77aa89;}.cls-2{stroke-width:5px;}.cls-3,.cls-4{stroke-width:2px;}.cls-4{stroke:#000;}</style></defs><g id="Livello_2" data-name="Livello 2"><path class="cls-1" d="M1432.9,972.27V932.55h4.5v17.64h23.1V932.55h4.5v39.72h-4.5v-17.7h-23.1v17.7Z"/><path class="cls-1" d="M963.54,1039.49a19.18,19.18,0,0,1-10.41-2.73,18.25,18.25,0,0,1-6.69-7.35,22.38,22.38,0,0,1-2.34-10.26,21.92,21.92,0,0,1,2.4-10.26,18.54,18.54,0,0,1,6.81-7.35,19.26,19.26,0,0,1,10.35-2.73,19.55,19.55,0,0,1,11.13,3.15,18.9,18.9,0,0,1,6.93,8.13H976.8a13.32,13.32,0,0,0-5-5,15.25,15.25,0,0,0-7.77-1.86,15.55,15.55,0,0,0-8.28,2.13,14.09,14.09,0,0,0-5.31,5.73,17.62,17.62,0,0,0-1.83,8.1,17.91,17.91,0,0,0,1.8,8.07,13.9,13.9,0,0,0,5.25,5.76,16.39,16.39,0,0,0,15.06.57,13.22,13.22,0,0,0,5.22-4.5,12.24,12.24,0,0,0,2-7.08H963.42v-4.08h18.66V1039h-4.14v-7a17.55,17.55,0,0,1-3.24,3.63,16.13,16.13,0,0,1-4.77,2.79A17.61,17.61,0,0,1,963.54,1039.49Z"/><polyline class="cls-2" points="1060.83 923.36 1060.83 964.55 1405.36 964.55"/><polygon class="cls-1" points="1048.36 927.01 1060.82 905.42 1073.29 927.01 1048.36 927.01"/><path class="cls-1" d="M471.67,972.27V932.55h28.68v4.32H476.17v13.8h21.54v4.38H476.17v17.22Z"/><path class="cls-1" d="M471.67,849.09V809.37h29.22v4.32H476.17V827h22.08v4.38H476.17v13.38h24.72v4.32Z"/><polyline class="cls-2" points="876.44 923.36 876.44 964.55 531.9 964.55"/><polygon class="cls-1" points="863.97 927.01 876.44 905.42 888.9 927.01 863.97 927.01"/><line class="cls-2" x1="723.57" y1="188.74" x2="531.9" y2="188.74"/><polygon class="cls-1" points="719.92 176.28 741.5 188.74 719.92 201.21 719.92 176.28"/><line class="cls-2" x1="965.6" y1="924.49" x2="965.6" y2="972.27"/><polygon class="cls-1" points="953.13 928.13 965.6 906.55 978.07 928.13 953.13 928.13"/><line class="cls-2" x1="723.57" y1="404.02" x2="531.9" y2="404.02"/><polygon class="cls-1" points="719.92 391.55 741.5 404.01 719.92 416.48 719.92 391.55"/><line class="cls-2" x1="670.38" y1="838.23" x2="531.9" y2="838.23"/><polygon class="cls-1" points="666.73 825.77 688.32 838.23 666.73 850.7 666.73 825.77"/><path class="cls-1" d="M467.57,199.42l16.86-39.72h5.64l16.86,39.72h-5l-4.86-11.52H477.41l-4.86,11.52Zm11.58-15.66h16.2l-8.1-19.38Z"/><line class="cls-2" x1="1050.25" y1="188.74" x2="1405.36" y2="188.74"/><polygon class="cls-1" points="1053.9 201.21 1032.31 188.74 1053.9 176.28 1053.9 201.21"/><line class="cls-2" x1="1205.5" y1="401.92" x2="1405.36" y2="401.92"/><polygon class="cls-1" points="1209.15 414.38 1187.56 401.92 1209.15 389.45 1209.15 414.38"/><path class="cls-1" d="M1449.58,199.9a18.8,18.8,0,0,1-10.26-2.73,18.1,18.1,0,0,1-6.63-7.35,23.94,23.94,0,0,1,0-20.52,18.1,18.1,0,0,1,6.63-7.35,18.8,18.8,0,0,1,10.26-2.73,19.85,19.85,0,0,1,8.1,1.59,17.91,17.91,0,0,1,9.9,10.77h-4.74a12.55,12.55,0,0,0-4.74-5.82,14.41,14.41,0,0,0-8.16-2.16,15.09,15.09,0,0,0-8.19,2.13,13.66,13.66,0,0,0-5.13,5.73,19.65,19.65,0,0,0,0,16.17,13.62,13.62,0,0,0,5.13,5.76,15.09,15.09,0,0,0,8.19,2.13,14.41,14.41,0,0,0,8.16-2.16,12.55,12.55,0,0,0,4.74-5.82h4.74a18.6,18.6,0,0,1-3.78,6.39,17.85,17.85,0,0,1-6.12,4.38A19.85,19.85,0,0,1,1449.58,199.9Z"/><path class="cls-1" d="M1432.9,410.51V370.79h16.74a17.79,17.79,0,0,1,12.66,5.28,18.77,18.77,0,0,1,4.08,6.24,23.94,23.94,0,0,1,0,16.68,18.77,18.77,0,0,1-4.08,6.24,17.79,17.79,0,0,1-12.66,5.28Zm4.5-4.26h12.06a12.64,12.64,0,0,0,7.38-2.16,14.43,14.43,0,0,0,4.83-5.7,18.51,18.51,0,0,0,0-15.54,14.2,14.2,0,0,0-4.83-5.67,12.77,12.77,0,0,0-7.38-2.13H1437.4Z"/><path class="cls-1" d="M472.25,411.7V372h17.82a14.49,14.49,0,0,1,7.41,1.62,9.77,9.77,0,0,1,3.93,4,10.83,10.83,0,0,1,1.2,4.83,9.41,9.41,0,0,1-1.62,5.91,10,10,0,0,1-3.72,3,13.18,13.18,0,0,1,3.39,1.71,9.45,9.45,0,0,1,2.85,3.15,9.87,9.87,0,0,1,1.14,5,9.54,9.54,0,0,1-3.39,7.44q-3.39,3-10.17,3Zm4.5-22h13.32A10.64,10.64,0,0,0,494,389a6.67,6.67,0,0,0,3-2.25,6.4,6.4,0,0,0,1.14-3.93,7,7,0,0,0-.75-3.18,5.9,5.9,0,0,0-2.4-2.46,8.74,8.74,0,0,0-4.41-1h-13.8Zm0,17.7h14.82a10.27,10.27,0,0,0,6.33-1.71,5.71,5.71,0,0,0,2.25-4.83A6.74,6.74,0,0,0,498,396q-2.16-2.13-6.9-2.13H476.75Z"/><path class="cls-3" d="M1183.08,465.3h38c25.29,0,45.78,23.85,45.78,53.26l-16.14,327.55c-2,40.79-31,72.67-66.15,72.67H743.14c-35.34,0-64.46-32.26-66.18-73.32l-13.74-326.9c0-29.41,20.5-53.26,45.79-53.26h37.56"/><path class="cls-3" d="M1170,895.78H757.87a61.86,61.86,0,0,1-61.79-58.84L683.25,574.57A42.75,42.75,0,0,1,726,531.82h478.05a42.74,42.74,0,0,1,42.74,42.75l-15.07,262.89A61.86,61.86,0,0,1,1170,895.78Z"/><circle class="cls-3" cx="726.8" cy="573.82" r="17.32"/><circle class="cls-3" cx="735.12" cy="839.8" r="17.32"/><circle class="cls-3" cx="965.05" cy="826.23" r="47.42"/><circle class="cls-3" cx="778.39" cy="586.95" r="17.32"/><circle class="cls-3" cx="822.47" cy="559.8" r="17.32"/><circle class="cls-3" cx="866.84" cy="586.95" r="17.32"/><circle class="cls-3" cx="911.12" cy="559.8" r="17.32"/><circle class="cls-3" cx="955.89" cy="586.95" r="17.32"/><circle class="cls-3" cx="998.47" cy="559.8" r="17.32"/><circle class="cls-3" cx="1043.28" cy="586.95" r="17.32"/><circle class="cls-3" cx="1088.66" cy="559.8" r="17.32"/><circle class="cls-3" cx="1132.54" cy="586.95" r="17.32"/><rect class="cls-3" x="1163.76" y="559.11" width="57.79" height="41.12" rx="6.75"/><rect class="cls-3" x="708.83" y="767.92" width="62.6" height="41.12" rx="6.75"/><rect class="cls-3" x="1158.58" y="767.92" width="62.6" height="41.12" rx="6.75"/><rect class="cls-3" x="1125.86" y="823.18" width="82.56" height="41.12" rx="6.75"/><rect class="cls-3" x="784" y="767.92" width="101.89" height="41.12" rx="6.75"/><rect class="cls-3" x="1044.21" y="767.92" width="101.89" height="41.12" rx="6.75"/><rect class="cls-3" x="695.95" y="612.65" width="39.84" height="40.26" rx="5.85"/><rect class="cls-3" x="751.5" y="612.65" width="39.84" height="40.26" rx="5.85"/><rect class="cls-3" x="717.8" y="663.41" width="39.84" height="40.26" rx="5.85"/><rect class="cls-3" x="774.67" y="663.41" width="39.84" height="40.26" rx="5.85"/><rect class="cls-3" x="831.53" y="663.41" width="39.84" height="40.26" rx="5.85"/><rect class="cls-3" x="888.4" y="663.41" width="39.84" height="40.26" rx="5.85"/><rect class="cls-3" x="945.27" y="663.41" width="39.84" height="40.26" rx="5.85"/><rect class="cls-3" x="1002.13" y="663.41" width="39.84" height="40.26" rx="5.85"/><rect class="cls-3" x="1059" y="663.41" width="39.84" height="40.26" rx="5.85"/><rect class="cls-3" x="1115.87" y="663.41" width="39.84" height="40.26" rx="5.85"/><rect class="cls-3" x="1172.73" y="663.41" width="39.84" height="40.26" rx="5.85"/><rect class="cls-3" x="807.05" y="612.65" width="39.84" height="40.26" rx="5.85"/><rect class="cls-3" x="862.59" y="612.65" width="39.84" height="40.26" rx="5.85"/><rect class="cls-3" x="918.14" y="612.65" width="39.84" height="40.26" rx="5.85"/><rect class="cls-3" x="973.69" y="612.65" width="39.84" height="40.26" rx="5.85"/><rect class="cls-3" x="1029.23" y="612.65" width="39.84" height="40.26" rx="5.85"/><rect class="cls-3" x="1084.78" y="612.65" width="39.84" height="40.26" rx="5.85"/><rect class="cls-3" x="1140.33" y="612.65" width="39.84" height="40.26" rx="5.85"/><rect class="cls-3" x="1195.88" y="612.65" width="39.84" height="40.26" rx="5.85"/><rect class="cls-3" x="699.17" y="716.74" width="39.84" height="40.26" rx="5.85"/><rect class="cls-3" x="753.93" y="716.74" width="39.84" height="40.26" rx="5.85"/><rect class="cls-3" x="808.68" y="716.74" width="39.84" height="40.26" rx="5.85"/><rect class="cls-3" x="787.13" y="824.03" width="39.84" height="40.26" rx="5.85"/><rect class="cls-3" x="863.44" y="716.74" width="39.84" height="40.26" rx="5.85"/><rect class="cls-3" x="918.2" y="716.74" width="39.84" height="40.26" rx="5.85"/><rect class="cls-3" x="972.96" y="716.74" width="39.84" height="40.26" rx="5.85"/><rect class="cls-3" x="1027.72" y="716.74" width="39.84" height="40.26" rx="5.85"/><rect class="cls-3" x="1082.48" y="716.74" width="39.84" height="40.26" rx="5.85"/><rect class="cls-3" x="1137.24" y="716.74" width="39.84" height="40.26" rx="5.85"/><rect class="cls-3" x="1192" y="716.74" width="39.84" height="40.26" rx="5.85"/><path class="cls-3" d="M875.43,833.63,836.23,872a7.45,7.45,0,0,0,5.21,12.77h61.27a7.45,7.45,0,0,0,6.45-11.16L887.1,835.24A7.46,7.46,0,0,0,875.43,833.63Z"/><path class="cls-3" d="M1056.66,833.63l39.2,38.39a7.45,7.45,0,0,1-5.21,12.77h-61.27a7.45,7.45,0,0,1-6.45-11.16L1045,835.24A7.46,7.46,0,0,1,1056.66,833.63Z"/><path class="cls-3" d="M746.57,458.88v48.8c0,13.5,9.27,24.44,20.71,24.44h395.49c11.44,0,20.71-10.94,20.71-24.44v-48.8Z"/><path class="cls-3" d="M1212.33,458.88H710.75a54.5,54.5,0,0,1-54.49-54.5L676,138.77a70.62,70.62,0,0,1,70.43-65.4h433.88a70.63,70.63,0,0,1,70.5,66.37l16,264.64A54.49,54.49,0,0,1,1212.33,458.88Z"/><rect class="cls-3" x="757.64" y="138.91" width="409.5" height="280.13" rx="6.91"/><path class="cls-1" d="M995.67,833.8V830l5-3.71v-.1l-5-3.71v-3.82l9.7,7.58Z"/><path class="cls-1" d="M935.53,818.65v3.82l-4.95,3.71v.1l4.95,3.71v3.81l-9.7-7.57Z"/><path class="cls-1" d="M973.18,796.16h-3.81l-3.72-4.95h-.1l-3.71,4.95H958l7.57-9.7Z"/><path class="cls-1" d="M958,856.3h3.81l3.71,5h.1l3.72-5h3.81L965.6,866Z"/><path class="cls-1" d="M733.67,689.83l-1.58,4.63h-3.31L736,674.89h3.42l7.18,19.57h-3.32l-1.58-4.63Zm7.12-2.7-3.06-9.25h-.06l-3.09,9.25Z"/><path class="cls-1" d="M802.52,689.15c0,3.12-2.35,5.72-7.28,5.72s-8.42-2.49-8.62-6.92h3.26c.17,2.49,1.86,4.13,5.36,4.13,2.91,0,4-1.29,4-2.79,0-2.33-1.67-2.77-5.53-3.72-3.07-.77-6.38-2-6.38-5.67,0-3.47,2.69-5.42,7-5.42s7.41,2.25,7.69,6.27h-3.26c-.3-2.27-1.73-3.48-4.43-3.48-2.33,0-3.73.88-3.73,2.33,0,2.13,1.84,2.52,4.57,3.2C799.35,683.87,802.52,684.77,802.52,689.15Z"/><path class="cls-1" d="M845.24,674.89h7.61c5.39,0,8.7,3.51,8.7,9.8s-3.2,9.77-8.62,9.77h-7.69Zm3.26,16.81h4.18c4.38,0,5.61-3.26,5.61-7s-1.23-7-5.61-7H848.5Z"/><path class="cls-1" d="M915.1,683.35v2.79h-8.46v8.32h-3.25V674.89h13.68v2.77H906.64v5.69Z"/><path class="cls-1" d="M965.4,677.27c-4.19,0-5.91,3.73-5.91,7.39s1.34,7.42,5.8,7.42a5.29,5.29,0,0,0,5.58-5.25h-5.53V684.2h8.84v10.26h-2.24l-.71-2.68h-.06a6.67,6.67,0,0,1-6.1,3.09c-5.67,0-8.84-4.3-8.84-10.21s3.56-10.18,9.2-10.18c5.09,0,7.82,2.77,8.43,6.52H970.6C970.11,678.67,968.3,677.27,965.4,677.27Z"/><path class="cls-1" d="M1018.09,674.89V683h9.25v-8.1h3.26v19.57h-3.26v-8.67h-9.25v8.67h-3.25V674.89Z"/><path class="cls-1" d="M1077.85,694.87c-4.7,0-6-3.17-6-6.54v-.9h3.1v.9c0,2.19.38,3.75,2.84,3.75s2.88-1.56,2.88-3.75V674.89h3.23v13.44C1083.88,691.7,1082.56,694.87,1077.85,694.87Z"/><path class="cls-1" d="M1132.39,674.89v9.66l8.87-9.66h3.89l-7.61,8.29,8.07,11.28h-3.8l-6.41-9-3,3.23v5.77h-3.25V674.89Z"/><path class="cls-1" d="M1190.82,674.89V691.7h9.77v2.76h-13V674.89Z"/><path class="cls-1" d="M723.3,640.27l2.19,2.19-1.92,1.92-2.27-2.27a9.88,9.88,0,0,1-5.39,1.5c-5.91,0-9.61-4.32-9.61-10.21s3.7-10.18,9.61-10.18,9.6,4.3,9.6,10.18A10.89,10.89,0,0,1,723.3,640.27Zm-4.08-.27-2.66-2.66,1.92-1.91,2.63,2.65a9,9,0,0,0,1.15-4.68c0-3.94-1.87-7.39-6.35-7.39s-6.38,3.45-6.38,7.39,1.89,7.42,6.38,7.42A6.52,6.52,0,0,0,719.22,640Z"/><path class="cls-1" d="M728.44,565.12v17.35h-2.91V569.89c-1,1-2.18,1-3.64,1v-2.08c3.14,0,4-1.56,4.22-3.7Z"/><path class="cls-1" d="M772.87,584.13c0-3.75,2-6.53,6.45-6.53,3.21,0,5.75,1.91,5.75,5.22,0,5.52-7.41,6.45-8.84,10v.05h8.66v2.46H772.44c0-3.06,1.83-5.3,4.49-7,3.19-2.11,5.22-2.94,5.22-5.4a2.61,2.61,0,0,0-2.91-2.86c-2.58,0-3.56,1.66-3.56,4Z"/><path class="cls-1" d="M816.56,556.3c0-3.24,2.21-5.63,6.55-5.63,3.06,0,5.78,1.74,5.78,4.8a3.8,3.8,0,0,1-2.62,3.72v0a4,4,0,0,1,3.19,4.29c0,3.41-2.53,5.25-6.3,5.25-4.57,0-7-2.34-7-6.33h2.81c0,2.33,1.08,3.84,4,3.84,2.61,0,3.61-1,3.61-2.84,0-2.38-1.73-2.91-3.51-2.91H821.5v-2.31H823c1.81,0,3-.75,3-2.53,0-1.44-.9-2.54-3-2.54-2.74,0-3.62,1.43-3.62,3.14Z"/><path class="cls-1" d="M918.09,562.5a6.06,6.06,0,0,1-6.4,6.28c-4.24,0-6.55-2.52-6.65-5.5h2.89a3.27,3.27,0,0,0,3.61,3c2.14,0,3.64-1.31,3.64-3.82a3.14,3.14,0,0,0-3.49-3.46,4.24,4.24,0,0,0-3.41,1.51h-2.94l1.88-9.47h10v2.46h-7.8l-.93,4.65v.05a5.27,5.27,0,0,1,4-1.51A5.46,5.46,0,0,1,918.09,562.5Z"/><path class="cls-1" d="M1005.21,551.05v2.21c-3.94,3.29-6.6,9.62-6.6,15.14h-3.06a22.37,22.37,0,0,1,6.5-14.84v0H993v-2.46Z"/><path class="cls-1" d="M1088.27,562.52a5.49,5.49,0,0,1-5.75-5.77,5.89,5.89,0,0,1,6.27-6.08c5.07,0,6.86,3.8,6.86,9,0,5.93-2.49,9.12-6.86,9.12A5.58,5.58,0,0,1,1083,564h2.92a2.64,2.64,0,0,0,2.91,2.38c3.14,0,3.86-2.91,3.91-6.08v0A5,5,0,0,1,1088.27,562.52Zm-2.92-5.92a3.26,3.26,0,0,0,3.39,3.54,3.52,3.52,0,0,0,3.84-3.59,3.36,3.36,0,0,0-3.69-3.49A3.3,3.3,0,0,0,1085.35,556.6Z"/><path class="cls-1" d="M867.92,595.32v-3.94h-8.21v-2.71l8.21-10.7h2.91v10.95h2.44v2.46h-2.44v3.94Zm-5.62-6.4h5.62v-7.33Z"/><path class="cls-1" d="M956.83,583.85a5.49,5.49,0,0,1,5.75,5.77,5.9,5.9,0,0,1-6.28,6.08c-5.07,0-6.85-3.79-6.85-9,0-5.93,2.48-9.11,6.85-9.11a5.58,5.58,0,0,1,5.8,4.77h-2.91a2.66,2.66,0,0,0-2.92-2.39c-3.13,0-3.86,2.92-3.91,6.08v.05A5,5,0,0,1,956.83,583.85Zm2.91,5.92a3.26,3.26,0,0,0-3.39-3.54,3.52,3.52,0,0,0-3.84,3.59,3.36,3.36,0,0,0,3.69,3.49A3.3,3.3,0,0,0,959.74,589.77Z"/><path class="cls-1" d="M1040.46,586.08V586a4,4,0,0,1-2.39-3.69c0-3,2.49-4.74,5.88-4.74s5.87,1.75,5.87,4.74a4,4,0,0,1-2.38,3.69v.05c1.63.73,3.23,2,3.23,4.35,0,3.51-2.93,5.27-6.72,5.27s-6.71-1.76-6.71-5.27C1037.24,588,1038.8,586.81,1040.46,586.08Zm7.3,4.17c0-1.88-1.45-3-3.81-3s-3.82,1.16-3.82,3,1.48,3.06,3.82,3.06S1047.76,592.16,1047.76,590.25Zm-.68-7.78c0-1.66-1.2-2.56-3.13-2.56s-3.14.9-3.14,2.56S1042,585,1044,585,1047.08,584.15,1047.08,582.47Z"/><path class="cls-1" d="M1126.78,586.66c0-4.92,2.08-9.06,7-9.06s7,4.14,7,9.06-2.08,9-7,9S1126.78,591.58,1126.78,586.66Zm11,0c0-3.62-1-6.58-4.07-6.58s-4.09,3-4.09,6.58,1,6.55,4.09,6.55S1137.82,590.28,1137.82,586.66Z"/><path class="cls-1" d="M1182.77,575.55v0a2.39,2.39,0,0,1,2,2.56c0,2-1.39,3.05-3.55,3.05h-4.74V570.74H1181c2.15,0,3.39,1,3.39,2.63A2.14,2.14,0,0,1,1182.77,575.55Zm-1.83-.49c1.24,0,1.71-.49,1.71-1.41s-.57-1.44-1.61-1.44h-2.79v2.85Zm-2.69,4.66h2.86c1.5,0,2-.71,2-1.69a1.56,1.56,0,0,0-1.75-1.66h-3.06Z"/><path class="cls-1" d="M1187.8,570.74v5.16l4.74-5.16h2.08l-4.07,4.43,4.32,6h-2l-3.43-4.81-1.61,1.73v3.08h-1.74V570.74Z"/><path class="cls-1" d="M1203.15,578.36c0,1.66-1.26,3-3.89,3s-4.5-1.33-4.61-3.7h1.74c.09,1.33,1,2.21,2.87,2.21,1.55,0,2.15-.69,2.15-1.49,0-1.24-.89-1.48-3-2-1.64-.41-3.41-1-3.41-3s1.43-2.89,3.71-2.89,4,1.19,4.11,3.35h-1.74c-.16-1.22-.92-1.86-2.37-1.86-1.24,0-2,.47-2,1.24,0,1.14,1,1.35,2.44,1.71C1201.46,575.53,1203.15,576,1203.15,578.36Z"/><path class="cls-1" d="M1204.52,570.74H1209c2,0,3.46.93,3.46,3.13S1211,577,1209,577h-2.7v4.18h-1.74Zm1.74,4.78h2.63c1.17,0,1.78-.5,1.78-1.65s-.61-1.66-1.78-1.66h-2.63Z"/><path class="cls-1" d="M763.25,623.63l3.34,15.16h0l3.94-15.16h3.34l4,15.16h.05l3.34-15.16h3.34l-4.9,19.57H776.3l-4-15.33h-.06l-4,15.33h-3.45l-4.87-19.57Z"/><path class="cls-1" d="M833.75,631.71v2.79h-9.56v5.94h11.17v2.76H820.94V623.63h14.15v2.76h-10.9v5.32Z"/><path class="cls-1" d="M875.3,623.63h8.35c4,0,6.63,2,6.63,5.61a4.54,4.54,0,0,1-3.64,4.87v.06c4.51.85,2.87,8.51,3.91,8.84v.19h-3.42c-.91-.82.93-7.55-3.78-7.55h-4.79v7.55H875.3Zm3.26,9.23H883c2,0,4.08-.39,4.08-3.24s-2.09-3.23-4.08-3.23h-4.41Z"/><path class="cls-1" d="M936.65,626.39h-6.26v-2.76h15.76v2.76h-6.24V643.2h-3.26Z"/><path class="cls-1" d="M988.36,623.63l5.06,9.09h.06l5.09-9.09H1002l-6.95,11.8v7.77h-3.26v-7.77l-7-11.8Z"/><path class="cls-1" d="M1049.22,643.61c-5.45,0-7.72-2.82-7.72-7.09V623.63h3.26v12.89c0,3,1.48,4.3,4.46,4.3s4.49-1.34,4.49-4.3V623.63h3.23v12.89C1056.94,640.79,1054.67,643.61,1049.22,643.61Z"/><path class="cls-1" d="M1106.64,623.63V643.2h-3.25V623.63Z"/><path class="cls-1" d="M1150.53,633.4c0-5.88,3.69-10.18,9.6-10.18s9.61,4.3,9.61,10.18-3.72,10.21-9.61,10.21S1150.53,639.29,1150.53,633.4Zm16,0c0-3.94-1.86-7.39-6.35-7.39s-6.37,3.45-6.37,7.39,1.89,7.42,6.37,7.42S1166.48,637.37,1166.48,633.4Z"/><path class="cls-1" d="M1210.74,623.63h8.32c3.75,0,6.46,1.75,6.46,5.86s-2.71,5.88-6.46,5.88H1214v7.83h-3.26Zm3.26,9h4.92c2.2,0,3.35-.93,3.35-3.09s-1.15-3.1-3.35-3.1H1214Z"/><path class="cls-1" d="M716.63,737v1.4a13.38,13.38,0,0,0-4.2,9.62h-1.94a14.23,14.23,0,0,1,4.13-9.43v0h-5.77V737Z"/><path class="cls-1" d="M724,739.07h-2l5.69-14.69h2Z"/><path class="cls-1" d="M706.37,695.8h2L714,710.49h-2Z"/><path class="cls-1" d="M782,727.72v2.77l-11,14v.06h11.25v2.76H767.05v-2.76l11-14v0H767.6v-2.77Z"/><path class="cls-1" d="M821.33,727.72h3.53l4.43,7.23h0l4.46-7.23h3.53l-6.13,9.53,6.62,10H834l-4.68-7.63h0l-4.65,7.63h-3.8l6.62-10Z"/><path class="cls-1" d="M821.25,791.33c0,1.8-1.36,3.3-4.21,3.3s-4.86-1.44-5-4H814C814,792.07,815,793,817,793c1.68,0,2.33-.75,2.33-1.62,0-1.34-1-1.59-3.2-2.14-1.77-.45-3.68-1.13-3.68-3.28s1.55-3.13,4-3.13,4.28,1.3,4.44,3.62h-1.88c-.18-1.31-1-2-2.56-2-1.35,0-2.15.51-2.15,1.35,0,1.23,1.06,1.45,2.64,1.85C819.41,788.27,821.25,788.8,821.25,791.33Z"/><path class="cls-1" d="M822.72,783.09h4.8c2.17,0,3.73,1,3.73,3.38s-1.56,3.4-3.73,3.4H824.6v4.52h-1.88Zm1.88,5.17h2.85c1.26,0,1.92-.54,1.92-1.79s-.66-1.79-1.92-1.79H824.6Z"/><path class="cls-1" d="M833.51,791.72l-.91,2.67h-1.92l4.16-11.3h2l4.14,11.3H839l-.91-2.67Zm4.11-1.56-1.77-5.35h0L834,790.16Z"/><path class="cls-1" d="M846.27,784.46c-2.44,0-3.4,2-3.4,4.27s1,4.29,3.4,4.29a2.8,2.8,0,0,0,3-2.75h1.89a4.6,4.6,0,0,1-4.87,4.36c-3.26,0-5.32-2.48-5.32-5.9s2.06-5.88,5.32-5.88a4.59,4.59,0,0,1,4.87,4.13H849.3A2.84,2.84,0,0,0,846.27,784.46Z"/><path class="cls-1" d="M860,787.75v1.61h-5.51v3.44h6.45v1.59h-8.33v-11.3h8.17v1.59h-6.29v3.07Z"/><path class="cls-1" d="M1049.25,860.78l3.06,9.18h.06l6.8-18.3h3.65l-8.8,22.78h-3.34l-5-13.66Z"/><path class="cls-1" d="M1071.55,787.75v1.61H1066v3.44h6.45v1.59h-8.33v-11.3h8.17v1.59H1066v3.07Z"/><path class="cls-1" d="M1074,783.09h2.1l5.09,8.49h0v-8.49h1.89v11.3H1081l-5.11-8.45h0v8.45H1074Z"/><path class="cls-1" d="M1087.67,784.68h-3.62v-1.59h9.1v1.59h-3.6v9.71h-1.88Z"/><path class="cls-1" d="M1101.83,787.75v1.61h-5.52v3.44h6.45v1.59h-8.33v-11.3h8.17v1.59h-6.29v3.07Z"/><path class="cls-1" d="M1104.29,783.09h4.82c2.33,0,3.83,1.18,3.83,3.24a2.62,2.62,0,0,1-2.1,2.81v0c2.61.49,1.66,4.91,2.26,5.1v.11h-2c-.52-.47.54-4.36-2.18-4.36h-2.76v4.36h-1.89Zm1.89,5.33h2.54c1.15,0,2.36-.23,2.36-1.87s-1.21-1.87-2.36-1.87h-2.54Z"/><path class="cls-1" d="M1169.36,783.09v4.68h5.35v-4.68h1.88v11.3h-1.88v-5h-5.35v5h-1.88v-11.3Z"/><path class="cls-1" d="M1178.17,788.73c0-3.4,2.13-5.88,5.54-5.88s5.55,2.48,5.55,5.88-2.15,5.9-5.55,5.9S1178.17,792.13,1178.17,788.73Zm9.21,0c0-2.27-1.07-4.27-3.67-4.27s-3.68,2-3.68,4.27,1.09,4.29,3.68,4.29S1187.38,791,1187.38,788.73Z"/><path class="cls-1" d="M1190.76,783.09h2.44l3.16,8.69h0l3.15-8.69H1202v11.3h-1.83v-8.57h0l-3,8.57h-1.5l-3-8.57h0v8.57h-1.84Z"/><path class="cls-1" d="M1211.3,787.75v1.61h-5.52v3.44h6.45v1.59h-8.33v-11.3h8.17v1.59h-6.29v3.07Z"/><path class="cls-1" d="M1156.89,839.51h-3.62v-1.59h9.11v1.59h-3.61v9.71h-1.88Z"/><path class="cls-1" d="M1164.19,846.55l-.91,2.67h-1.92l4.16-11.3h2l4.14,11.3h-1.92l-.91-2.67Zm4.11-1.57-1.77-5.34h0l-1.79,5.34Z"/><path class="cls-1" d="M1179.48,843.12v0a2.57,2.57,0,0,1,2.19,2.76c0,2.19-1.5,3.31-3.84,3.31h-5.12v-11.3h4.85c2.33,0,3.67,1,3.67,2.84A2.33,2.33,0,0,1,1179.48,843.12Zm-2-.52c1.34,0,1.85-.54,1.85-1.54s-.62-1.55-1.74-1.55h-3v3.09Zm-2.91,5h3.1c1.61,0,2.1-.76,2.1-1.81a1.69,1.69,0,0,0-1.9-1.81h-3.3Z"/><path class="cls-1" d="M796.92,846.55l-.92,2.67h-1.91l4.15-11.3h2l4.14,11.3h-1.91l-.92-2.67ZM801,845l-1.76-5.34h0L797.44,845Z"/><path class="cls-1" d="M807.31,837.92v9.7H813v1.6h-7.53v-11.3Z"/><path class="cls-1" d="M815.64,839.51H812v-1.59h9.11v1.59h-3.6v9.71h-1.89Z"/><path class="cls-1" d="M742,870.17a6.23,6.23,0,0,1-.23,1.73,6.51,6.51,0,0,1-.65,1.56,7.27,7.27,0,0,1-1,1.32,6.8,6.8,0,0,1-1.32,1,6,6,0,0,1-1.56.66,6.55,6.55,0,0,1-1.72.23,6.62,6.62,0,0,1-1.73-.23,6.08,6.08,0,0,1-1.55-.66,6.8,6.8,0,0,1-1.32-1,7.27,7.27,0,0,1-1-1.32,7,7,0,0,1-.66-1.56,6.62,6.62,0,0,1-.23-1.73,6.55,6.55,0,0,1,.23-1.72,6.78,6.78,0,0,1,.66-1.56,7.2,7.2,0,0,1,1-1.31,6.58,6.58,0,0,1,2.87-1.68,6.62,6.62,0,0,1,1.73-.23,6.55,6.55,0,0,1,1.72.23,6.78,6.78,0,0,1,1.56.66,6.85,6.85,0,0,1,1.32,1,7.2,7.2,0,0,1,1,1.31,6.44,6.44,0,0,1,.65,1.55A6.23,6.23,0,0,1,742,870.17Zm-6.45-4.94a.32.32,0,0,0,0-.2.26.26,0,0,0-.13-.09.33.33,0,0,0-.2,0,4.88,4.88,0,0,0-1.93.5,5.28,5.28,0,0,0-1.57,1.14,5.48,5.48,0,0,0-1,1.64,5.23,5.23,0,0,0-.38,2,5.12,5.12,0,0,0,.4,2.06,5.46,5.46,0,0,0,1.09,1.64,5.25,5.25,0,0,0,1.6,1.1,5.32,5.32,0,0,0,1.93.48.52.52,0,0,0,.15-.06.4.4,0,0,0,.1-.12.3.3,0,0,0,0-.18Z"/><path class="cls-1" d="M727.58,841.07v-2h2.64v2Zm3.06,5.37L729.22,845l1.87-1.89,1.43,1.43Zm.55-9.38-1.89-1.87,1.43-1.42,1.88,1.88Zm8.44,3a4.13,4.13,0,0,1-.32,1.61,4.23,4.23,0,0,1-2.21,2.22,4.07,4.07,0,0,1-1.64.33,4.22,4.22,0,0,1-1.62-.32,4.3,4.3,0,0,1-1.32-.9,4.24,4.24,0,0,1-.88-1.32,4,4,0,0,1-.33-1.62,4,4,0,0,1,.33-1.63,3.89,3.89,0,0,1,.89-1.32,4.27,4.27,0,0,1,1.32-.89,4.13,4.13,0,0,1,1.61-.32,4.06,4.06,0,0,1,1.63.33,4.27,4.27,0,0,1,1.32.89,4.16,4.16,0,0,1,1.22,2.94Zm-2,0a2.22,2.22,0,0,0-.17-.85,2.07,2.07,0,0,0-.45-.68,2.15,2.15,0,0,0-.68-.46,2.24,2.24,0,0,0-.86-.17,2.12,2.12,0,0,0-.83.17,2,2,0,0,0-.68.47,2,2,0,0,0-.46.68,2.14,2.14,0,0,0,0,1.67,2.3,2.3,0,0,0,1.15,1.15,2,2,0,0,0,.82.17,2.14,2.14,0,0,0,.84-.17,2,2,0,0,0,.69-.46,2.14,2.14,0,0,0,.63-1.52Zm-3.06-5.23v-2.63h2v2.63Zm0,13.14v-2.65h2V848Zm5.36-10.85-1.42-1.43,1.88-1.88,1.42,1.42Zm.53,9.19-1.86-1.88,1.42-1.42,1.85,1.87Zm.27-5.28v-2h2.63v2Z"/><path class="cls-1" d="M728.17,791.33c0,1.8-1.36,3.3-4.21,3.3s-4.86-1.44-5-4h1.88c.1,1.44,1.08,2.39,3.1,2.39,1.68,0,2.33-.75,2.33-1.62,0-1.34-1-1.59-3.2-2.14-1.77-.45-3.68-1.13-3.68-3.28s1.55-3.13,4-3.13,4.28,1.3,4.44,3.62H726c-.18-1.31-1-2-2.56-2-1.35,0-2.16.51-2.16,1.35,0,1.23,1.07,1.45,2.65,1.85C726.33,788.27,728.17,788.8,728.17,791.33Z"/><path class="cls-1" d="M731.52,783.09v4.68h5.34v-4.68h1.88v11.3h-1.88v-5h-5.34v5h-1.88v-11.3Z"/><path class="cls-1" d="M742.58,783.09v11.3H740.7v-11.3Z"/><path class="cls-1" d="M751.29,788v1.62h-4.88v4.8h-1.88v-11.3h7.9v1.59h-6V788Z"/><path class="cls-1" d="M756.81,784.68h-3.62v-1.59h9.1v1.59h-3.6v9.71h-1.88Z"/><path class="cls-1" d="M884.39,730.1c-4.21,0-5.88,3.54-5.88,7.39s1.67,7.42,5.88,7.42a4.87,4.87,0,0,0,5.26-4.76h3.25c-.43,4.4-3.45,7.55-8.43,7.55-5.63,0-9.19-4.3-9.19-10.21s3.56-10.18,9.19-10.18c5,0,8,3.15,8.43,7.15h-3.25A5,5,0,0,0,884.39,730.1Z"/><path class="cls-1" d="M933.77,727.72l5,16h0l5-16h3.45l-6.67,19.57H937l-6.67-19.57Z"/><path class="cls-1" d="M998,736.73v0a4.47,4.47,0,0,1,3.8,4.79c0,3.78-2.6,5.72-6.65,5.72H986.3V727.72h8.4c4,0,6.35,1.78,6.35,4.93A4,4,0,0,1,998,736.73Zm-3.42-.91c2.32,0,3.2-.93,3.2-2.65s-1.07-2.68-3-2.68h-5.23v5.33Zm-5,8.71h5.37c2.79,0,3.64-1.32,3.64-3.15,0-2-1.23-3.12-3.29-3.12h-5.72Z"/><path class="cls-1" d="M1040.16,727.72h3.64l8.81,14.7h.06v-14.7h3.25v19.57h-3.61l-8.84-14.64h0v14.64h-3.26Z"/><path class="cls-1" d="M1092.91,727.72h4.22l5.47,15.06h.05l5.45-15.06h4.22v19.57h-3.18V732.46h-.05l-5.18,14.83h-2.6l-5.17-14.83h-.05v14.83h-3.18Z"/><path class="cls-1" d="M1148.88,744.56a1.71,1.71,0,0,1,1.78-1.84c1.23,0,1.86,1,1.86,2.52,0,2-1,4.27-3.37,4.65v-1.56a2,2,0,0,0,1.67-2.08A1.56,1.56,0,0,1,1148.88,744.56Z"/><path class="cls-1" d="M1167,731.43a1.71,1.71,0,0,1-1.78,1.83c-1.23,0-1.86-1-1.86-2.52,0-2,1-4.27,3.36-4.65v1.56a2,2,0,0,0-1.67,2.08A1.57,1.57,0,0,1,1167,731.43Z"/><path class="cls-1" d="M1163.42,707.19a1.71,1.71,0,0,1,1.77-1.84c1.24,0,1.86,1,1.86,2.52,0,2-1,4.27-3.36,4.65V711a2,2,0,0,0,1.67-2.08A1.56,1.56,0,0,1,1163.42,707.19Zm0-8.46a1.77,1.77,0,1,1,3.53,0,1.77,1.77,0,1,1-3.53,0Z"/><path class="cls-1" d="M738.57,597.86V596H742v-3.52h1.82V596h3.41v1.83H743.8v3.52H742v-3.52Z"/><path class="cls-1" d="M807.75,598.36v1.82h-9.31v-1.82Z"/><path class="cls-1" d="M838.93,582.92v1.83h-8.55v-1.83Zm0,3.28V588h-8.55V586.2Z"/><path class="cls-1" d="M893.57,590.68l-.19,4.32h-1l-.18-4.32Zm2.28,0-.18,4.32h-1l-.18-4.32Z"/><path class="cls-1" d="M882.35,567.13v1.41h-.84v-1.45c-2-.26-3.48-1.75-3.57-4.49h1.63c.07,1.53.77,2.4,1.94,2.63v-4.06l-.12-.06c-1.46-.54-3.07-1.34-3.07-3.69,0-2.12,1.23-3.54,3.19-3.61v-1.08h.84v1.13c1.68.3,2.93,1.75,3,4.14h-1.62a2.33,2.33,0,0,0-1.4-2.25v3.63c1.82.72,3.26,1.41,3.26,4.1A3.34,3.34,0,0,1,882.35,567.13Zm-.84-8.09v-3.39a1.53,1.53,0,0,0-1.58,1.57C879.93,558.24,880.57,558.65,881.51,559Zm2.48,4.47c0-1.08-.53-1.54-1.64-2v3.78A1.6,1.6,0,0,0,884,563.51Z"/><path class="cls-1" d="M793,563.87h0a2,2,0,0,1-1.89,1.43c-1.28,0-2.3-1.41-2.3-3.85s1.17-4.23,2.58-4.23a2,2,0,0,1,1.83,1.51h0l.14-1.38h1.27l-.44,4.67c-.13,1.27.18,1.94.85,1.94.83,0,1.37-1,1.37-3.07,0-3.36-1.7-5.91-4.52-5.91s-4.74,3-4.74,6.32c0,3.67,1.91,6.11,4.6,6.11a4.94,4.94,0,0,0,2.5-.56l.4,1.19a4.91,4.91,0,0,1-2.9.8c-3.4,0-5.75-2.94-5.75-7.54,0-4.23,2.45-7.75,5.89-7.75s5.63,3.29,5.63,7.28c0,3.48-1.35,4.55-2.58,4.55A2.08,2.08,0,0,1,793,563.87Zm0-2.89c0-1.49-.56-2.22-1.33-2.22-1,0-1.6,1.16-1.6,2.78,0,1.27.4,2.21,1.33,2.21C792.47,563.75,793,562.54,793,561Z"/><path class="cls-1" d="M850.29,548l-.4,2.71h1.44l-.22,1.6h-1.47l-.54,3.5h-1.2l.53-3.5h-1.54l-.53,3.5h-1.2l.53-3.5h-1.25l.23-1.6h1.27l.41-2.71H845l.24-1.6h1.38l.54-3.46h1.2l-.53,3.46h1.54l.52-3.46h1.21l-.53,3.46h1.32l-.24,1.6Zm-1.21,0h-1.53l-.41,2.71h1.53Z"/><path class="cls-1" d="M932.09,546.33c0-2,.76-3.71,2.36-3.71s2.35,1.71,2.35,3.71-.73,3.7-2.35,3.7S932.09,548.34,932.09,546.33Zm3.46,0c0-1.42-.34-2.28-1.1-2.28s-1.11.86-1.11,2.28.33,2.29,1.11,2.29S935.55,547.74,935.55,546.33Zm.06,9.44h-1.12l5.08-12.87h1.12Zm2.77-3.43c0-2,.75-3.71,2.35-3.71s2.35,1.7,2.35,3.71-.73,3.71-2.35,3.71S938.38,554.34,938.38,552.34Zm3.46,0c0-1.41-.34-2.29-1.11-2.29s-1.11.88-1.11,2.29.35,2.28,1.11,2.28S941.84,553.76,941.84,552.34Z"/><path class="cls-1" d="M1028.37,555.77l-.67-1.08a3.46,3.46,0,0,1-2.69,1.36c-2,0-3.13-1.53-3.13-3.56a4.62,4.62,0,0,1,2.1-3.86,5.92,5.92,0,0,1-1.18-3.27c0-1.57.84-3.17,2.56-3.19s2.56,1.62,2.56,3.19-.75,2.44-2.07,3.44l1.83,3a11.09,11.09,0,0,0,.55-2.39h1.39a12.43,12.43,0,0,1-1,3.88l1.57,2.53Zm-1.53-2.48-2.19-3.57a3.32,3.32,0,0,0-1.26,2.58,1.74,1.74,0,0,0,1.72,1.91A2.22,2.22,0,0,0,1026.84,553.29Zm-2.61-7.8a4.24,4.24,0,0,0,.94,2.23,2.76,2.76,0,0,0,1.32-2.23c0-.8-.39-1.47-1.13-1.47S1024.23,544.69,1024.23,545.49Z"/><path class="cls-1" d="M1019.34,577.13V579h-1.55v12.8h1.55v1.82h-3.18V577.13Z"/><path class="cls-1" d="M1070.63,606.29h-3.18v-1.82H1069v-12.8h-1.56v-1.82h3.18Z"/><path class="cls-1" d="M1104,582.85v-2.1c0-3.13.89-3.62,2.67-3.62h.3V579h-.3c-.63,0-1.05.37-1.05,1.73v2.65a2.17,2.17,0,0,1-.87,2v0a2.18,2.18,0,0,1,.87,2V590c0,1.43.42,1.81,1.05,1.81h.3v1.82h-.3c-1.78,0-2.67-.56-2.67-3.69v-2c0-1-.15-1.6-.86-1.6v-1.83C1103.85,584.45,1104,583.8,1104,582.85Z"/><path class="cls-1" d="M1160.27,599c-.71,0-.87.66-.87,1.61v2c0,3.12-.88,3.68-2.65,3.68h-.31v-1.82h.31c.63,0,1-.37,1-1.81v-2.57a2.18,2.18,0,0,1,.86-2v0a2.16,2.16,0,0,1-.86-2V593.4c0-1.36-.42-1.73-1-1.73h-.31v-1.82h.31c1.77,0,2.65.48,2.65,3.61v2.1c0,1,.16,1.61.87,1.59Z"/><path class="cls-1" d="M1115.17,541.61a22.07,22.07,0,0,0,0,16.45h-1.29a18.66,18.66,0,0,1,0-16.45Z"/><path class="cls-1" d="M1157.31,560.94a17.79,17.79,0,0,1-1.92,8.2h-1.29a21.94,21.94,0,0,0,0-16.45h1.29A17.65,17.65,0,0,1,1157.31,560.94Z"/><path class="cls-1" d="M971.26,560.45l2.42,5.12h-1.53l-1.54-3.37h0l-1.53,3.37h-1.53l2.43-5.12Z"/><path class="cls-1" d="M1059.31,563.64l.88,1.67-.77.75-.88-1.77-.88,1.77-.79-.75.9-1.67-1.4-.58.31-1.16,1.38.66v-2.11h1v2.11l1.37-.66.31,1.16Z"/><path class="cls-1" d="M925,586.52v-2l5.71-3.19v1.85l-4.49,2.34v0l4.49,2.33v1.83Z"/><path class="cls-1" d="M979.4,600.58l4.5-2.33v0l-4.5-2.35V594l5.71,3.18v2l-5.71,3.17Z"/><path class="cls-1" d="M749.12,562.53a1.2,1.2,0,1,1,2.4,0,1.2,1.2,0,1,1-2.4,0Zm2.27-12.26v3.52l-.52,6.07h-1.1l-.52-6.07v-3.52Z"/><path class="cls-1" d="M1177.35,760.08a2.81,2.81,0,1,1,2.8,3A2.74,2.74,0,0,1,1177.35,760.08Zm4.65,0c0-1.15-.54-2.15-1.85-2.15s-1.86,1-1.86,2.15.55,2.16,1.86,2.16S1182,761.24,1182,760.08Z"/><path class="cls-1" d="M1187.12,759.7v.81h-2.46v2.43h-1v-5.71h4V758h-3v1.66Z"/><path class="cls-1" d="M1191.8,759.7v.81h-2.46v2.43h-.95v-5.71h4V758h-3v1.66Z"/><path class="cls-1" d="M737,758.25c-1.23,0-1.71,1-1.71,2.15s.48,2.16,1.71,2.16a1.41,1.41,0,0,0,1.53-1.39h1a2.32,2.32,0,0,1-2.46,2.21,3,3,0,0,1,0-5.94,2.31,2.31,0,0,1,2.46,2.08h-1A1.43,1.43,0,0,0,737,758.25Z"/><path class="cls-1" d="M741,761.91l-.46,1.35h-1l2.09-5.7h1l2.09,5.7h-1l-.46-1.35Zm2.08-.79-.9-2.7h0l-.9,2.7Z"/><path class="cls-1" d="M745.33,757.56h2.42c1.09,0,1.88.51,1.88,1.7s-.79,1.72-1.88,1.72h-1.47v2.28h-.95Zm.95,2.6h1.43c.64,0,1-.27,1-.9s-.33-.9-1-.9h-1.43Z"/><path class="cls-1" d="M754.57,761.71c0,.91-.68,1.67-2.12,1.67a2.22,2.22,0,0,1-2.51-2h.95c.05.72.54,1.2,1.56,1.2.85,0,1.18-.37,1.18-.81,0-.68-.49-.81-1.62-1.09-.89-.22-1.85-.56-1.85-1.65s.78-1.57,2-1.57a2,2,0,0,1,2.24,1.82h-.95c-.09-.66-.5-1-1.29-1s-1.08.25-1.08.68c0,.62.53.73,1.33.93C753.65,760.17,754.57,760.43,754.57,761.71Z"/><path class="cls-1" d="M850.23,761.71c0,.91-.68,1.67-2.12,1.67a2.22,2.22,0,0,1-2.51-2h.95c.05.72.54,1.2,1.56,1.2.85,0,1.18-.37,1.18-.81,0-.68-.49-.81-1.61-1.09-.9-.22-1.86-.56-1.86-1.65s.78-1.57,2-1.57a2,2,0,0,1,2.24,1.82h-.94c-.09-.66-.51-1-1.3-1s-1.08.25-1.08.68c0,.62.53.73,1.33.93C849.31,760.17,850.23,760.43,850.23,761.71Z"/><path class="cls-1" d="M851,757.56h1.23l1.59,4.38h0l1.59-4.38h1.22v5.7h-.92v-4.33h0l-1.5,4.33h-.76l-1.51-4.33h0v4.33H851Z"/><path class="cls-1" d="M861,760.18h0a1.31,1.31,0,0,1,1.11,1.4c0,1.1-.76,1.67-1.94,1.67h-2.59v-5.7h2.45c1.18,0,1.85.51,1.85,1.43A1.17,1.17,0,0,1,861,760.18Zm-1-.26c.68,0,.93-.28.93-.78s-.31-.78-.87-.78h-1.53v1.56Zm-1.47,2.53h1.57c.81,0,1.06-.38,1.06-.92a.86.86,0,0,0-1-.91h-1.67Z"/><path class="cls-1" d="M863.78,757.56v4.89h2.84v.81h-3.79v-5.7Z"/><path class="cls-1" d="M952.08,764h3.26c1.47,0,2.53.69,2.53,2.3s-1.06,2.3-2.53,2.3h-2v3.07h-1.27Zm1.27,3.51h1.93c.86,0,1.31-.37,1.31-1.21s-.45-1.22-1.31-1.22h-1.93Z"/><path class="cls-1" d="M962.12,764.91c-1.64,0-2.32,1.45-2.32,2.89s.52,2.91,2.27,2.91a2.08,2.08,0,0,0,2.19-2.06h-2.17v-1h3.47v4h-.88l-.28-1h0A2.63,2.63,0,0,1,962,771.8c-2.22,0-3.47-1.68-3.47-4s1.4-4,3.61-4a3,3,0,0,1,3.3,2.55h-1.28A1.85,1.85,0,0,0,962.12,764.91Z"/><path class="cls-1" d="M971.69,771.8c-2.14,0-3-1.1-3-2.78v-5h1.28v5c0,1.16.58,1.69,1.75,1.69s1.76-.53,1.76-1.69v-5h1.26v5C974.71,770.7,973.82,771.8,971.69,771.8Z"/><path class="cls-1" d="M975.91,764h3.26c1.47,0,2.53.69,2.53,2.3s-1.06,2.3-2.53,2.3h-2v3.07h-1.28Zm1.28,3.51h1.93c.86,0,1.31-.37,1.31-1.21s-.45-1.22-1.31-1.22h-1.93Z"/><path class="cls-1" d="M1153.82,873.36h0a1.31,1.31,0,0,1,1.11,1.4c0,1.1-.76,1.66-1.94,1.66h-2.59v-5.7h2.45c1.18,0,1.85.52,1.85,1.44A1.17,1.17,0,0,1,1153.82,873.36Zm-1-.27c.68,0,.93-.27.93-.77s-.31-.78-.87-.78h-1.53v1.55Zm-1.47,2.54h1.57c.81,0,1.06-.38,1.06-.92a.86.86,0,0,0-1-.91h-1.67Z"/><path class="cls-1" d="M1156.61,875.08l-.47,1.35h-1l2.1-5.7h1l2.09,5.7h-1l-.47-1.35Zm2.07-.78-.89-2.7h0l-.9,2.7Z"/><path class="cls-1" d="M1163.05,871.43c-1.23,0-1.72,1-1.72,2.15s.49,2.16,1.72,2.16a1.42,1.42,0,0,0,1.53-1.39h1a2.32,2.32,0,0,1-2.46,2.2,3,3,0,0,1,0-5.94,2.32,2.32,0,0,1,2.46,2.08h-1A1.44,1.44,0,0,0,1163.05,871.43Z"/><path class="cls-1" d="M1167.18,870.73v2.82l2.58-2.82h1.14l-2.22,2.42,2.35,3.28h-1.1l-1.87-2.62-.88.94v1.68h-1v-5.7Z"/><path class="cls-1" d="M1173,871.54h-1.83v-.81h4.6v.81H1174v4.89h-1Z"/><path class="cls-1" d="M1176.7,875.08l-.47,1.35h-1l2.1-5.7h1l2.09,5.7h-1l-.46-1.35Zm2.07-.78-.89-2.7h0l-.9,2.7Z"/><path class="cls-1" d="M1184.41,873.36h0a1.31,1.31,0,0,1,1.11,1.4c0,1.1-.76,1.66-1.93,1.66H1181v-5.7h2.45c1.17,0,1.85.52,1.85,1.44A1.18,1.18,0,0,1,1184.41,873.36Zm-1-.27c.68,0,.93-.27.93-.77s-.31-.78-.88-.78H1182v1.55Zm-1.47,2.54h1.56c.82,0,1.06-.38,1.06-.92a.85.85,0,0,0-1-.91H1182Z"/><path class="cls-1" d="M952.08,879.3h3.26c1.47,0,2.53.69,2.53,2.3s-1.06,2.3-2.53,2.3h-2V887h-1.27Zm1.27,3.51h1.93c.86,0,1.31-.37,1.31-1.21s-.45-1.22-1.31-1.22h-1.93Z"/><path class="cls-1" d="M962.12,880.23c-1.64,0-2.32,1.46-2.32,2.9s.52,2.91,2.27,2.91a2.08,2.08,0,0,0,2.19-2.06h-2.17v-1h3.47v4h-.88l-.28-1.05h0a2.63,2.63,0,0,1-2.39,1.21c-2.22,0-3.47-1.68-3.47-4s1.4-4,3.61-4a3,3,0,0,1,3.3,2.55h-1.28A1.85,1.85,0,0,0,962.12,880.23Z"/><path class="cls-1" d="M968.77,879.3h3c2.11,0,3.41,1.37,3.41,3.84s-1.25,3.83-3.37,3.83h-3Zm1.28,6.59h1.64c1.72,0,2.2-1.28,2.2-2.75s-.48-2.76-2.2-2.76h-1.64Z"/><path class="cls-1" d="M976.17,879.3h1.43l3.45,5.76h0V879.3h1.28V887h-1.42l-3.46-5.74h0V887h-1.28Z"/><path class="cls-1" d="M1218.24,698.73a1.77,1.77,0,1,1,3.53,0,1.77,1.77,0,1,1-3.53,0Zm0,8.4a1.77,1.77,0,1,1,3.53,0,1.77,1.77,0,1,1-3.53,0Z"/><path class="cls-1" d="M1202.85,744.5a1.77,1.77,0,1,1,3.53,0,1.77,1.77,0,1,1-3.53,0Z"/><path class="cls-1" d="M1223.15,726.85v2.68h-13.69v-2.68Z"/><path class="cls-1" d="M885.36,874.44h-2.65V863.05a1.32,1.32,0,0,0-1.33-1.33H868.69l5.26,5.62-1.89,1.8-8.1-8.75,8.1-8.73,1.89,1.8-5.26,5.6H884a1.34,1.34,0,0,1,1.34,1.33Z"/><polygon class="cls-1" points="1129.78 798.91 1112.71 798.91 1112.71 797.73 1104.05 800.05 1112.71 802.37 1112.71 801.19 1132.07 801.19 1132.07 789.77 1129.78 789.77 1129.78 798.91"/><polygon class="cls-1" points="1206.7 587.95 1188.48 587.95 1188.48 586.77 1179.83 589.09 1188.48 591.41 1188.48 590.24 1206.7 590.24 1206.7 587.95"/><path class="cls-1" d="M766.18,138.76H1158.6a8.54,8.54,0,0,1,8.54,8.54v18.48a0,0,0,0,1,0,0H757.64a0,0,0,0,1,0,0V147.3A8.54,8.54,0,0,1,766.18,138.76Z"/><path class="cls-1" d="M757.64,386.6h409.5a0,0,0,0,1,0,0v25.15a7,7,0,0,1-7,7H764.65a7,7,0,0,1-7-7V386.6A0,0,0,0,1,757.64,386.6Z"/><polygon class="cls-4" points="1152.11 391.75 1152.11 414.07 1163.38 402.8 1152.11 391.75"/><path d="M766.71,158.55v-1h-1v-1h-1v-1h-1v-8.08h1v-1h1v-1h1v-1h6.06v1h1v1h1v1h1v2h-2v-1h-1v-1h-1v-1h-4v1h-1v1h-1v6h1v1h1v1h4v-1h1v-1h1v-1h2v2h-1v1h-1v1h-1v1Z"/><path d="M779.81,158.55v-1h-1v-1h-1v-6.05h1v-1h1v-1h5.05v1h1v1h1v6.05h-1v1h-1v1Zm4-2v-1h1v-4h-1v-1h-3v1h-1v4h1v1Z"/><path d="M788.88,158.55V148.47h2v1h1v-1h3v1h2v-1h4v1h1v1h1v8.07h-2v-7.06h-1v-1h-2v1h-1v7.06h-2v-7.06h-1v-1h-2v1h-1v7.06Z"/><path d="M805,162.58V148.47h2v1h1v-1h4.05v1h1v1h1v6.05h-1v1h-1v1H808v-1h-1v5Zm6-6.05v-1h1v-4h-1v-1h-3v1h-1v4h1v1Z"/><path d="M818.1,158.55v-1h-1v-1h-1v-6.05h1v-1h1v-1h5v1h1v1h1v6.05h-1v1h-1v1Zm4-2v-1h1v-4h-1v-1h-3v1h-1v4h1v1Z"/><path d="M827.17,158.55V148.47h2v1h1v-1h3.53v1h1v1h1v8.07h-2v-7.06h-1v-1h-2.52v1h-1v7.06Z"/><path d="M837.74,147v-2h2v2Zm0,11.6V148.47h2v10.08Z"/><path d="M845.79,147v-2h2v2Zm0,11.6V148.47h2v10.08Z"/><path d="M849.82,158.55V144.43h2v14.12Z"/><path d="M857.87,158.55V148.47h2v1h1v-1h3v1h2v-1h4v1h1v1h1v8.07h-2v-7.06h-1v-1h-2v1h-1v7.06h-2v-7.06h-1v-1h-2v1h-1v7.06Z"/><path d="M876,158.55v-1h-1v-1h-1v-6.05h1v-1h1v-1h5v1h1v1h1V154H876v1.52h1v1h3v-1h3v1h-1v1h-1v1Zm5-6.05v-1h-1v-1h-3v1h-1v1Z"/><path d="M886.58,158.55v-1h-1v-1h-1v-1h3v1h3.53v-2h-3.53v-1h-2v-1h-1v-2h1v-1h1v-1h5v1h1v1h1v1h-3v-1h-3.53v2h3.53v1h2v1h1v2h-1v1h-1v1Z"/><path d="M897.16,158.55v-1h-1v-1h-1v-1h3v1h3.53v-2h-3.53v-1h-2v-1h-1v-2h1v-1h1v-1h5.05v1h1v1h1v1h-3v-1h-3.53v2h3.53v1h2v1h1v2h-1v1h-1v1Z"/><path d="M907.74,158.55v-1h-1v-1h-1v-2h1v-1h2v-1h4v-1h-1v-1h-3v1h-3v-1h1v-1h1v-1h5v1h1v1h1v8.07h-2v-1h-1v1Zm4-2v-1h1v-2h-1v1h-3.53v2Z"/><path d="M918.82,162.58v-1h-1v-1h-1v-1h3v1h3v-1h1v-2h-1v1h-4v-1h-1v-1h-1v-6.05h1v-1h1v-1h4v1h1v-1h2v12.09h-1v1h-1v1Zm4-6.05v-1h1v-4h-1v-1h-3v1h-1v4h1v1Z"/><path d="M929.9,162.58v-1h-1v-1h-1v-1h3v1h3v-1h1v-2h-1v1h-4v-1h-1v-1h-1v-6.05h1v-1h1v-1h4v1h1v-1h2v12.09h-1v1h-1v1Zm4-6.05v-1h1v-4h-1v-1h-3v1h-1v4h1v1Z"/><path d="M939,147v-2h2v2Zm0,11.6V148.47h2v10.08Z"/><path d="M945,158.55v-1h-1v-1h-1v-6.05h1v-1h1v-1h5v1h1v1h1v6.05h-1v1h-1v1Zm4-2v-1h1v-4h-1v-1h-3v1h-1v4h1v1Z"/><path class="cls-1" d="M766.71,188.74v-1h-1v-1h-1v-1h-1v-8.07h1v-1h1v-1h1v-1h6.06v1h1v1h1v1h1v7.56h-1v1.52h1v2h-2v-1h-1.51v1Zm5-2v-1h-1v-2h2v1h1v-6.05h-1v-1h-1v-1h-4v1h-1v1h-1v6.05h1v1h1v1Z"/><path class="cls-1" d="M779.81,188.74v-1h-1v-1h-1v-8.07h2v7.06h1v1h2.52v-1h1v-7.06h2v10.08h-2v-1h-1v1Z"/><path class="cls-1" d="M790.39,188.74v-1h-1v-1h-1v-6.06h1v-1h1v-1h5.05v1h1v1h1v3.53h-7.06v1.52h1v1h3v-1h3v1h-1v1h-1v1Zm5.05-6.05v-1h-1v-1h-3v1h-1v1Z"/><path class="cls-1" d="M801,188.74v-1h-1v-1h-1v-1h3v1h3.53v-2H802v-1h-2v-1h-1v-2h1v-1h1v-1h5v1h1v1h1v1h-3v-1h-3.53v2H805v1h2v1h1v2h-1v1h-1v1Z"/><path class="cls-1" d="M811.54,188.74v-1h-1v-7.57H809v-1.51h1.51v-3h2v3h2v1.51h-2v6.56h2v2Z"/><path class="cls-1" d="M818.09,188.74v-1h-1v-1h-1v-6.06h1v-1h1v-1h5v1h1v1h1v6.06h-1v1h-1v1Zm4-2v-1h1v-4h-1v-1h-3v1h-1v4h1v1Z"/><path class="cls-1" d="M833.2,188.74v-1h-1v-1h-1v-6.06h1v-1h1v-1h5v1h1v1h1v3.53H833.2v1.52h1v1h3v-1h3v1h-1v1h-1v1Zm2-11.09v-1h-1v-1h-1v-1h2v1h1v1h1v1Zm3,5v-1h-1v-1h-3v1h-1v1Z"/><path class="cls-1" d="M848.3,188.74v-1h-1v-1h-1v-8.07h2v7.06h1v1h2.52v-1h1v-7.06h2v10.08h-2v-1h-1v1Z"/><path class="cls-1" d="M856.87,188.74V178.66h2v1h1v-1h3.53v1h1v1h1v8.07h-2v-7.06h-1v-1h-2.52v1h-1v7.06Z"/><path class="cls-1" d="M873.48,188.74v-1h-1v-7.57H871v-1.51h1.51v-3h2v3h2v1.51h-2v6.56h2v2Z"/><path class="cls-1" d="M880,188.74v-1h-1v-1h-1v-6.06h1v-1h1v-1h5.05v1h1v1h1v3.53H880v1.52h1v1h3v-1h3v1h-1v1h-1v1Zm5.05-6.05v-1h-1v-1h-3v1h-1v1Z"/><path class="cls-1" d="M890.61,188.74v-1h-1v-1h-1v-1h3v1h3.53v-2h-3.53v-1h-2v-1h-1v-2h1v-1h1v-1h5v1h1v1h1v1h-3v-1h-3.53v2h3.53v1h2v1h1v2h-1v1h-1v1Z"/><path class="cls-1" d="M901.19,188.74v-1h-1v-7.57h-1.51v-1.51h1.51v-3h2v3h2v1.51h-2v6.56h2v2Z"/><path class="cls-1" d="M907.73,188.74v-1h-1v-1h-1v-6.06h1v-1h1v-1h5v1h1v1h1v6.06h-1v1h-1v1Zm4-2v-1h1v-4h-1v-1h-3v1h-1v4h1v1Z"/><path class="cls-1" d="M920.83,188.74V178.66h2v1h1v-1h3.53v1h1v1h1v8.07h-2v-7.06h-1v-1h-2.52v1h-1v7.06Z"/><path class="cls-1" d="M933.42,188.74v-1h-1v-1h-1v-6.06h1v-1h1v-1h5.05v1h1v1h1v6.06h-1v1h-1v1Zm4-2v-1h1v-4h-1v-1h-3v1h-1v4h1v1Z"/><path class="cls-1" d="M942.49,188.74V178.66h2v1h1v-1H948v2h-2.52v1h-1v7.06Z"/><path class="cls-1" d="M949.53,188.74V178.66h2v1h1v-1h3v1h2v-1h4v1h1v1h1v8.07h-2v-7.06h-1v-1h-2v1h-1v7.06h-2v-7.06h-1v-1h-2v1h-1v7.06Z"/><path class="cls-1" d="M967.67,188.74v-1h-1v-1h-1v-2h1v-1h2v-1h4v-1h-1v-1h-3v1h-3v-1h1v-1h1v-1h5.05v1h1v1h1v8.07h-2v-1h-1v1Zm4-2v-1h1v-2h-1v1h-3.53v2Z"/><path class="cls-1" d="M976.74,188.74V174.62h2v14.12Z"/><path class="cls-1" d="M982.78,188.74v-1h-1v-1h-1v-6.06h1v-1h1v-1h5.05v1h1v1h1v3.53h-7.06v1.52h1v1h3v-1h3v1h-1v1h-1v1Zm5.05-6.05v-1h-1v-1h-3v1h-1v1Z"/><path class="cls-1" d="M991.85,188.74v-2h2v2Z"/><path class="cls-1" d="M999.9,188.74V174.62H1014v14.12Z"/><rect class="cls-4" x="763.64" y="391.75" width="115.71" height="22.32" rx="4.58"/><path d="M786,409.26V395.13h2v14.13Z"/><path d="M790,409.26V399.18h2v1h1v-1h3.54v1h1v1h1v8.07h-2V402.2h-1v-1H793v1h-1v7.06Z"/><path d="M803.62,409.26v-2h-1v-2h-1v-2h-1v-2h-1v-2h2v2h1v2h1v2h2v-2h1v-2h1v-2h2v2h-1v2h-1v2h-1v2h-1v2Z"/><path d="M811.17,397.66v-2h2v2Zm0,11.6V399.18h2v10.08Z"/><path d="M817.21,409.26v-1h-1v-1h-1v-2h1v-1h2v-1h4v-1h-1v-1h-3v1h-3v-1h1v-1h1v-1h5v1h1v1h1v8.07h-2v-1h-1v1Zm4-2v-1h1v-2h-1v1h-3.53v2Z"/><path d="M826.28,409.26V399.18h2v1h1v-1h2.52v2H829.3v1h-1v7.06Z"/><path d="M834.84,409.26v-1h-1v-1h-1v-6.05h1v-1h1v-1h5v1h1v1h1v3.53h-7.06v1.52h1v1h3v-1h3v1h-1v1h-1v1Zm5-6.05v-1h-1v-1h-3v1h-1v1Z"/><path d="M849.94,409.26v-1h-1v-1h-1v-2h1v-1h2v-1h4v-1h-1v-1h-3v1h-3v-1h1v-1h1v-1h5v1h1v1h1v8.07h-2v-1h-1v1Zm4-2v-1h1v-2h-1v1h-3.53v2Z"/><rect class="cls-4" x="886.83" y="391.75" width="115.71" height="22.32" rx="4.58"/><path d="M909.94,409.26v-3h1v-3h1v-3h1v-3h1v-2h3v2h1v3h1v3h1v3h1v3h-2v-3H912v3Zm8.07-5v-1h-1v-3h-1v-2h-1v2h-1v3h-1v1Z"/><path d="M923,409.26V399.18h2v1h1v-1h2.52v2h-2.52v1h-1v7.06Z"/><path d="M931.6,409.26v-1h-1v-1h-1v-6.05h1v-1h1v-1h5v1h1v1h1v2h-2v-1h-1v-1h-3v1h-1v4h1v1h3v-1h1v-1h2v2h-1v1h-1v1Z"/><path d="M940.67,409.26V395.13h2v5.05h1v-1h3.53v1h1v1h1v8.07h-2V402.2h-1v-1h-2.52v1h-1v7.06Z"/><path d="M951.24,397.66v-2h2v2Zm0,11.6V399.18h2v10.08Z"/><path d="M958.8,409.26v-2h-1v-2h-1v-2h-1v-2h-1v-2h2v2h1v2h1v2h2v-2h1v-2h1v-2h2v2h-1v2h-1v2h-1v2h-1v2Z"/><path d="M966.35,397.66v-2h2v2Zm0,11.6V399.18h2v10.08Z"/><path d="M972.39,409.26v-1h-1v-1h-1v-2h1v-1h2v-1h4.05v-1h-1v-1h-3v1h-3v-1h1v-1h1v-1h5.05v1h1v1h1v8.07h-2v-1h-1v1Zm4-2v-1h1v-2h-1v1h-3.53v2Z"/><rect class="cls-4" x="1007.64" y="391.75" width="115.71" height="22.32" rx="4.58"/><path d="M1031.25,409.26v-1h-1v-1h-1v-1h-1v-8.08h1v-1h1v-1h1v-1h6v1h1v1h1v1h1v2h-2v-1h-1v-1h-1v-1h-4v1h-1v1h-1v6h1v1h1v1h4v-1h1v-1h1v-1h2v2h-1v1h-1v1h-1v1Z"/><path d="M1043.84,409.26v-1h-1v-1h-1v-2h1v-1h2v-1h4v-1h-1v-1h-3v1h-3v-1h1v-1h1v-1h5.05v1h1v1h1v8.07h-2v-1h-1v1Zm4-2v-1h1v-2h-1v1h-3.53v2Z"/><path d="M1052.91,409.26V399.18h2v1h1v-1h3.53v1h1v1h1v8.07h-2V402.2h-1v-1h-2.52v1h-1v7.06Z"/><path d="M1065.5,409.26v-1h-1v-1h-1v-6.05h1v-1h1v-1h5v1h1v1h1v2h-2v-1h-1v-1h-3v1h-1v4h1v1h3v-1h1v-1h2v2h-1v1h-1v1Z"/><path d="M1076.58,409.26v-1h-1v-1h-1v-6.05h1v-1h1v-1h5.05v1h1v1h1v3.53h-7.06v1.52h1v1h3v-1h3v1h-1v1h-1v1Zm5.05-6.05v-1h-1v-1h-3v1h-1v1Z"/><path d="M1085.65,409.26V395.13h2v14.13Z"/><path d="M1089.67,409.26V395.13h2v14.13Z"/><path d="M1095.71,409.26v-1h-1v-1h-1v-2h1v-1h2v-1h4v-1h-1v-1h-3v1h-3v-1h1v-1h1v-1h5v1h1v1h1v8.07h-2v-1h-1v1Zm4-2v-1h1v-2h-1v1h-3.53v2Z"/></g></svg>