<svg xmlns="http://www.w3.org/2000/svg" viewBox="0 0 1920 1080"><defs><style>.cls-1{font-size:60px;font-family:NeueMontreal-Medium, Neue Montreal;font-weight:500;}.cls-1,.cls-3{fill:#77aa89;}.cls-2,.cls-4,.cls-5{fill:none;stroke-miterlimit:10;}.cls-2,.cls-4{stroke:#77aa89;}.cls-2{stroke-width:5px;}.cls-4,.cls-5{stroke-width:2px;}.cls-5{stroke:#000;}</style></defs><g id="Livello_2" data-name="Livello 2"><text class="cls-1" transform="translate(1428.04 952.85)">H</text><text class="cls-1" transform="translate(941.76 1019.59)">G</text><polyline class="cls-2" points="1060.83 903.94 1060.83 945.13 1405.36 945.13"/><polygon class="cls-3" points="1048.36 907.59 1060.82 886 1073.29 907.59 1048.36 907.59"/><text class="cls-1" transform="translate(466.81 952.85)">F</text><text class="cls-1" transform="translate(466.81 829.67)">E</text><polyline class="cls-2" points="876.44 903.94 876.44 945.13 531.9 945.13"/><polygon class="cls-3" points="863.97 907.59 876.44 886 888.9 907.59 863.97 907.59"/><line class="cls-2" x1="723.57" y1="169.32" x2="531.9" y2="169.32"/><polygon class="cls-3" points="719.92 156.85 741.5 169.32 719.92 181.78 719.92 156.85"/><line class="cls-2" x1="965.6" y1="905.06" x2="965.6" y2="952.85"/><polygon class="cls-3" points="953.13 908.71 965.6 887.12 978.07 908.71 953.13 908.71"/><line class="cls-2" x1="723.57" y1="384.59" x2="531.9" y2="384.59"/><polygon class="cls-3" points="719.92 372.13 741.5 384.59 719.92 397.06 719.92 372.13"/><line class="cls-2" x1="670.38" y1="818.81" x2="531.9" y2="818.81"/><polygon class="cls-3" points="666.73 806.35 688.32 818.81 666.73 831.28 666.73 806.35"/><text class="cls-1" transform="translate(467.39 180)">A</text><line class="cls-2" x1="1050.25" y1="169.32" x2="1405.36" y2="169.32"/><polygon class="cls-3" points="1053.9 181.79 1032.31 169.32 1053.9 156.86 1053.9 181.79"/><line class="cls-2" x1="1205.5" y1="382.5" x2="1405.36" y2="382.5"/><polygon class="cls-3" points="1209.15 394.96 1187.56 382.5 1209.15 370.03 1209.15 394.96"/><text class="cls-1" transform="translate(1428.04 180)">C</text><text class="cls-1" transform="translate(1428.04 391.09)">D</text><text class="cls-1" transform="translate(467.39 392.27)">B</text><path class="cls-4" d="M1183.08,445.88h38c25.29,0,45.78,23.84,45.78,53.26l-16.14,327.55c-2,40.79-31,72.67-66.15,72.67H743.14c-35.34,0-64.46-32.26-66.18-73.32l-13.74-326.9c0-29.42,20.5-53.26,45.79-53.26h37.56"/><path class="cls-4" d="M1170,876.36H757.87a61.86,61.86,0,0,1-61.79-58.84L683.25,555.15A42.75,42.75,0,0,1,726,512.4h478.05a42.74,42.74,0,0,1,42.74,42.75L1231.72,818A61.87,61.87,0,0,1,1170,876.36Z"/><circle class="cls-4" cx="726.8" cy="554.4" r="17.32"/><circle class="cls-4" cx="735.12" cy="820.38" r="17.32"/><circle class="cls-4" cx="965.05" cy="806.81" r="47.42"/><circle class="cls-4" cx="778.39" cy="567.53" r="17.32"/><circle class="cls-4" cx="822.47" cy="540.38" r="17.32"/><circle class="cls-4" cx="866.84" cy="567.53" r="17.32"/><circle class="cls-4" cx="911.12" cy="540.38" r="17.32"/><circle class="cls-4" cx="955.89" cy="567.53" r="17.32"/><circle class="cls-4" cx="998.47" cy="540.38" r="17.32"/><circle class="cls-4" cx="1043.28" cy="567.53" r="17.32"/><circle class="cls-4" cx="1088.66" cy="540.38" r="17.32"/><circle class="cls-4" cx="1132.54" cy="567.53" r="17.32"/><rect class="cls-4" x="1163.76" y="539.69" width="57.79" height="41.12" rx="6.75"/><rect class="cls-4" x="708.83" y="748.5" width="62.6" height="41.12" rx="6.75"/><rect class="cls-4" x="1158.58" y="748.5" width="62.6" height="41.12" rx="6.75"/><rect class="cls-4" x="1125.86" y="803.75" width="82.56" height="41.12" rx="6.75"/><rect class="cls-4" x="784" y="748.5" width="101.89" height="41.12" rx="6.75"/><rect class="cls-4" x="1044.21" y="748.5" width="101.89" height="41.12" rx="6.75"/><rect class="cls-4" x="695.95" y="593.23" width="39.84" height="40.26" rx="5.85"/><rect class="cls-4" x="751.5" y="593.23" width="39.84" height="40.26" rx="5.85"/><rect class="cls-4" x="717.8" y="643.99" width="39.84" height="40.26" rx="5.85"/><rect class="cls-4" x="774.67" y="643.99" width="39.84" height="40.26" rx="5.85"/><rect class="cls-4" x="831.53" y="643.99" width="39.84" height="40.26" rx="5.85"/><rect class="cls-4" x="888.4" y="643.99" width="39.84" height="40.26" rx="5.85"/><rect class="cls-4" x="945.27" y="643.99" width="39.84" height="40.26" rx="5.85"/><rect class="cls-4" x="1002.13" y="643.99" width="39.84" height="40.26" rx="5.85"/><rect class="cls-4" x="1059" y="643.99" width="39.84" height="40.26" rx="5.85"/><rect class="cls-4" x="1115.87" y="643.99" width="39.84" height="40.26" rx="5.85"/><rect class="cls-4" x="1172.73" y="643.99" width="39.84" height="40.26" rx="5.85"/><rect class="cls-4" x="807.05" y="593.23" width="39.84" height="40.26" rx="5.85"/><rect class="cls-4" x="862.59" y="593.23" width="39.84" height="40.26" rx="5.85"/><rect class="cls-4" x="918.14" y="593.23" width="39.84" height="40.26" rx="5.85"/><rect class="cls-4" x="973.69" y="593.23" width="39.84" height="40.26" rx="5.85"/><rect class="cls-4" x="1029.23" y="593.23" width="39.84" height="40.26" rx="5.85"/><rect class="cls-4" x="1084.78" y="593.23" width="39.84" height="40.26" rx="5.85"/><rect class="cls-4" x="1140.33" y="593.23" width="39.84" height="40.26" rx="5.85"/><rect class="cls-4" x="1195.88" y="593.23" width="39.84" height="40.26" rx="5.85"/><rect class="cls-4" x="699.17" y="697.32" width="39.84" height="40.26" rx="5.85"/><rect class="cls-4" x="753.93" y="697.32" width="39.84" height="40.26" rx="5.85"/><rect class="cls-4" x="808.68" y="697.32" width="39.84" height="40.26" rx="5.85"/><rect class="cls-4" x="787.13" y="804.61" width="39.84" height="40.26" rx="5.85"/><rect class="cls-4" x="863.44" y="697.32" width="39.84" height="40.26" rx="5.85"/><rect class="cls-4" x="918.2" y="697.32" width="39.84" height="40.26" rx="5.85"/><rect class="cls-4" x="972.96" y="697.32" width="39.84" height="40.26" rx="5.85"/><rect class="cls-4" x="1027.72" y="697.32" width="39.84" height="40.26" rx="5.85"/><rect class="cls-4" x="1082.48" y="697.32" width="39.84" height="40.26" rx="5.85"/><rect class="cls-4" x="1137.24" y="697.32" width="39.84" height="40.26" rx="5.85"/><rect class="cls-4" x="1192" y="697.32" width="39.84" height="40.26" rx="5.85"/><path class="cls-4" d="M875.43,814.21l-39.2,38.39a7.45,7.45,0,0,0,5.21,12.77h61.27a7.45,7.45,0,0,0,6.45-11.16L887.1,815.82A7.45,7.45,0,0,0,875.43,814.21Z"/><path class="cls-4" d="M1056.66,814.21l39.2,38.39a7.45,7.45,0,0,1-5.21,12.77h-61.27a7.45,7.45,0,0,1-6.45-11.16L1045,815.82A7.45,7.45,0,0,1,1056.66,814.21Z"/><path class="cls-4" d="M746.57,439.45v48.81c0,13.5,9.27,24.44,20.71,24.44h395.49c11.44,0,20.71-10.94,20.71-24.44V439.45Z"/><path class="cls-4" d="M1212.33,439.45H710.75A54.49,54.49,0,0,1,656.26,385L676,119.34A70.62,70.62,0,0,1,746.43,54h433.88a70.63,70.63,0,0,1,70.5,66.36l16,264.65A54.48,54.48,0,0,1,1212.33,439.45Z"/><rect class="cls-4" x="757.64" y="119.49" width="409.5" height="280.13" rx="6.91"/><path class="cls-3" d="M995.67,814.38v-3.81l5-3.72v-.09l-5-3.72v-3.81l9.7,7.58Z"/><path class="cls-3" d="M935.53,799.23V803l-4.95,3.72v.09l4.95,3.72v3.81l-9.7-7.57Z"/><path class="cls-3" d="M973.18,776.74h-3.81l-3.72-5h-.1l-3.71,5H958l7.57-9.7Z"/><path class="cls-3" d="M958,836.87h3.81l3.71,5h.1l3.72-5h3.81l-7.58,9.71Z"/><path class="cls-3" d="M733.67,670.41,732.09,675h-3.31L736,655.47h3.42L746.57,675h-3.32l-1.58-4.63Zm7.12-2.71-3.06-9.25h-.06l-3.09,9.25Z"/><path class="cls-3" d="M802.52,669.73c0,3.12-2.35,5.72-7.28,5.72s-8.42-2.49-8.62-6.93h3.26c.17,2.5,1.86,4.14,5.36,4.14,2.91,0,4-1.29,4-2.79,0-2.33-1.67-2.77-5.53-3.73-3.07-.76-6.38-1.94-6.38-5.66,0-3.48,2.69-5.42,7-5.42s7.41,2.24,7.69,6.27h-3.26c-.3-2.27-1.73-3.48-4.43-3.48-2.33,0-3.73.88-3.73,2.33,0,2.13,1.84,2.52,4.57,3.2C799.35,664.45,802.52,665.35,802.52,669.73Z"/><path class="cls-3" d="M845.24,655.47h7.61c5.39,0,8.7,3.5,8.7,9.8s-3.2,9.77-8.62,9.77h-7.69Zm3.26,16.81h4.18c4.38,0,5.61-3.26,5.61-7s-1.23-7-5.61-7H848.5Z"/><path class="cls-3" d="M915.1,663.93v2.79h-8.46V675h-3.25V655.47h13.68v2.76H906.64v5.7Z"/><path class="cls-3" d="M965.4,657.85c-4.19,0-5.91,3.72-5.91,7.39s1.34,7.42,5.8,7.42a5.3,5.3,0,0,0,5.58-5.26h-5.53v-2.62h8.84V675h-2.24l-.71-2.68h-.06a6.67,6.67,0,0,1-6.1,3.09c-5.67,0-8.84-4.3-8.84-10.21s3.56-10.18,9.2-10.18c5.09,0,7.82,2.76,8.43,6.51H970.6C970.11,659.25,968.3,657.85,965.4,657.85Z"/><path class="cls-3" d="M1018.09,655.47v8.1h9.25v-8.1h3.26V675h-3.26v-8.68h-9.25V675h-3.25V655.47Z"/><path class="cls-3" d="M1077.85,675.45c-4.7,0-6-3.17-6-6.54V668h3.1v.9c0,2.19.38,3.75,2.84,3.75s2.88-1.56,2.88-3.75V655.47h3.23v13.44C1083.88,672.28,1082.56,675.45,1077.85,675.45Z"/><path class="cls-3" d="M1132.39,655.47v9.66l8.87-9.66h3.89l-7.61,8.29,8.07,11.28h-3.8l-6.41-9-3,3.23V675h-3.25V655.47Z"/><path class="cls-3" d="M1190.82,655.47v16.81h9.77V675h-13V655.47Z"/><path class="cls-3" d="M723.3,620.85l2.19,2.19L723.57,625l-2.27-2.27a9.8,9.8,0,0,1-5.39,1.51c-5.91,0-9.61-4.33-9.61-10.21s3.7-10.18,9.61-10.18,9.6,4.3,9.6,10.18A10.89,10.89,0,0,1,723.3,620.85Zm-4.08-.28-2.66-2.65,1.92-1.92,2.63,2.66a9,9,0,0,0,1.15-4.68c0-3.94-1.87-7.39-6.35-7.39s-6.38,3.45-6.38,7.39,1.89,7.42,6.38,7.42A6.52,6.52,0,0,0,719.22,620.57Z"/><path class="cls-3" d="M728.44,545.7v17.35h-2.91V550.47c-1,1-2.18,1-3.64,1v-2.09c3.14,0,4-1.55,4.22-3.69Z"/><path class="cls-3" d="M772.87,564.7c0-3.74,2-6.53,6.45-6.53,3.21,0,5.75,1.91,5.75,5.23,0,5.52-7.41,6.45-8.84,10v.05h8.66v2.46H772.44c0-3.06,1.83-5.3,4.49-7,3.19-2.11,5.22-2.94,5.22-5.4a2.61,2.61,0,0,0-2.91-2.86c-2.58,0-3.56,1.66-3.56,4Z"/><path class="cls-3" d="M816.56,536.88c0-3.24,2.21-5.63,6.55-5.63,3.06,0,5.78,1.73,5.78,4.8a3.78,3.78,0,0,1-2.62,3.71v0a4,4,0,0,1,3.19,4.3c0,3.41-2.53,5.24-6.3,5.24-4.57,0-7-2.33-7-6.32h2.81c0,2.33,1.08,3.84,4,3.84,2.61,0,3.61-1,3.61-2.84,0-2.39-1.73-2.91-3.51-2.91H821.5v-2.31H823c1.81,0,3-.76,3-2.54,0-1.43-.9-2.53-3-2.53-2.74,0-3.62,1.43-3.62,3.14Z"/><path class="cls-3" d="M918.09,543.08a6,6,0,0,1-6.4,6.27c-4.24,0-6.55-2.51-6.65-5.49h2.89a3.27,3.27,0,0,0,3.61,3c2.14,0,3.64-1.31,3.64-3.82a3.14,3.14,0,0,0-3.49-3.46,4.23,4.23,0,0,0-3.41,1.5h-2.94l1.88-9.46h10v2.46h-7.8l-.93,4.64v0a5.27,5.27,0,0,1,4-1.5A5.46,5.46,0,0,1,918.09,543.08Z"/><path class="cls-3" d="M1005.21,531.63v2.21c-3.94,3.29-6.6,9.61-6.6,15.14h-3.06a22.37,22.37,0,0,1,6.5-14.84v0H993v-2.46Z"/><path class="cls-3" d="M1088.27,543.1a5.49,5.49,0,0,1-5.75-5.77,5.89,5.89,0,0,1,6.27-6.08c5.07,0,6.86,3.79,6.86,9,0,5.92-2.49,9.11-6.86,9.11a5.58,5.58,0,0,1-5.8-4.77h2.92a2.64,2.64,0,0,0,2.91,2.39c3.14,0,3.86-2.91,3.91-6.08v0A5,5,0,0,1,1088.27,543.1Zm-2.92-5.92a3.26,3.26,0,0,0,3.39,3.54,3.52,3.52,0,0,0,3.84-3.59,3.36,3.36,0,0,0-3.69-3.49A3.3,3.3,0,0,0,1085.35,537.18Z"/><path class="cls-3" d="M867.92,575.9V572h-8.21v-2.71l8.21-10.7h2.91v11h2.44V572h-2.44v3.94Zm-5.62-6.4h5.62v-7.33Z"/><path class="cls-3" d="M956.83,564.43a5.49,5.49,0,0,1,5.75,5.77,5.9,5.9,0,0,1-6.28,6.08c-5.07,0-6.85-3.8-6.85-9,0-5.93,2.48-9.12,6.85-9.12a5.58,5.58,0,0,1,5.8,4.77h-2.91a2.65,2.65,0,0,0-2.92-2.38c-3.13,0-3.86,2.91-3.91,6.07v.06A5,5,0,0,1,956.83,564.43Zm2.91,5.92a3.26,3.26,0,0,0-3.39-3.54,3.52,3.52,0,0,0-3.84,3.59,3.36,3.36,0,0,0,3.69,3.49A3.3,3.3,0,0,0,959.74,570.35Z"/><path class="cls-3" d="M1040.46,566.66v0a4,4,0,0,1-2.39-3.69c0-3,2.49-4.75,5.88-4.75s5.87,1.76,5.87,4.75a4,4,0,0,1-2.38,3.69v0c1.63.73,3.23,2,3.23,4.34,0,3.52-2.93,5.28-6.72,5.28s-6.71-1.76-6.71-5.28C1037.24,568.62,1038.8,567.39,1040.46,566.66Zm7.3,4.17c0-1.89-1.45-3-3.81-3s-3.82,1.15-3.82,3,1.48,3.06,3.82,3.06S1047.76,572.74,1047.76,570.83Zm-.68-7.79c0-1.65-1.2-2.56-3.13-2.56s-3.14.91-3.14,2.56,1.2,2.54,3.14,2.54S1047.08,564.73,1047.08,563Z"/><path class="cls-3" d="M1126.78,567.24c0-4.92,2.08-9.07,7-9.07s7,4.15,7,9.07-2.08,9-7,9S1126.78,572.16,1126.78,567.24Zm11,0c0-3.62-1-6.58-4.07-6.58s-4.09,3-4.09,6.58,1,6.55,4.09,6.55S1137.82,570.85,1137.82,567.24Z"/><path class="cls-3" d="M1182.77,556.13v0a2.39,2.39,0,0,1,2,2.56c0,2-1.39,3.06-3.55,3.06h-4.74V551.31H1181c2.15,0,3.39,1,3.39,2.64A2.16,2.16,0,0,1,1182.77,556.13Zm-1.83-.49c1.24,0,1.71-.5,1.71-1.42s-.57-1.43-1.61-1.43h-2.79v2.85Zm-2.69,4.65h2.86c1.5,0,2-.7,2-1.68a1.56,1.56,0,0,0-1.75-1.67h-3.06Z"/><path class="cls-3" d="M1187.8,551.31v5.17l4.74-5.17h2.08l-4.07,4.43,4.32,6h-2l-3.43-4.81-1.61,1.72v3.09h-1.74V551.31Z"/><path class="cls-3" d="M1203.15,558.93c0,1.67-1.26,3.06-3.89,3.06s-4.5-1.33-4.61-3.7h1.74c.09,1.33,1,2.21,2.87,2.21,1.55,0,2.15-.69,2.15-1.49,0-1.25-.89-1.48-3-2-1.64-.41-3.41-1-3.41-3s1.43-2.9,3.71-2.9,4,1.2,4.11,3.35h-1.74c-.16-1.21-.92-1.85-2.37-1.85-1.24,0-2,.46-2,1.24,0,1.14,1,1.34,2.44,1.71C1201.46,556.11,1203.15,556.59,1203.15,558.93Z"/><path class="cls-3" d="M1204.52,551.31H1209c2,0,3.46.94,3.46,3.13s-1.45,3.15-3.46,3.15h-2.7v4.18h-1.74Zm1.74,4.79h2.63c1.17,0,1.78-.5,1.78-1.66s-.61-1.65-1.78-1.65h-2.63Z"/><path class="cls-3" d="M763.25,604.21l3.34,15.16h0l3.94-15.16h3.34l4,15.16h.05l3.34-15.16h3.34l-4.9,19.57H776.3l-4-15.33h-.06l-4,15.33h-3.45l-4.87-19.57Z"/><path class="cls-3" d="M833.75,612.28v2.79h-9.56V621h11.17v2.77H820.94V604.21h14.15V607h-10.9v5.31Z"/><path class="cls-3" d="M875.3,604.21h8.35c4,0,6.63,2,6.63,5.61a4.54,4.54,0,0,1-3.64,4.87v.06c4.51.84,2.87,8.51,3.91,8.84v.19h-3.42c-.91-.82.93-7.56-3.78-7.56h-4.79v7.56H875.3Zm3.26,9.22H883c2,0,4.08-.38,4.08-3.23S885,607,883,607h-4.41Z"/><path class="cls-3" d="M936.65,607h-6.26v-2.76h15.76V607h-6.24v16.81h-3.26Z"/><path class="cls-3" d="M988.36,604.21l5.06,9.08h.06l5.09-9.08H1002L995.09,616v7.78h-3.26V616l-7-11.79Z"/><path class="cls-3" d="M1049.22,624.19c-5.45,0-7.72-2.82-7.72-7.09V604.21h3.26V617.1c0,3,1.48,4.3,4.46,4.3s4.49-1.34,4.49-4.3V604.21h3.23V617.1C1056.94,621.37,1054.67,624.19,1049.22,624.19Z"/><path class="cls-3" d="M1106.64,604.21v19.57h-3.25V604.21Z"/><path class="cls-3" d="M1150.53,614c0-5.88,3.69-10.18,9.6-10.18s9.61,4.3,9.61,10.18-3.72,10.21-9.61,10.21S1150.53,619.86,1150.53,614Zm16,0c0-3.94-1.86-7.39-6.35-7.39s-6.37,3.45-6.37,7.39,1.89,7.42,6.37,7.42S1166.48,618,1166.48,614Z"/><path class="cls-3" d="M1210.74,604.21h8.32c3.75,0,6.46,1.75,6.46,5.86s-2.71,5.88-6.46,5.88H1214v7.83h-3.26Zm3.26,8.95h4.92c2.2,0,3.35-.93,3.35-3.09s-1.15-3.1-3.35-3.1H1214Z"/><path class="cls-3" d="M716.63,717.62V719a13.38,13.38,0,0,0-4.2,9.62h-1.94a14.23,14.23,0,0,1,4.13-9.43v0h-5.77v-1.56Z"/><path class="cls-3" d="M724,719.64h-2L727.69,705h2Z"/><path class="cls-3" d="M706.37,676.38h2L714,691.07h-2Z"/><path class="cls-3" d="M782,708.3v2.76l-11,14v.06h11.25v2.76H767.05v-2.76l11-14v-.06H767.6V708.3Z"/><path class="cls-3" d="M821.33,708.3h3.53l4.43,7.23h0l4.46-7.23h3.53l-6.13,9.53,6.62,10H834l-4.68-7.64h0l-4.65,7.64h-3.8l6.62-10Z"/><path class="cls-3" d="M821.25,771.9c0,1.81-1.36,3.31-4.21,3.31s-4.86-1.44-5-4H814c.09,1.44,1.07,2.38,3.09,2.38,1.68,0,2.33-.74,2.33-1.61,0-1.34-1-1.59-3.2-2.15-1.77-.44-3.68-1.12-3.68-3.27s1.55-3.13,4-3.13,4.28,1.3,4.44,3.62h-1.88c-.18-1.31-1-2-2.56-2-1.35,0-2.15.51-2.15,1.35,0,1.23,1.06,1.45,2.64,1.85C819.41,768.85,821.25,769.37,821.25,771.9Z"/><path class="cls-3" d="M822.72,763.67h4.8c2.17,0,3.73,1,3.73,3.38s-1.56,3.4-3.73,3.4H824.6V775h-1.88Zm1.88,5.17h2.85c1.26,0,1.92-.54,1.92-1.79s-.66-1.79-1.92-1.79H824.6Z"/><path class="cls-3" d="M833.51,772.3,832.6,775h-1.92l4.16-11.3h2L841,775H839l-.91-2.67Zm4.11-1.57-1.77-5.34h0L834,770.73Z"/><path class="cls-3" d="M846.27,765c-2.44,0-3.4,2-3.4,4.27s1,4.28,3.4,4.28a2.8,2.8,0,0,0,3-2.75h1.89a4.6,4.6,0,0,1-4.87,4.37c-3.26,0-5.32-2.48-5.32-5.9s2.06-5.88,5.32-5.88a4.59,4.59,0,0,1,4.87,4.13H849.3A2.84,2.84,0,0,0,846.27,765Z"/><path class="cls-3" d="M860,768.33v1.61h-5.51v3.43h6.45V775h-8.33v-11.3h8.17v1.59h-6.29v3.07Z"/><path class="cls-3" d="M1049.25,841.36l3.06,9.18h.06l6.8-18.3h3.65L1054,855h-3.34l-5-13.66Z"/><path class="cls-3" d="M1071.55,768.33v1.61H1066v3.43h6.45V775h-8.33v-11.3h8.17v1.59H1066v3.07Z"/><path class="cls-3" d="M1074,763.67h2.1l5.09,8.49h0v-8.49h1.89V775H1081l-5.11-8.46h0V775H1074Z"/><path class="cls-3" d="M1087.67,765.26h-3.62v-1.59h9.1v1.59h-3.6V775h-1.88Z"/><path class="cls-3" d="M1101.83,768.33v1.61h-5.52v3.43h6.45V775h-8.33v-11.3h8.17v1.59h-6.29v3.07Z"/><path class="cls-3" d="M1104.29,763.67h4.82c2.33,0,3.83,1.18,3.83,3.24a2.62,2.62,0,0,1-2.1,2.81v0c2.61.49,1.66,4.92,2.26,5.11V775h-2c-.52-.48.54-4.36-2.18-4.36h-2.76V775h-1.89Zm1.89,5.33h2.54c1.15,0,2.36-.23,2.36-1.87s-1.21-1.87-2.36-1.87h-2.54Z"/><path class="cls-3" d="M1169.36,763.67v4.68h5.35v-4.68h1.88V775h-1.88v-5h-5.35v5h-1.88v-11.3Z"/><path class="cls-3" d="M1178.17,769.31c0-3.4,2.13-5.88,5.54-5.88s5.55,2.48,5.55,5.88-2.15,5.9-5.55,5.9S1178.17,772.71,1178.17,769.31Zm9.21,0c0-2.28-1.07-4.27-3.67-4.27s-3.68,2-3.68,4.27,1.09,4.28,3.68,4.28S1187.38,771.6,1187.38,769.31Z"/><path class="cls-3" d="M1190.76,763.67h2.44l3.16,8.69h0l3.15-8.69H1202V775h-1.83V766.4h0l-3,8.57h-1.5l-3-8.57h0V775h-1.84Z"/><path class="cls-3" d="M1211.3,768.33v1.61h-5.52v3.43h6.45V775h-8.33v-11.3h8.17v1.59h-6.29v3.07Z"/><path class="cls-3" d="M1156.89,820.09h-3.62v-1.6h9.11v1.6h-3.61v9.71h-1.88Z"/><path class="cls-3" d="M1164.19,827.12l-.91,2.68h-1.92l4.16-11.31h2l4.14,11.31h-1.92l-.91-2.68Zm4.11-1.56-1.77-5.34h0l-1.79,5.34Z"/><path class="cls-3" d="M1179.48,823.7v0a2.57,2.57,0,0,1,2.19,2.76c0,2.18-1.5,3.31-3.84,3.31h-5.12V818.49h4.85c2.33,0,3.67,1,3.67,2.85A2.33,2.33,0,0,1,1179.48,823.7Zm-2-.53c1.34,0,1.85-.53,1.85-1.53s-.62-1.55-1.74-1.55h-3v3.08Zm-2.91,5h3.1c1.61,0,2.1-.76,2.1-1.82a1.69,1.69,0,0,0-1.9-1.8h-3.3Z"/><path class="cls-3" d="M796.92,827.12,796,829.8h-1.91l4.15-11.31h2l4.14,11.31h-1.91l-.92-2.68Zm4.1-1.56-1.76-5.34h0l-1.78,5.34Z"/><path class="cls-3" d="M807.31,818.49v9.71H813v1.6h-7.53V818.49Z"/><path class="cls-3" d="M815.64,820.09H812v-1.6h9.11v1.6h-3.6v9.71h-1.89Z"/><path class="cls-3" d="M742,850.75a6.23,6.23,0,0,1-.23,1.73,6.68,6.68,0,0,1-.65,1.56,6.87,6.87,0,0,1-1,1.31,6.47,6.47,0,0,1-1.32,1,6.37,6.37,0,0,1-1.56.66,6.55,6.55,0,0,1-1.72.23,6.62,6.62,0,0,1-1.73-.23,6.58,6.58,0,0,1-2.87-1.68,6.87,6.87,0,0,1-1-1.31,7.17,7.17,0,0,1-.66-1.56,6.62,6.62,0,0,1-.23-1.73,6.55,6.55,0,0,1,.23-1.72,6.78,6.78,0,0,1,.66-1.56,6.87,6.87,0,0,1,1-1.31,6.47,6.47,0,0,1,1.32-1,6.89,6.89,0,0,1,1.55-.66,6.62,6.62,0,0,1,1.73-.23,6.55,6.55,0,0,1,1.72.23,6.78,6.78,0,0,1,1.56.66,6.47,6.47,0,0,1,1.32,1,6.87,6.87,0,0,1,1,1.31,6.44,6.44,0,0,1,.65,1.55A6.18,6.18,0,0,1,742,850.75Zm-6.45-4.94a.36.36,0,0,0,0-.21.51.51,0,0,0-.13-.09.33.33,0,0,0-.2,0,5,5,0,0,0-1.93.49,5.31,5.31,0,0,0-1.57,1.15,5.48,5.48,0,0,0-1,1.64,5.23,5.23,0,0,0-.38,2,5.15,5.15,0,0,0,.4,2.06,5.29,5.29,0,0,0,1.09,1.63,5.11,5.11,0,0,0,1.6,1.11,5.32,5.32,0,0,0,1.93.48.52.52,0,0,0,.15-.07.27.27,0,0,0,.1-.11.34.34,0,0,0,0-.18Z"/><path class="cls-3" d="M727.58,821.64v-2h2.64v2Zm3.06,5.37-1.42-1.42,1.87-1.88,1.43,1.42Zm.55-9.37-1.89-1.88,1.43-1.42,1.88,1.88Zm8.44,3a4.18,4.18,0,0,1-.32,1.62,4.23,4.23,0,0,1-2.21,2.22,4.19,4.19,0,0,1-3.26,0,4.11,4.11,0,0,1-2.2-2.21,4.06,4.06,0,0,1-.33-1.63,4.21,4.21,0,0,1,1.22-2.95,4.24,4.24,0,0,1,1.32-.88,4.13,4.13,0,0,1,1.61-.32,4.06,4.06,0,0,1,1.63.33,4.08,4.08,0,0,1,2.21,2.21A4,4,0,0,1,739.63,820.67Zm-2,0a2.14,2.14,0,0,0-.17-.84,2,2,0,0,0-.45-.68,2,2,0,0,0-.68-.46,2.24,2.24,0,0,0-.86-.17,2.12,2.12,0,0,0-.83.17,2.14,2.14,0,0,0-1.14,1.15,2.09,2.09,0,0,0-.17.83,2.09,2.09,0,0,0,.64,1.52,2.15,2.15,0,0,0,.68.46,1.89,1.89,0,0,0,.82.18,2.14,2.14,0,0,0,.84-.17,2.19,2.19,0,0,0,.69-.46,2.15,2.15,0,0,0,.46-.68A2.22,2.22,0,0,0,737.62,820.67Zm-3.06-5.22v-2.64h2v2.64Zm0,13.13v-2.64h2v2.64Zm5.36-10.85-1.42-1.42,1.88-1.88,1.42,1.42Zm.53,9.2L738.59,825l1.42-1.42,1.85,1.88Zm.27-5.29v-2h2.63v2Z"/><path class="cls-3" d="M728.17,771.9c0,1.81-1.36,3.31-4.21,3.31s-4.86-1.44-5-4h1.88c.1,1.44,1.08,2.38,3.1,2.38,1.68,0,2.33-.74,2.33-1.61,0-1.34-1-1.59-3.2-2.15-1.77-.44-3.68-1.12-3.68-3.27s1.55-3.13,4-3.13,4.28,1.3,4.44,3.62H726c-.18-1.31-1-2-2.56-2-1.35,0-2.16.51-2.16,1.35,0,1.23,1.07,1.45,2.65,1.85C726.33,768.85,728.17,769.37,728.17,771.9Z"/><path class="cls-3" d="M731.52,763.67v4.68h5.34v-4.68h1.88V775h-1.88v-5h-5.34v5h-1.88v-11.3Z"/><path class="cls-3" d="M742.58,763.67V775H740.7v-11.3Z"/><path class="cls-3" d="M751.29,768.55v1.61h-4.88V775h-1.88v-11.3h7.9v1.59h-6v3.29Z"/><path class="cls-3" d="M756.81,765.26h-3.62v-1.59h9.1v1.59h-3.6V775h-1.88Z"/><path class="cls-3" d="M884.39,710.68c-4.21,0-5.88,3.53-5.88,7.39s1.67,7.42,5.88,7.42a4.87,4.87,0,0,0,5.26-4.76h3.25c-.43,4.4-3.45,7.55-8.43,7.55-5.63,0-9.19-4.3-9.19-10.21s3.56-10.18,9.19-10.18c5,0,8,3.15,8.43,7.14h-3.25A4.94,4.94,0,0,0,884.39,710.68Z"/><path class="cls-3" d="M933.77,708.3l5,16h0l5-16h3.45l-6.67,19.57H937l-6.67-19.57Z"/><path class="cls-3" d="M998,717.3v.06a4.47,4.47,0,0,1,3.8,4.79c0,3.78-2.6,5.72-6.65,5.72H986.3V708.3h8.4c4,0,6.35,1.78,6.35,4.93A4,4,0,0,1,998,717.3Zm-3.42-.9c2.32,0,3.2-.93,3.2-2.65s-1.07-2.69-3-2.69h-5.23v5.34Zm-5,8.71h5.37c2.79,0,3.64-1.32,3.64-3.15,0-2-1.23-3.12-3.29-3.12h-5.72Z"/><path class="cls-3" d="M1040.16,708.3h3.64l8.81,14.7h.06V708.3h3.25v19.57h-3.61l-8.84-14.64h0v14.64h-3.26Z"/><path class="cls-3" d="M1092.91,708.3h4.22l5.47,15.05h.05l5.45-15.05h4.22v19.57h-3.18V713h-.05l-5.18,14.83h-2.6L1096.14,713h-.05v14.83h-3.18Z"/><path class="cls-3" d="M1148.88,725.13a1.71,1.71,0,0,1,1.78-1.83c1.23,0,1.86,1,1.86,2.52,0,2-1,4.27-3.37,4.65v-1.56a2,2,0,0,0,1.67-2.08A1.56,1.56,0,0,1,1148.88,725.13Z"/><path class="cls-3" d="M1167,712a1.72,1.72,0,0,1-1.78,1.84c-1.23,0-1.86-1-1.86-2.52,0-2,1-4.27,3.36-4.65v1.56a2,2,0,0,0-1.67,2.08A1.56,1.56,0,0,1,1167,712Z"/><path class="cls-3" d="M1163.42,687.76a1.7,1.7,0,0,1,1.77-1.83c1.24,0,1.86,1,1.86,2.52,0,2-1,4.26-3.36,4.65v-1.56a2,2,0,0,0,1.67-2.08A1.56,1.56,0,0,1,1163.42,687.76Zm0-8.45a1.77,1.77,0,1,1,3.53,0,1.77,1.77,0,1,1-3.53,0Z"/><path class="cls-3" d="M738.57,578.43v-1.82H742v-3.52h1.82v3.52h3.41v1.82H743.8V582H742v-3.53Z"/><path class="cls-3" d="M807.75,578.94v1.82h-9.31v-1.82Z"/><path class="cls-3" d="M838.93,563.5v1.83h-8.55V563.5Zm0,3.28v1.82h-8.55v-1.82Z"/><path class="cls-3" d="M893.57,571.26l-.19,4.32h-1l-.18-4.32Zm2.28,0-.18,4.32h-1l-.18-4.32Z"/><path class="cls-3" d="M882.35,547.7v1.42h-.84v-1.45c-2-.26-3.48-1.75-3.57-4.49h1.63c.07,1.53.77,2.4,1.94,2.63v-4.07l-.12,0c-1.46-.54-3.07-1.34-3.07-3.69,0-2.12,1.23-3.54,3.19-3.62v-1.07h.84v1.13c1.68.3,2.93,1.75,3,4.14h-1.62a2.34,2.34,0,0,0-1.4-2.26V540c1.82.72,3.26,1.41,3.26,4.09A3.33,3.33,0,0,1,882.35,547.7Zm-.84-8.08v-3.39a1.52,1.52,0,0,0-1.58,1.56C879.93,538.82,880.57,539.23,881.51,539.62Zm2.48,4.47c0-1.08-.53-1.54-1.64-2v3.78A1.6,1.6,0,0,0,884,544.09Z"/><path class="cls-3" d="M793,544.45h0a2,2,0,0,1-1.89,1.43c-1.28,0-2.3-1.42-2.3-3.86s1.17-4.23,2.58-4.23a2,2,0,0,1,1.83,1.51h0l.14-1.37h1.27l-.44,4.67c-.13,1.27.18,1.94.85,1.94.83,0,1.37-1,1.37-3.08,0-3.35-1.7-5.9-4.52-5.9s-4.74,3-4.74,6.31c0,3.67,1.91,6.11,4.6,6.11a5,5,0,0,0,2.5-.55l.4,1.19a4.91,4.91,0,0,1-2.9.8c-3.4,0-5.75-2.94-5.75-7.55,0-4.23,2.45-7.75,5.89-7.75s5.63,3.3,5.63,7.29c0,3.48-1.35,4.54-2.58,4.54A2.07,2.07,0,0,1,793,544.45Zm0-2.89c0-1.49-.56-2.22-1.33-2.22-1,0-1.6,1.15-1.6,2.78,0,1.26.4,2.21,1.33,2.21C792.47,544.33,793,543.12,793,541.56Z"/><path class="cls-3" d="M850.29,528.54l-.4,2.7h1.44l-.22,1.6h-1.47l-.54,3.51h-1.2l.53-3.51h-1.54l-.53,3.51h-1.2l.53-3.51h-1.25l.23-1.6h1.27l.41-2.7H845l.24-1.6h1.38l.54-3.46h1.2l-.53,3.46h1.54l.52-3.46h1.21l-.53,3.46h1.32l-.24,1.6Zm-1.21,0h-1.53l-.41,2.7h1.53Z"/><path class="cls-3" d="M932.09,526.9c0-2,.76-3.7,2.36-3.7s2.35,1.71,2.35,3.7-.73,3.71-2.35,3.71S932.09,528.92,932.09,526.9Zm3.46,0c0-1.41-.34-2.27-1.1-2.27s-1.11.86-1.11,2.27.33,2.29,1.11,2.29S935.55,528.32,935.55,526.9Zm.06,9.45h-1.12l5.08-12.87h1.12Zm2.77-3.43c0-2,.75-3.71,2.35-3.71s2.35,1.7,2.35,3.71-.73,3.71-2.35,3.71S938.38,534.91,938.38,532.92Zm3.46,0c0-1.41-.34-2.29-1.11-2.29s-1.11.88-1.11,2.29.35,2.27,1.11,2.27S941.84,534.34,941.84,532.92Z"/><path class="cls-3" d="M1028.37,536.35l-.67-1.08a3.46,3.46,0,0,1-2.69,1.36c-2,0-3.13-1.53-3.13-3.56a4.62,4.62,0,0,1,2.1-3.86,5.92,5.92,0,0,1-1.18-3.28c0-1.56.84-3.16,2.56-3.18s2.56,1.62,2.56,3.18-.75,2.44-2.07,3.45l1.83,2.94a10.86,10.86,0,0,0,.55-2.38h1.39a12.3,12.3,0,0,1-1,3.87l1.57,2.54Zm-1.53-2.48-2.19-3.58a3.36,3.36,0,0,0-1.26,2.59,1.73,1.73,0,0,0,1.72,1.9A2.21,2.21,0,0,0,1026.84,533.87Zm-2.61-7.8a4.24,4.24,0,0,0,.94,2.23,2.78,2.78,0,0,0,1.32-2.23c0-.81-.39-1.48-1.13-1.48S1024.23,525.26,1024.23,526.07Z"/><path class="cls-3" d="M1019.34,557.71v1.82h-1.55v12.8h1.55v1.83h-3.18V557.71Z"/><path class="cls-3" d="M1070.63,586.87h-3.18v-1.82H1069v-12.8h-1.56v-1.83h3.18Z"/><path class="cls-3" d="M1104,563.43v-2.11c0-3.13.89-3.61,2.67-3.61h.3v1.82h-.3c-.63,0-1.05.38-1.05,1.74v2.64a2.2,2.2,0,0,1-.87,2v0a2.21,2.21,0,0,1,.87,2v2.57c0,1.43.42,1.8,1.05,1.8h.3v1.83h-.3c-1.78,0-2.67-.56-2.67-3.69v-2c0-1-.15-1.6-.86-1.6V565C1103.85,565,1104,564.38,1104,563.43Z"/><path class="cls-3" d="M1160.27,579.55c-.71,0-.87.65-.87,1.6v2c0,3.13-.88,3.69-2.65,3.69h-.31v-1.82h.31c.63,0,1-.38,1-1.81v-2.57a2.18,2.18,0,0,1,.86-2v0a2.16,2.16,0,0,1-.86-2V574c0-1.36-.42-1.73-1-1.73h-.31v-1.83h.31c1.77,0,2.65.49,2.65,3.62v2.1c0,1,.16,1.6.87,1.59Z"/><path class="cls-3" d="M1115.17,522.19a22.07,22.07,0,0,0,0,16.45h-1.29a18.66,18.66,0,0,1,0-16.45Z"/><path class="cls-3" d="M1157.31,541.52a17.79,17.79,0,0,1-1.92,8.2h-1.29a21.94,21.94,0,0,0,0-16.45h1.29A17.65,17.65,0,0,1,1157.31,541.52Z"/><path class="cls-3" d="M971.26,541l2.42,5.12h-1.53l-1.54-3.37h0l-1.53,3.37h-1.53L970,541Z"/><path class="cls-3" d="M1059.31,544.21l.88,1.68-.77.74-.88-1.77-.88,1.77-.79-.74.9-1.68-1.4-.58.31-1.15,1.38.65V541h1v2.1l1.37-.65.31,1.15Z"/><path class="cls-3" d="M925,567.1v-2l5.71-3.19v1.84l-4.49,2.35v0l4.49,2.33v1.82Z"/><path class="cls-3" d="M979.4,581.15l4.5-2.33v0l-4.5-2.35v-1.85l5.71,3.19v2L979.4,583Z"/><path class="cls-3" d="M749.12,543.1a1.2,1.2,0,1,1,2.4,0,1.2,1.2,0,1,1-2.4,0Zm2.27-12.25v3.52l-.52,6.07h-1.1l-.52-6.07v-3.52Z"/><path class="cls-3" d="M1177.35,740.66a2.8,2.8,0,1,1,2.8,3A2.74,2.74,0,0,1,1177.35,740.66Zm4.65,0c0-1.15-.54-2.15-1.85-2.15s-1.86,1-1.86,2.15.55,2.16,1.86,2.16S1182,741.81,1182,740.66Z"/><path class="cls-3" d="M1187.12,740.27v.82h-2.46v2.42h-1v-5.7h4v.81h-3v1.65Z"/><path class="cls-3" d="M1191.8,740.27v.82h-2.46v2.42h-.95v-5.7h4v.81h-3v1.65Z"/><path class="cls-3" d="M737,738.83c-1.23,0-1.71,1-1.71,2.15s.48,2.16,1.71,2.16a1.41,1.41,0,0,0,1.53-1.39h1A2.31,2.31,0,0,1,737,744a3,3,0,0,1,0-5.94,2.32,2.32,0,0,1,2.46,2.08h-1A1.43,1.43,0,0,0,737,738.83Z"/><path class="cls-3" d="M741,742.49l-.46,1.34h-1l2.09-5.7h1l2.09,5.7h-1l-.46-1.34Zm2.08-.79-.9-2.7h0l-.9,2.7Z"/><path class="cls-3" d="M745.33,738.13h2.42c1.09,0,1.88.51,1.88,1.71s-.79,1.71-1.88,1.71h-1.47v2.28h-.95Zm.95,2.61h1.43c.64,0,1-.27,1-.9s-.33-.9-1-.9h-1.43Z"/><path class="cls-3" d="M754.57,742.29c0,.91-.68,1.66-2.12,1.66a2.22,2.22,0,0,1-2.51-2h.95c.05.73.54,1.21,1.56,1.21.85,0,1.18-.37,1.18-.81,0-.68-.49-.81-1.62-1.09-.89-.22-1.85-.56-1.85-1.65s.78-1.58,2-1.58a2,2,0,0,1,2.24,1.83h-.95c-.09-.66-.5-1-1.29-1s-1.08.25-1.08.67c0,.63.53.74,1.33.94C753.65,740.75,754.57,741,754.57,742.29Z"/><path class="cls-3" d="M850.23,742.29c0,.91-.68,1.66-2.12,1.66a2.22,2.22,0,0,1-2.51-2h.95c.05.73.54,1.21,1.56,1.21.85,0,1.18-.37,1.18-.81,0-.68-.49-.81-1.61-1.09-.9-.22-1.86-.56-1.86-1.65s.78-1.58,2-1.58a2,2,0,0,1,2.24,1.83h-.94c-.09-.66-.51-1-1.3-1s-1.08.25-1.08.67c0,.63.53.74,1.33.94C849.31,740.75,850.23,741,850.23,742.29Z"/><path class="cls-3" d="M851,738.13h1.23l1.59,4.39h0l1.59-4.39h1.22v5.7h-.92v-4.32h0l-1.5,4.32h-.76l-1.51-4.32h0v4.32H851Z"/><path class="cls-3" d="M861,740.76h0a1.31,1.31,0,0,1,1.11,1.4c0,1.1-.76,1.66-1.94,1.66h-2.59v-5.7h2.45c1.18,0,1.85.52,1.85,1.44A1.17,1.17,0,0,1,861,740.76Zm-1-.27c.68,0,.93-.27.93-.77s-.31-.78-.87-.78h-1.53v1.55ZM858.56,743h1.57c.81,0,1.06-.38,1.06-.92a.86.86,0,0,0-1-.91h-1.67Z"/><path class="cls-3" d="M863.78,738.13V743h2.84v.8h-3.79v-5.7Z"/><path class="cls-3" d="M952.08,744.55h3.26c1.47,0,2.53.69,2.53,2.29s-1.06,2.31-2.53,2.31h-2v3.07h-1.27Zm1.27,3.51h1.93c.86,0,1.31-.37,1.31-1.22s-.45-1.21-1.31-1.21h-1.93Z"/><path class="cls-3" d="M962.12,745.48c-1.64,0-2.32,1.46-2.32,2.9s.52,2.9,2.27,2.9a2.08,2.08,0,0,0,2.19-2.06h-2.17v-1h3.47v4h-.88l-.28-1.05h0a2.63,2.63,0,0,1-2.39,1.21c-2.22,0-3.47-1.69-3.47-4s1.4-4,3.61-4a3,3,0,0,1,3.3,2.55h-1.28A1.85,1.85,0,0,0,962.12,745.48Z"/><path class="cls-3" d="M971.69,752.38c-2.14,0-3-1.11-3-2.78v-5.05h1.28v5.05c0,1.16.58,1.68,1.75,1.68s1.76-.52,1.76-1.68v-5.05h1.26v5.05C974.71,751.27,973.82,752.38,971.69,752.38Z"/><path class="cls-3" d="M975.91,744.55h3.26c1.47,0,2.53.69,2.53,2.29s-1.06,2.31-2.53,2.31h-2v3.07h-1.28Zm1.28,3.51h1.93c.86,0,1.31-.37,1.31-1.22s-.45-1.21-1.31-1.21h-1.93Z"/><path class="cls-3" d="M1153.82,853.93v0a1.29,1.29,0,0,1,1.11,1.39c0,1.1-.76,1.67-1.94,1.67h-2.59v-5.7h2.45c1.18,0,1.85.52,1.85,1.44A1.16,1.16,0,0,1,1153.82,853.93Zm-1-.26c.68,0,.93-.27.93-.77s-.31-.79-.87-.79h-1.53v1.56Zm-1.47,2.54h1.57c.81,0,1.06-.39,1.06-.92a.86.86,0,0,0-1-.91h-1.67Z"/><path class="cls-3" d="M1156.61,855.66l-.47,1.35h-1l2.1-5.7h1l2.09,5.7h-1l-.47-1.35Zm2.07-.79-.89-2.69h0l-.9,2.69Z"/><path class="cls-3" d="M1163.05,852c-1.23,0-1.72,1-1.72,2.16s.49,2.16,1.72,2.16a1.42,1.42,0,0,0,1.53-1.39h1a2.32,2.32,0,0,1-2.46,2.2,3,3,0,0,1,0-5.94,2.32,2.32,0,0,1,2.46,2.08h-1A1.45,1.45,0,0,0,1163.05,852Z"/><path class="cls-3" d="M1167.18,851.31v2.81l2.58-2.81h1.14l-2.22,2.42L1171,857h-1.1l-1.87-2.62-.88.94V857h-1v-5.7Z"/><path class="cls-3" d="M1173,852.11h-1.83v-.8h4.6v.8H1174V857h-1Z"/><path class="cls-3" d="M1176.7,855.66l-.47,1.35h-1l2.1-5.7h1l2.09,5.7h-1l-.46-1.35Zm2.07-.79-.89-2.69h0l-.9,2.69Z"/><path class="cls-3" d="M1184.41,853.93v0a1.29,1.29,0,0,1,1.11,1.39c0,1.1-.76,1.67-1.93,1.67H1181v-5.7h2.45c1.17,0,1.85.52,1.85,1.44A1.17,1.17,0,0,1,1184.41,853.93Zm-1-.26c.68,0,.93-.27.93-.77s-.31-.79-.88-.79H1182v1.56Zm-1.47,2.54h1.56c.82,0,1.06-.39,1.06-.92a.85.85,0,0,0-1-.91H1182Z"/><path class="cls-3" d="M952.08,859.88h3.26c1.47,0,2.53.69,2.53,2.29s-1.06,2.31-2.53,2.31h-2v3.07h-1.27Zm1.27,3.51h1.93c.86,0,1.31-.37,1.31-1.22s-.45-1.21-1.31-1.21h-1.93Z"/><path class="cls-3" d="M962.12,860.81c-1.64,0-2.32,1.46-2.32,2.9s.52,2.9,2.27,2.9a2.08,2.08,0,0,0,2.19-2.06h-2.17v-1h3.47v4h-.88l-.28-1.06h0a2.61,2.61,0,0,1-2.39,1.22c-2.22,0-3.47-1.69-3.47-4s1.4-4,3.61-4a3,3,0,0,1,3.3,2.55h-1.28A1.85,1.85,0,0,0,962.12,860.81Z"/><path class="cls-3" d="M968.77,859.88h3c2.11,0,3.41,1.37,3.41,3.84s-1.25,3.83-3.37,3.83h-3Zm1.28,6.58h1.64c1.72,0,2.2-1.27,2.2-2.74s-.48-2.76-2.2-2.76h-1.64Z"/><path class="cls-3" d="M976.17,859.88h1.43l3.45,5.76h0v-5.76h1.28v7.67h-1.42l-3.46-5.74h0v5.74h-1.28Z"/><path class="cls-3" d="M1218.24,679.31a1.77,1.77,0,1,1,3.53,0,1.77,1.77,0,1,1-3.53,0Zm0,8.4a1.77,1.77,0,1,1,3.53,0,1.77,1.77,0,1,1-3.53,0Z"/><path class="cls-3" d="M1202.85,725.08a1.77,1.77,0,1,1,3.53,0,1.77,1.77,0,1,1-3.53,0Z"/><path class="cls-3" d="M1223.15,707.42v2.69h-13.69v-2.69Z"/><path class="cls-3" d="M885.36,855h-2.65v-11.4a1.33,1.33,0,0,0-1.33-1.33H868.69l5.26,5.63-1.89,1.79L864,841l8.1-8.72L874,834l-5.26,5.59H884a1.34,1.34,0,0,1,1.34,1.33Z"/><polygon class="cls-3" points="1129.78 779.49 1112.71 779.49 1112.71 778.3 1104.05 780.63 1112.71 782.95 1112.71 781.77 1132.07 781.77 1132.07 770.35 1129.78 770.35 1129.78 779.49"/><polygon class="cls-3" points="1206.7 568.53 1188.48 568.53 1188.48 567.35 1179.83 569.67 1188.48 571.99 1188.48 570.81 1206.7 570.81 1206.7 568.53"/><path class="cls-3" d="M766.18,119.34H1158.6a8.54,8.54,0,0,1,8.54,8.54v18.48a0,0,0,0,1,0,0H757.64a0,0,0,0,1,0,0V127.88A8.54,8.54,0,0,1,766.18,119.34Z"/><path class="cls-3" d="M757.64,367.18h409.5a0,0,0,0,1,0,0v25.15a7,7,0,0,1-7,7H764.65a7,7,0,0,1-7-7V367.18a0,0,0,0,1,0,0Z"/><polygon class="cls-5" points="1152.11 372.33 1152.11 394.65 1163.38 383.38 1152.11 372.33"/><path d="M766.71,139.13v-1h-1v-1h-1v-1h-1V128h1v-1h1v-1h1v-1h6.06v1h1v1h1v1h1v2h-2v-1h-1v-1h-1v-1h-4v1h-1v1h-1v6.05h1v1h1v1h4v-1h1v-1h1v-1h2v2h-1v1h-1v1h-1v1Z"/><path d="M779.81,139.13v-1h-1v-1h-1v-6.05h1v-1h1v-1h5.05v1h1v1h1v6.05h-1v1h-1v1Zm4-2v-1h1v-4.05h-1v-1h-3v1h-1v4.05h1v1Z"/><path d="M788.88,139.13V129h2v1h1v-1h3v1h2v-1h4v1h1v1h1v8.07h-2v-7.07h-1v-1h-2v1h-1v7.07h-2v-7.07h-1v-1h-2v1h-1v7.07Z"/><path d="M805,143.16V129h2v1h1v-1h4.05v1h1v1h1v6.05h-1v1h-1v1H808v-1h-1v5Zm6-6v-1h1v-4.05h-1v-1h-3v1h-1v4.05h1v1Z"/><path d="M818.1,139.13v-1h-1v-1h-1v-6.05h1v-1h1v-1h5v1h1v1h1v6.05h-1v1h-1v1Zm4-2v-1h1v-4.05h-1v-1h-3v1h-1v4.05h1v1Z"/><path d="M827.17,139.13V129h2v1h1v-1h3.53v1h1v1h1v8.07h-2v-7.07h-1v-1h-2.52v1h-1v7.07Z"/><path d="M837.74,127.53v-2h2v2Zm0,11.6V129h2v10.09Z"/><path d="M845.79,127.53v-2h2v2Zm0,11.6V129h2v10.09Z"/><path d="M849.82,139.13V125h2v14.13Z"/><path d="M857.87,139.13V129h2v1h1v-1h3v1h2v-1h4v1h1v1h1v8.07h-2v-7.07h-1v-1h-2v1h-1v7.07h-2v-7.07h-1v-1h-2v1h-1v7.07Z"/><path d="M876,139.13v-1h-1v-1h-1v-6.05h1v-1h1v-1h5v1h1v1h1v3.53H876v1.52h1v1h3v-1h3v1h-1v1h-1v1Zm5-6v-1h-1v-1h-3v1h-1v1Z"/><path d="M886.58,139.13v-1h-1v-1h-1v-1h3v1h3.53v-2h-3.53v-1h-2v-1h-1v-2h1v-1h1v-1h5v1h1v1h1v1h-3v-1h-3.53v2h3.53v1h2v1h1v2h-1v1h-1v1Z"/><path d="M897.16,139.13v-1h-1v-1h-1v-1h3v1h3.53v-2h-3.53v-1h-2v-1h-1v-2h1v-1h1v-1h5.05v1h1v1h1v1h-3v-1h-3.53v2h3.53v1h2v1h1v2h-1v1h-1v1Z"/><path d="M907.74,139.13v-1h-1v-1h-1v-2h1v-1h2v-1h4v-1h-1v-1h-3v1h-3v-1h1v-1h1v-1h5v1h1v1h1v8.07h-2v-1h-1v1Zm4-2v-1h1v-2h-1v1h-3.53v2Z"/><path d="M918.82,143.16v-1h-1v-1h-1v-1h3v1h3v-1h1v-2h-1v1h-4v-1h-1v-1h-1v-6.05h1v-1h1v-1h4v1h1v-1h2v12.1h-1v1h-1v1Zm4-6v-1h1v-4.05h-1v-1h-3v1h-1v4.05h1v1Z"/><path d="M929.9,143.16v-1h-1v-1h-1v-1h3v1h3v-1h1v-2h-1v1h-4v-1h-1v-1h-1v-6.05h1v-1h1v-1h4v1h1v-1h2v12.1h-1v1h-1v1Zm4-6v-1h1v-4.05h-1v-1h-3v1h-1v4.05h1v1Z"/><path d="M939,127.53v-2h2v2Zm0,11.6V129h2v10.09Z"/><path d="M945,139.13v-1h-1v-1h-1v-6.05h1v-1h1v-1h5v1h1v1h1v6.05h-1v1h-1v1Zm4-2v-1h1v-4.05h-1v-1h-3v1h-1v4.05h1v1Z"/><path class="cls-3" d="M766.71,169.32v-1h-1v-1h-1v-1h-1v-8.08h1v-1h1v-1h1v-1h6.06v1h1v1h1v1h1v7.57h-1v1.52h1v2h-2v-1h-1.51v1Zm5-2v-1h-1v-2h2v1h1v-6h-1v-1h-1v-1h-4v1h-1v1h-1v6h1v1h1v1Z"/><path class="cls-3" d="M779.81,169.32v-1h-1v-1h-1v-8.07h2v7.06h1v1h2.52v-1h1v-7.06h2v10.08h-2v-1h-1v1Z"/><path class="cls-3" d="M790.39,169.32v-1h-1v-1h-1v-6.06h1v-1h1v-1h5.05v1h1v1h1v3.53h-7.06v1.52h1v1h3v-1h3v1h-1v1h-1v1Zm5.05-6v-1h-1v-1h-3v1h-1v1Z"/><path class="cls-3" d="M801,169.32v-1h-1v-1h-1v-1h3v1h3.53v-2H802v-1h-2v-1h-1v-2h1v-1h1v-1h5v1h1v1h1v1h-3v-1h-3.53v2H805v1h2v1h1v2h-1v1h-1v1Z"/><path class="cls-3" d="M811.54,169.32v-1h-1v-7.56H809v-1.51h1.51v-3h2v3h2v1.51h-2v6.56h2v2Z"/><path class="cls-3" d="M818.09,169.32v-1h-1v-1h-1v-6.06h1v-1h1v-1h5v1h1v1h1v6.06h-1v1h-1v1Zm4-2v-1h1v-4h-1v-1h-3v1h-1v4h1v1Z"/><path class="cls-3" d="M833.2,169.32v-1h-1v-1h-1v-6.06h1v-1h1v-1h5v1h1v1h1v3.53H833.2v1.52h1v1h3v-1h3v1h-1v1h-1v1Zm2-11.1v-1h-1v-1h-1v-1h2v1h1v1h1v1Zm3,5.05v-1h-1v-1h-3v1h-1v1Z"/><path class="cls-3" d="M848.3,169.32v-1h-1v-1h-1v-8.07h2v7.06h1v1h2.52v-1h1v-7.06h2v10.08h-2v-1h-1v1Z"/><path class="cls-3" d="M856.87,169.32V159.24h2v1h1v-1h3.53v1h1v1h1v8.07h-2v-7.06h-1v-1h-2.52v1h-1v7.06Z"/><path class="cls-3" d="M873.48,169.32v-1h-1v-7.56H871v-1.51h1.51v-3h2v3h2v1.51h-2v6.56h2v2Z"/><path class="cls-3" d="M880,169.32v-1h-1v-1h-1v-6.06h1v-1h1v-1h5.05v1h1v1h1v3.53H880v1.52h1v1h3v-1h3v1h-1v1h-1v1Zm5.05-6v-1h-1v-1h-3v1h-1v1Z"/><path class="cls-3" d="M890.61,169.32v-1h-1v-1h-1v-1h3v1h3.53v-2h-3.53v-1h-2v-1h-1v-2h1v-1h1v-1h5v1h1v1h1v1h-3v-1h-3.53v2h3.53v1h2v1h1v2h-1v1h-1v1Z"/><path class="cls-3" d="M901.19,169.32v-1h-1v-7.56h-1.51v-1.51h1.51v-3h2v3h2v1.51h-2v6.56h2v2Z"/><path class="cls-3" d="M907.73,169.32v-1h-1v-1h-1v-6.06h1v-1h1v-1h5v1h1v1h1v6.06h-1v1h-1v1Zm4-2v-1h1v-4h-1v-1h-3v1h-1v4h1v1Z"/><path class="cls-3" d="M920.83,169.32V159.24h2v1h1v-1h3.53v1h1v1h1v8.07h-2v-7.06h-1v-1h-2.52v1h-1v7.06Z"/><path class="cls-3" d="M933.42,169.32v-1h-1v-1h-1v-6.06h1v-1h1v-1h5.05v1h1v1h1v6.06h-1v1h-1v1Zm4-2v-1h1v-4h-1v-1h-3v1h-1v4h1v1Z"/><path class="cls-3" d="M942.49,169.32V159.24h2v1h1v-1H948v2h-2.52v1h-1v7.06Z"/><path class="cls-3" d="M949.53,169.32V159.24h2v1h1v-1h3v1h2v-1h4v1h1v1h1v8.07h-2v-7.06h-1v-1h-2v1h-1v7.06h-2v-7.06h-1v-1h-2v1h-1v7.06Z"/><path class="cls-3" d="M967.67,169.32v-1h-1v-1h-1v-2h1v-1h2v-1h4v-1h-1v-1h-3v1h-3v-1h1v-1h1v-1h5.05v1h1v1h1v8.07h-2v-1h-1v1Zm4-2v-1h1v-2h-1v1h-3.53v2Z"/><path class="cls-3" d="M976.74,169.32V155.2h2v14.12Z"/><path class="cls-3" d="M982.78,169.32v-1h-1v-1h-1v-6.06h1v-1h1v-1h5.05v1h1v1h1v3.53h-7.06v1.52h1v1h3v-1h3v1h-1v1h-1v1Zm5.05-6v-1h-1v-1h-3v1h-1v1Z"/><path class="cls-3" d="M991.85,169.32v-2h2v2Z"/><path class="cls-3" d="M999.9,169.32V155.2H1014v14.12Z"/><rect class="cls-5" x="763.64" y="372.33" width="115.71" height="22.32" rx="4.58"/><path d="M786,389.84V375.71h2v14.13Z"/><path d="M790,389.84V379.75h2v1h1v-1h3.54v1h1v1h1v8.07h-2v-7.07h-1v-1H793v1h-1v7.07Z"/><path d="M803.62,389.84v-2h-1v-2h-1v-2h-1v-2h-1v-2h2v2h1v2h1v2h2v-2h1v-2h1v-2h2v2h-1v2h-1v2h-1v2h-1v2Z"/><path d="M811.17,378.24v-2h2v2Zm0,11.6V379.75h2v10.09Z"/><path d="M817.21,389.84v-1h-1v-1h-1v-2h1v-1h2v-1h4v-1h-1v-1h-3v1h-3v-1h1v-1h1v-1h5v1h1v1h1v8.07h-2v-1h-1v1Zm4-2v-1h1v-2h-1v1h-3.53v2Z"/><path d="M826.28,389.84V379.75h2v1h1v-1h2.52v2H829.3v1h-1v7.07Z"/><path d="M834.84,389.84v-1h-1v-1h-1v-6.05h1v-1h1v-1h5v1h1v1h1v3.53h-7.06v1.52h1v1h3v-1h3v1h-1v1h-1v1Zm5-6v-1h-1v-1h-3v1h-1v1Z"/><path d="M849.94,389.84v-1h-1v-1h-1v-2h1v-1h2v-1h4v-1h-1v-1h-3v1h-3v-1h1v-1h1v-1h5v1h1v1h1v8.07h-2v-1h-1v1Zm4-2v-1h1v-2h-1v1h-3.53v2Z"/><rect class="cls-5" x="886.83" y="372.33" width="115.71" height="22.32" rx="4.58"/><path d="M909.94,389.84v-3h1v-3h1v-3h1v-3h1v-2h3v2h1v3h1v3h1v3h1v3h-2v-3H912v3Zm8.07-5v-1h-1v-3h-1v-2h-1v2h-1v3h-1v1Z"/><path d="M923,389.84V379.75h2v1h1v-1h2.52v2h-2.52v1h-1v7.07Z"/><path d="M931.6,389.84v-1h-1v-1h-1v-6.05h1v-1h1v-1h5v1h1v1h1v2h-2v-1h-1v-1h-3v1h-1v4.05h1v1h3v-1h1v-1h2v2h-1v1h-1v1Z"/><path d="M940.67,389.84V375.71h2v5.05h1v-1h3.53v1h1v1h1v8.07h-2v-7.07h-1v-1h-2.52v1h-1v7.07Z"/><path d="M951.24,378.24v-2h2v2Zm0,11.6V379.75h2v10.09Z"/><path d="M958.8,389.84v-2h-1v-2h-1v-2h-1v-2h-1v-2h2v2h1v2h1v2h2v-2h1v-2h1v-2h2v2h-1v2h-1v2h-1v2h-1v2Z"/><path d="M966.35,378.24v-2h2v2Zm0,11.6V379.75h2v10.09Z"/><path d="M972.39,389.84v-1h-1v-1h-1v-2h1v-1h2v-1h4.05v-1h-1v-1h-3v1h-3v-1h1v-1h1v-1h5.05v1h1v1h1v8.07h-2v-1h-1v1Zm4-2v-1h1v-2h-1v1h-3.53v2Z"/><rect class="cls-5" x="1007.64" y="372.33" width="115.71" height="22.32" rx="4.58"/><path d="M1031.25,389.84v-1h-1v-1h-1v-1h-1v-8.08h1v-1h1v-1h1v-1h6v1h1v1h1v1h1v2h-2v-1h-1v-1h-1v-1h-4v1h-1v1h-1v6.05h1v1h1v1h4v-1h1v-1h1v-1h2v2h-1v1h-1v1h-1v1Z"/><path d="M1043.84,389.84v-1h-1v-1h-1v-2h1v-1h2v-1h4v-1h-1v-1h-3v1h-3v-1h1v-1h1v-1h5.05v1h1v1h1v8.07h-2v-1h-1v1Zm4-2v-1h1v-2h-1v1h-3.53v2Z"/><path d="M1052.91,389.84V379.75h2v1h1v-1h3.53v1h1v1h1v8.07h-2v-7.07h-1v-1h-2.52v1h-1v7.07Z"/><path d="M1065.5,389.84v-1h-1v-1h-1v-6.05h1v-1h1v-1h5v1h1v1h1v2h-2v-1h-1v-1h-3v1h-1v4.05h1v1h3v-1h1v-1h2v2h-1v1h-1v1Z"/><path d="M1076.58,389.84v-1h-1v-1h-1v-6.05h1v-1h1v-1h5.05v1h1v1h1v3.53h-7.06v1.52h1v1h3v-1h3v1h-1v1h-1v1Zm5.05-6v-1h-1v-1h-3v1h-1v1Z"/><path d="M1085.65,389.84V375.71h2v14.13Z"/><path d="M1089.67,389.84V375.71h2v14.13Z"/><path d="M1095.71,389.84v-1h-1v-1h-1v-2h1v-1h2v-1h4v-1h-1v-1h-3v1h-3v-1h1v-1h1v-1h5v1h1v1h1v8.07h-2v-1h-1v1Zm4-2v-1h1v-2h-1v1h-3.53v2Z"/></g></svg>