<svg id="Livello_1" data-name="Livello 1" xmlns="http://www.w3.org/2000/svg" viewBox="0 0 625 417.71"><defs><style>.cls-1,.cls-9{fill:none;stroke:#77aa8a;}.cls-1{stroke-miterlimit:10;stroke-width:2px;}.cls-2{font-size:23.2px;fill:#77aa8a;font-family:NeueMontreal-Regular, Neue Montreal;}.cls-3{letter-spacing:-0.01em;}.cls-4{letter-spacing:-0.01em;}.cls-5{letter-spacing:0em;}.cls-6{letter-spacing:-0.01em;}.cls-7{letter-spacing:0em;}.cls-8{letter-spacing:-0.01em;}.cls-9{stroke-linejoin:round;stroke-width:3px;}</style></defs><polyline class="cls-1" points="594.87 297.77 594.87 303.96 97.39 303.96 97.39 56.47 109.83 56.47"/><line class="cls-1" x1="97.39" y1="303.96" x2="97.39" y2="297.77"/><line class="cls-1" x1="130.56" y1="303.96" x2="130.56" y2="297.77"/><line class="cls-1" x1="163.72" y1="303.96" x2="163.72" y2="297.77"/><line class="cls-1" x1="196.89" y1="303.96" x2="196.89" y2="297.77"/><line class="cls-1" x1="230.05" y1="303.96" x2="230.05" y2="297.77"/><line class="cls-1" x1="263.22" y1="303.96" x2="263.22" y2="297.77"/><line class="cls-1" x1="296.38" y1="303.96" x2="296.38" y2="297.77"/><line class="cls-1" x1="329.55" y1="303.96" x2="329.55" y2="297.77"/><line class="cls-1" x1="362.71" y1="303.96" x2="362.71" y2="297.77"/><line class="cls-1" x1="395.88" y1="303.96" x2="395.88" y2="297.77"/><line class="cls-1" x1="429.04" y1="303.96" x2="429.04" y2="297.77"/><line class="cls-1" x1="462.21" y1="303.96" x2="462.21" y2="297.77"/><line class="cls-1" x1="495.37" y1="303.96" x2="495.37" y2="297.77"/><line class="cls-1" x1="528.54" y1="303.96" x2="528.54" y2="297.77"/><line class="cls-1" x1="561.71" y1="303.96" x2="561.71" y2="297.77"/><text class="cls-2" transform="translate(33.95 304.36)">0</text><text class="cls-2" transform="translate(33.96 254.84)">20%</text><text class="cls-2" transform="translate(33.95 205.31)">40%</text><text class="cls-2" transform="translate(33.95 155.78)">60%</text><text class="cls-2" transform="translate(33.95 106.25)"><tspan class="cls-3">8</tspan><tspan x="13.32" y="0">0%</tspan></text><text class="cls-2" transform="translate(33.95 56.72)">100%</text><text class="cls-2" transform="translate(131.08 375.6) rotate(-90)">1950</text><text class="cls-2" transform="translate(164.25 375.6) rotate(-90)">1955</text><text class="cls-2" transform="translate(197.42 375.6) rotate(-90)">1960</text><text class="cls-2" transform="translate(230.59 375.6) rotate(-90)">1965</text><text class="cls-2" transform="translate(263.77 375.6) rotate(-90)">1<tspan class="cls-4" x="8.03" y="0">97</tspan><tspan class="cls-5" x="32.67" y="0">0</tspan></text><text class="cls-2" transform="translate(296.94 375.6) rotate(-90)">1<tspan class="cls-4" x="8.03" y="0">97</tspan><tspan x="32.67" y="0">5</tspan></text><text class="cls-2" transform="translate(330.11 375.6) rotate(-90)">19<tspan class="cls-6" x="21.46" y="0">8</tspan><tspan class="cls-7" x="34.78" y="0">0</tspan></text><text class="cls-2" transform="translate(363.28 375.6) rotate(-90)">1985</text><text class="cls-2" transform="translate(396.45 375.6) rotate(-90)">1990</text><text class="cls-2" transform="translate(429.62 375.6) rotate(-90)">1995</text><text class="cls-2" transform="translate(462.79 375.6) rotate(-90)">2000</text><text class="cls-2" transform="translate(495.96 375.6) rotate(-90)">2005</text><text class="cls-2" transform="translate(529.13 375.6) rotate(-90)">2<tspan class="cls-4" x="12.9" y="0">0</tspan><tspan class="cls-5" x="26.94" y="0">10</tspan></text><text class="cls-2" transform="translate(562.3 375.6) rotate(-90)">2<tspan class="cls-4" x="12.9" y="0">0</tspan><tspan class="cls-5" x="26.94" y="0">15</tspan></text><text class="cls-2" transform="translate(595.48 375.6) rotate(-90)">2<tspan class="cls-8" x="12.9" y="0">0</tspan><tspan x="27.17" y="0">20</tspan></text><line class="cls-1" x1="97.39" y1="254.46" x2="109.83" y2="254.46"/><line class="cls-1" x1="97.39" y1="204.96" x2="109.83" y2="204.96"/><line class="cls-1" x1="97.39" y1="155.46" x2="109.83" y2="155.46"/><line class="cls-1" x1="97.39" y1="105.97" x2="109.83" y2="105.97"/><polyline class="cls-9" points="578.29 291.58 545.12 279.21 511.96 229.71 478.79 204.96 445.63 155.46 412.46 56.47 379.3 81.22 346.13 93.59 312.96 105.97 279.8 143.09 246.63 155.46 213.47 180.21 180.3 204.96 147.14 254.46 113.97 303.96"/></svg>